<svg width="39" height="40" viewBox="0 0 39 40" fill="none" xmlns="http://www.w3.org/2000/svg">
<rect x="0.328857" y="0.763672" width="38.5714" height="38.5714" rx="19.2857" transform="rotate(-0.148258 0.328857 0.763672)" fill="#FFDA55"/>
<ellipse cx="21.5489" cy="23.7447" rx="4.6875" ry="6.5625" transform="rotate(-0.148258 21.5489 23.7447)" fill="#FFCE51"/>
<path d="M29.0157 20.413C27.04 15.318 20.0518 15.0611 21.7201 7.64429C21.8437 7.09396 21.2551 6.67049 20.7808 6.95921C16.2503 9.64595 13.0016 15.0169 15.7573 22.0348C15.9838 22.6092 15.3102 23.1484 14.8217 22.7747C12.5548 21.068 12.3109 18.6062 12.5064 16.8432C12.5797 16.193 11.7289 15.8827 11.3678 16.4211C10.5211 17.7233 9.66407 19.8255 9.67226 22.988C10.1654 29.9868 16.0834 32.1215 18.2091 32.391C21.2476 32.7706 24.5336 32.1996 26.8905 30.031C29.4843 27.6118 30.4243 23.7593 29.0157 20.413ZM17.432 26.7304C19.2308 26.2883 20.1525 24.9859 20.3995 23.8353C20.8074 22.0467 19.1903 20.3009 20.2705 17.4731C20.6891 19.8095 24.3678 21.2625 24.3744 23.8125C24.4826 26.9747 21.0647 29.6961 17.432 26.7304Z" fill="#FF7324"/>
</svg>
