<?xml version="1.0" encoding="UTF-8"?>
<svg xmlns="http://www.w3.org/2000/svg" viewBox="0 0 57.79 54.5">
  <defs>
    <style>
      .cls-1 {
        fill: #8c6c1d;
      }

      .cls-1, .cls-2 {
        opacity: .2;
      }

      .cls-1, .cls-2, .cls-3, .cls-4, .cls-5, .cls-6, .cls-7, .cls-8, .cls-9, .cls-10, .cls-11, .cls-12 {
        mix-blend-mode: multiply;
      }

      .cls-2, .cls-11, .cls-12 {
        fill: #a98b31;
      }

      .cls-3 {
        fill: #c5d1d0;
      }

      .cls-3, .cls-6, .cls-13, .cls-12 {
        opacity: .5;
      }

      .cls-14 {
        fill: #f4a44d;
      }

      .cls-4, .cls-5, .cls-6, .cls-15 {
        fill: #fd8f00;
      }

      .cls-4, .cls-9 {
        opacity: .3;
      }

      .cls-5, .cls-11 {
        opacity: .7;
      }

      .cls-7 {
        fill: #9e3b09;
      }

      .cls-7, .cls-10 {
        opacity: .4;
      }

      .cls-8 {
        opacity: .6;
      }

      .cls-8, .cls-9 {
        fill: #a13e00;
      }

      .cls-16 {
        isolation: isolate;
      }

      .cls-10 {
        fill: #9f6825;
      }

      .cls-17 {
        fill: #ffa800;
      }

      .cls-13 {
        fill: #fbf2a5;
      }

      .cls-18 {
        fill: #ffac0c;
      }

      .cls-19 {
        fill: #ff8a0b;
      }
    </style>
  </defs>
  <g class="cls-16">
    <g id="Layer_2">
      <g id="l1">
        <g>
          <path class="cls-19" d="M28.43,0C14.33,0,2.9,10.87,2.9,24.28s11.43,24.28,25.53,24.28,25.54-10.87,25.54-24.28S42.54,0,28.43,0ZM28.54,5.08c.18,0,.36,0,.54.02,1.32.02,2.6.19,3.84.48.01,0,.02,0,.03.01h.01s.12.07.12.07c.12,0,.24.03.35.05.11.02.22.05.33.09,2.24.62,4.31,1.63,6.14,2.96.02.04.05.08.08.12.14.08.28.17.42.26.27.2.52.41.77.64,4.13,3.54,6.74,8.8,6.74,14.67,0,7.11-3.83,13.33-9.54,16.69-.54.29-1.1.55-1.68.79.16-.04.32-.08.47-.13-2.6,1.3-5.52,2.03-8.62,2.03-1.72,0-3.39-.22-4.97-.65-.87-.23-1.72-.53-2.53-.88-.04-.02-.08-.03-.12-.05-.06-.02-.12-.04-.18-.07-.04-.02-.08-.04-.13-.06-.03-.01-.07-.02-.1-.04-.07-.03-.14-.06-.21-.09-.05-.02-.11-.05-.16-.07-2.24-1.08-4.23-2.58-5.89-4.39-2.09-2.29-3.64-5.07-4.45-8.16-.41-1.57-.63-3.22-.63-4.92,0-3.01.69-5.86,1.91-8.4.05-.1.11-.21.17-.32.56-1.13,1.24-2.19,2.01-3.18.22-.28.45-.56.68-.83.74-.84,1.54-1.62,2.41-2.31,3.33-2.71,7.57-4.33,12.19-4.33Z"/>
          <path class="cls-3" d="M51.08,27.54c-.34,2.47-1.29,4.65-2.55,6.78-1.22,2.07-2.04,4.59-3.95,6.18-2.57,2.15-6.24,3.86-9.86,4.71h-.01c-1.59.37-3.17.58-4.65.59-3.3.03-6.6,0-9.7-.87-.01-.01-.02-.01-.03-.01-.7-.19-1.4-.42-2.07-.7,0,0,0-.01-.02-.01-.77-.32-1.51-.7-2.24-1.16-.12-.07-.23-.15-.34-.23-2.44-1.61-4.54-4-5.76-6.71-.01,0-.01-.02-.01-.02-.94-2.06-1.37-4.29-1.08-6.51.04-.25.08-.49.13-.74.05,0,.1.01.15.02.05.01.1.02.14.05.21.07.4.24.57.46.81,3.09,2.36,5.87,4.45,8.16,1.66,1.81,3.65,3.31,5.89,4.39.05.02.11.05.16.07.07.03.14.06.21.09.03.02.07.03.1.04.05.02.09.04.13.06.06.03.12.05.18.07.04.02.08.03.12.05.81.35,1.66.65,2.53.88,1.58.43,3.25.65,4.97.65,3.1,0,6.02-.73,8.62-2.03-.15.05-.31.09-.47.13.58-.24,1.14-.5,1.68-.79,5.71-3.36,9.54-9.58,9.54-16.69,0-5.87-2.61-11.13-6.74-14.67-.25-.23-.5-.44-.77-.64-.14-.09-.28-.18-.42-.26-.03-.04-.06-.08-.08-.12-.41-.55-.64-1.17-.8-1.8-.02-.06-.03-.12-.05-.18-.37-1.49-.47-3.07-1.79-4.21l-.13-.26-.14-.27-.08-.16c.09.1.19.19.31.25h.01c.19.12.41.19.64.25.42.11.87.17,1.25.33.84.35,1.55.83,2.32,1.33.01,0,.02,0,.03.02,1.89,1.22,3.66,2.77,5.08,4.47,1.94,2.31,3.36,5.06,4.28,7.91,1.18,3.68.76,7.34.25,11.1Z"/>
          <path class="cls-2" d="M51.26,28.92c-1.09,4.19-2.82,8.04-6.01,11.12-1.19,1.13-2.52,1.78-3.73,2.86-1.23,1.09-2.39,1.91-4,2.38-3.6,1.04-7.26,1.48-11.1,1.26-2.55-.15-5.55-1.1-8.16-2.32,0,0,0-.01-.02-.01-.92-.43-1.79-.9-2.58-1.39-.1-.06-.2-.12-.3-.18-3.76-2.37-6.28-5.86-8.25-9.81-.95-1.91-1.54-3.61-1.87-5.48-.05-.27-.09-.54-.13-.81-.1-.73-.17-1.5-.21-2.31-.09-1.67.06-3.43.43-5.13t0-.01c.19-.86.43-1.69.73-2.49.96-2.53,2.67-4.37,4.21-6.48,1.31-1.8,2.92-3.46,4.74-4.73l.11-.23c-.16.47-.3.96-.43,1.47-.28,1.09-.49,2.25-.61,3.43-.02.13-.04.26-.04.39-.05.42-.08.85-.1,1.27-.23.27-.46.55-.68.83-.77.99-1.45,2.05-2.01,3.18-.06.11-.12.22-.17.32-1.22,2.54-1.91,5.39-1.91,8.4,0,1.7.22,3.35.63,4.92.81,3.09,2.36,5.87,4.45,8.16,1.66,1.81,3.65,3.31,5.89,4.39.05.02.11.05.16.07.07.03.14.06.21.09.03.02.07.03.1.04.05.02.09.04.13.06.06.03.12.05.18.07.04.02.08.03.12.05.81.35,1.66.65,2.53.88,1.58.43,3.25.65,4.97.65,3.1,0,6.02-.73,8.62-2.03-.15.05-.31.09-.47.13.58-.24,1.14-.5,1.68-.79,5.71-3.36,9.54-9.58,9.54-16.69,0-5.87-2.61-11.13-6.74-14.67-.25-.23-.5-.44-.77-.64-.14-.09-.28-.18-.42-.26-.03-.04-.06-.08-.08-.12-1.83-1.33-3.9-2.34-6.14-2.96-.11-.04-.22-.07-.33-.09-.11-.02-.23-.04-.35-.05l-.12-.06h-.01c-.06-.11-.13-.21-.21-.31-.16-.25-.33-.52-.49-.79-.86-1.4-1.48-2.94.12-3.34,0,0,.02-.01.03-.01,1.1-.27,3.3.43,4.59.89.08.04.16.06.23.09h.01c.07.03.14.06.2.08.15.05.29.11.44.17,1.2.46,2.41,1.01,3.57,1.66.01,0,.02,0,.03.02,1.97,1.09,3.8,2.43,5.25,4.08,1.12,1.27,1.8,2.87,2.65,4.27.91,1.51,1.88,2.86,2.44,4.59,1.32,4.12.51,7.87-.55,11.92Z"/>
          <path class="cls-2" d="M23.35,1.81c0,.18.1.42.13.62-.05.02-.09.04-.13.07v-.69Z"/>
          <path class="cls-2" d="M23.48,2.43c.14-.08.31-.14.49-.19-.15.11-.31.19-.48.26,0-.02-.01-.05-.01-.07Z"/>
          <path class="cls-2" d="M47.2,34.93c-1.46,2.46-3.4,4.98-5.61,6.82-1.04.87-2.01,1.14-3.23,1.57-1.14.4-2.03,1.22-3.16,1.7-.16.07-.32.13-.48.19h-.01c-2.45.88-5.3.86-7.87.87-2.18,0-4.45-.31-6.48-1.15-.01-.01-.02-.01-.03-.01-.68-.29-1.33-.64-1.95-1.05-2.44-1.64-5.12-3.97-7.11-6.14-.49-.53-.95-1.07-1.37-1.62-.01,0-.01-.02-.01-.02-1.29-1.66-2.32-3.43-3.15-5.41-1.25-2.98-.84-6.42-.26-9.58.68-3.74,1.93-6.41,4.41-9.31.45-.53,1.83-2.46,2.6-1.5.05.07.09.16.11.26.02.11.03.24.01.39-.02.48-.19,1.1-.35,1.61-.77.99-1.45,2.05-2.01,3.18-.06.11-.12.22-.17.32-1.22,2.54-1.91,5.39-1.91,8.4,0,1.7.22,3.35.63,4.92.81,3.09,2.36,5.87,4.45,8.16,1.66,1.81,3.65,3.31,5.89,4.39.05.02.11.05.16.07.07.03.14.06.21.09.03.02.07.03.1.04.05.02.09.04.13.06.06.03.12.05.18.07.04.02.08.03.12.05.81.35,1.66.65,2.53.88,1.58.43,3.25.65,4.97.65,3.1,0,6.02-.73,8.62-2.03-.15.05-.31.09-.47.13.58-.24,1.14-.5,1.68-.79,5.71-3.36,9.54-9.58,9.54-16.69,0-5.87-2.61-11.13-6.74-14.67-.25-.23-.5-.44-.77-.64-.14-.09-.28-.18-.42-.26-.03-.04-.06-.08-.08-.12-1.83-1.33-3.9-2.34-6.14-2.96-.11-.04-.22-.07-.33-.09-.11-.02-.23-.04-.35-.05l-.12-.06h-.01s-.02-.02-.03-.02c-1.24-.29-2.52-.46-3.84-.48-.22-.27-.35-.59-.48-.92-.26-.67-.48-1.38-1.29-1.78-.76-.38-2.3-.45-3.34-.16.68-.45,1.2-1.2,2.05-1.47,1.37-.42,3.27-.08,4.65.12.57.08,1.14.17,1.7.27,1.64.27,3.24.62,4.76,1.15,1.44.5,2.82,1.17,4.11,2.11,4.45,3.24,7.29,7.9,8.17,13.35.9,5.65.76,12.14-2.21,17.16Z"/>
          <path class="cls-10" d="M49.07,23.13c-.02-.23,0-.48-.05-.76-.04-.28-.09-.58-.14-.92-.06-.32-.08-.68-.16-1.05-.02-.08-.04-.17-.06-.25,0-.01-.01-.02-.01-.03-.08-.29-.15-.59-.23-.91-.47-1.63-1.14-3.65-2.48-5.68-1.31-2.03-3.15-4.16-5.68-5.85-.37-.25-.76-.49-1.16-.72-.23-.14-.46-.26-.7-.38-1.82-.96-3.89-1.69-6.15-2.08-.39-.07-.79-.13-1.19-.18-.44-.06-.85-.06-1.29-.09l-.64-.04-.33-.02h-.2s-.17.01-.17.01c-.9.06-1.81.05-2.72.22-1.84.21-3.66.78-5.42,1.51-1.76.75-3.41,1.8-4.95,3-.44.37-.86.75-1.26,1.15-.17.16-.33.32-.48.49-.82.84-1.57,1.74-2.25,2.7-1.09,1.66-1.95,3.48-2.55,5.38-.54,1.91-.78,3.97-.77,5.88.07,1.75.32,3.44.78,5.07.08.26.16.52.24.78.6,1.71,1.4,3.34,2.37,4.83.08.14.17.27.26.4.58.81,1.21,1.57,1.88,2.29.65.7,1.33,1.35,2.05,1.96.51.4,1.02.78,1.55,1.14,0,0,.01,0,.01,0,1.04.71,2.12,1.35,3.26,1.86,1.73.74,3.49,1.34,5.32,1.6.93.19,1.79.2,2.66.27h.17s.08.01.08.01h.04s.07,0,.07,0h.19s.14,0,.14,0l.67-.03c.44-.02.88-.01,1.31-.06,3.48-.38,6.65-1.59,9.16-3.27.63-.43,1.21-.89,1.77-1.33.53-.51,1.06-.97,1.53-1.46.45-.52.91-1,1.3-1.51.38-.53.76-1.02,1.09-1.53,1.34-2.03,2.01-4.05,2.48-5.68.1-.42.21-.82.29-1.19.09-.37.12-.73.18-1.05.05-.34.09-.64.13-.92.05-.28.04-.53.06-.76.04-.91.06-1.4.06-1.4,0,0-.02-.49-.06-1.41ZM48.95,25.33c-.01.17-.02.37-.03.6-.03.23-.02.49-.07.76-.04.28-.09.57-.15.9-.05.33-.09.68-.19,1.04-.11.37-.21.75-.33,1.16-.06.2-.11.42-.19.62-.08.21-.17.42-.25.64,0,.02-.01.03-.02.05-.08.2-.17.41-.26.61-.09.23-.19.46-.32.68-.24.45-.49.92-.76,1.4-.3.46-.62.93-.95,1.42-.72.98-1.59,1.96-2.61,2.88-.93.85-1.99,1.65-3.18,2.36-.41.24-.83.48-1.27.69-.54.29-1.1.55-1.68.79.16-.04.32-.08.47-.13-2.6,1.3-5.52,2.03-8.62,2.03-1.72,0-3.39-.22-4.97-.65-.87-.23-1.72-.53-2.53-.88-.04-.02-.08-.03-.12-.05-.06-.02-.12-.04-.18-.07-.04-.02-.08-.04-.13-.06-.03-.01-.07-.02-.1-.04-.07-.03-.14-.06-.21-.09-.05-.02-.11-.05-.16-.07-1.49-.63-2.9-1.47-4.22-2.46-1.06-.84-2.03-1.8-2.91-2.85-.34-.41-.66-.82-.97-1.25-1.08-1.58-1.91-3.32-2.49-5.15-.12-.43-.23-.86-.32-1.3-.3-1.44-.44-2.91-.44-4.35.1-1.98.41-3.81,1.01-5.62.35-1,.78-1.96,1.28-2.89.05-.1.11-.21.17-.32.56-1.13,1.24-2.19,2.01-3.18.22-.28.45-.56.68-.83.74-.84,1.54-1.62,2.41-2.31,3.33-2.71,7.57-4.33,12.19-4.33.18,0,.36,0,.54.02,1.32.02,2.6.19,3.84.48.01,0,.02,0,.03.01h.01s.12.07.12.07c.12,0,.24.03.35.05.11.02.22.05.33.09,2.24.62,4.31,1.63,6.14,2.96.02.04.05.08.08.12.14.08.28.17.42.26.24.16.48.32.71.49,1.77,1.27,3.21,2.76,4.31,4.25.33.48.65.95.96,1.41.26.48.51.95.75,1.4.13.22.23.45.32.67.09.23.19.45.28.67.08.21.17.43.25.63.08.21.12.42.19.63.07.23.13.45.19.67.05.17.1.33.14.49.1.36.14.71.2,1.03.05.33.1.63.15.91.05.27.04.53.06.75.05.8.07,1.28.08,1.38-.01.27-.03.54-.04.81Z"/>
          <path class="cls-1" d="M48.99,24.52c-.01.27-.03.54-.04.81-.1,1.3-.32,2.59-.65,3.86-.17.64-.35,1.26-.56,1.86,0,.02-.01.03-.02.05-.8,2.36-1.92,4.38-3.72,6.21-1.15,1.17-2.28,2.55-3.57,3.47-1.69,1.21-3.62,1.5-5.5,2.38-1.98.93-3.94,1.44-5.97,1.57h-.19s-.07,0-.07,0c-.33.02-.66.03-1,.03-1.19,0-2.41-.12-3.68-.35-2.02-.36-3.7-1.21-5.45-2.26-.86-.51-1.91-1.17-2.87-1.96-.85-.68-1.62-1.46-2.14-2.32-.25-.4-.44-.83-.55-1.27-.02-.05-.03-.1-.04-.15.4.41.82.77,1.28,1.07,1.66,1.81,3.65,3.31,5.89,4.39.05.02.11.05.16.07.07.03.14.06.21.09.03.02.07.03.1.04.05.02.09.04.13.06.06.03.12.05.18.07.04.02.08.03.12.05.81.35,1.66.65,2.53.88,1.58.43,3.25.65,4.97.65,3.1,0,6.02-.73,8.62-2.03-.15.05-.31.09-.47.13.58-.24,1.14-.5,1.68-.79,5.71-3.36,9.54-9.58,9.54-16.69,0-5.87-2.61-11.13-6.74-14.67-.25-.23-.5-.44-.77-.64-.14-.09-.28-.18-.42-.26-.03-.04-.06-.08-.08-.12-1.83-1.33-3.9-2.34-6.14-2.96-.11-.04-.22-.07-.33-.09-.11-.02-.23-.04-.35-.05l-.12-.06h-.01s-.02-.02-.03-.02l-.53-.26c.12,0,.24-.01.35-.03.38-.07.72-.24,1.13-.2.68.06,1.13.55,1.77.78.88.31,1.83.46,2.76.71.21.06.43.12.65.2.11.03.22.07.33.11,2.85,1.11,4.29,3.32,6.01,5.66,1.67,2.28,2.75,4.87,3.26,7.57,0,.01.01.02.01.03.26,1.44.37,2.9.33,4.37Z"/>
          <path class="cls-2" d="M23.57,43.18c-2.23-.38-4.41-1.1-6.4-2.19,0,0-.01,0-.01,0-.51-.28-1-.52-1.46-.78-.97-.51-1.85-1.07-2.63-2.05-.68-.85-1.18-1.92-1.65-2.96-.21-.46-.41-.91-.62-1.34-.78-1.63-1.35-3.3-1.71-4.99-1.22-5.64-.11-11.43,3.43-16.44.28-.41.67-.96,1.09-1.48.14-.17.29-.33.43-.49.3-.33.6-.61.89-.79.55-.34,1.46-.22,1.77-.9l-.35.65c-.87.69-1.67,1.47-2.41,2.31-.23.27-.46.55-.68.83-.77.99-1.45,2.05-2.01,3.18-.06.11-.12.22-.17.32-1.22,2.54-1.91,5.39-1.91,8.4,0,1.7.22,3.35.63,4.92.81,3.09,2.36,5.87,4.45,8.16,1.66,1.81,3.65,3.31,5.89,4.39.05.02.11.05.16.07.07.03.14.06.21.09.03.02.07.03.1.04.05.02.09.04.13.06.06.03.12.05.18.07.04.02.08.03.12.05.81.35,1.66.65,2.53.88Z"/>
          <path class="cls-2" d="M48.33,24.16c-.4,3.81-1.29,7.89-3.49,11.06-.61.89-1.28,1.91-2.02,2.87-.82,1.06-1.73,2.03-2.77,2.65-.81.48-1.85.78-2.87,1.05,0,0-.01,0-.02,0-.15.05-.31.09-.47.13.58-.24,1.14-.5,1.68-.79,5.71-3.36,9.54-9.58,9.54-16.69,0-5.87-2.61-11.13-6.74-14.67-.03-.05-.05-.1-.06-.15-.12-.29-.2-.57-.24-.86,1.41-.06,2.72,2.59,3.48,3.53,1.16,1.41,2.2,2.73,3.05,4.35.53,1.01.82,2.14.96,3.31.17,1.4.11,2.86-.03,4.2Z"/>
          <path class="cls-13" d="M18.21,2.34c-1.34,1.3-3.44,1.88-4.97,3-2.37,1.73-4.31,3.73-5.79,6.25-2.57,4.38-4.37,9.45-3.63,14.54.34,2.3.95,4.81,1.76,7,.56,1.51,1.4,2.96,2.4,4.23.79,1,1.69,2.39,2.7,3.12-1.12-1.51-1.77-3.46-2.7-5.13-1-1.81-2.14-3.7-2.4-5.78-.21-1.69-.64-3.44-.7-5.14-.05-1.84-.11-4.3.7-5.99.29-.61.74-1.09.99-1.72.28-.67.42-1.38.66-2.07.55-1.57,1.81-2.65,2.78-3.97,1.07-1.47,2.76-2.69,4.24-3.75,1.43-1.03,2.83-1.81,4.49-2.38.75-.26,3.82-1.57,1.88-2.39-.92-.39-1.97-.05-2.79.33l.39-.15Z"/>
          <g>
            <g>
              <path class="cls-7" d="M5.4,32.13c.23-.87.9-1.87,1.43-2.6.78,1.16,1.71,2.4,1.83,3.85.01-.93.78-1.79,1.39-2.37.2,1.32,1.88,2.17,2.68,3.13.82.99,1.03,2.13,1.41,3.1.07-.54.4-1.11.69-1.58.33,1.06,1.79,1.25,2.63,1.92,1.27,1.02,1.75,2.62,2.9,3.67.09-1,1-1.62,1.47-2.43.3,1.06,1.83,1.69,2.46,2.58.68.96,1.21,2,1.72,3.01.5-.52,1.79-.56,2.5-.52,1.18.07,1.81.55,2.68,1.26.28-.19.12-.38.3-.65.3-.46.76-.77,1.17-1.14.99-.89,1.98-1.81,2.82-2.85.19-.23.37-.81.59-.98.39-.28.09-.15.51.07.63.34,1.13,1.14,1.57,1.69-.74-.86,1.51-2.47,2.09-2.89,1.19-.88,2.57-1.37,3.54-2.55,1.19-1.44,2.81-3.61,2.76-5.61,1.15.48,1.69,1.6,2.13,2.74.35-.7,1.39-1.05,1.93-1.61.45-.46.68-1.01.94-1.57.57,3.74-2.04,8-4.89,10.19-3.97,3.05-8.3,5.55-12.8,7.71-1.96.94-4.04,1.42-6.22.98-2.25-.46-4.19-1.9-5.98-3.31-1.03-.81-2.52-2.05-3.85-2.09-1.49-.04-3.01-.6-4.19-1.55-2.02-1.64-3.15-4.14-5.26-5.66-.83-.6-1.92-1.16-2.34-2.16-.24-.59-.13-1.61-.61-2.03v.23Z"/>
              <path class="cls-6" d="M5.69,32.28c-.82-.34.17-2.29.16-2.92,1.58,1.38,2.23,2.64,2.73,4.61.16-.39.58-1.54,1.11-1.46.42.07,1.45,1.45,1.85,1.74,1.66,1.19,2.09,2.39,2.53,4.33.19-.51.53-1.12.8-1.64,2.04,1.71,4.84,2.57,5.71,5.36.15-.6.75-1.36,1.26-1.69.44.89,1.78,1.43,2.46,2.16.76.81,1.51,1.67,2.07,2.62.72-.09,4.82-.68,3.61,1.15-.46.69-1.55,1.41-2.19,1.95-.8.68-1.65,1.33-2.63.74-.85-.51-1.79-1.21-2.52-1.88-.88-.8-1.58-1.12-2.63-1.6-.83-.37-1.38-1.12-2.17-1.56-.77-.42-1.63-.27-2.43-.57-1.09-.41-2.05-1.99-2.74-2.94-.83-1.14-1.63-2.26-2.61-3.29-.44-.47-.87-1.03-1.42-1.37-.39-.24-.88-.31-1.25-.6-.71-.56-2-2.47-1.85-3.45l.15.3Z"/>
              <g>
                <g>
                  <path class="cls-15" d="M52.98,35.02c.22-.12.28-.85.33-1.1.14-.65.38-1.33.74-1.85.58-.82,1.28-1.02,2.11-1.29.41-.14.72-.34,1.06-.63.35,2.02-.48,4.12-2.09,5.01-.35.19-.69.33-1.08.41-.22.04-.45.15-.68.11-.31-.05-.34-.32-.31-.65.03-.02.02.02.03.02l-.11-.03Z"/>
                  <path class="cls-4" d="M57.16,30.26c-.18.83-.94,1.4-1.43,2.01-.29.36-.52.79-.79,1.18-.24.34-.52.65-.74,1.01-.19.3-.5.97-.8,1.09-.41.17-.43-.38-.31-.66.22-.5.28-1.05.45-1.58.11-.35.2-.7.38-1,.17-.29.46-.49.69-.71-.03.22-.24.43-.34.63-.14.28-.26.58-.32.91-.03.15-.13.57.09.54.08-.01.22-.28.27-.35.14-.21.28-.42.43-.62.48-.63,1.2-.93,1.76-1.47.27-.27.73-.58.76-1.03-.03.02-.09.05-.12.09l.02-.02Z"/>
                  <path class="cls-4" d="M57.12,30.31c-.13.53-.69.95-1.01,1.31-.45.5-.87.97-1.28,1.52-.19.26-.41.47-.59.73-.13.17-.23.42-.42.51-.38.18-.24-.5-.24-.77-.27.02-.41,1.14-.44,1.39-.03.2-.04.44.18.45.27,0,.62-.67.79-.9.58-.77,1.09-1.63,1.71-2.35.4-.47.77-1.02,1.08-1.58.05-.1.18-.31.14-.37l.08.05Z"/>
                  <path class="cls-4" d="M57.1,30.33c-.21.19-.38.51-.57.74-.26.32-.51.64-.75.97-.24.32-.48.63-.71.97-.12.18-.42.47-.45.7.27.01.65-.29.88-.45.35-.25.68-.56.97-.9.36-.41.77-1.1.76-1.72-.03.49.06.97-.05,1.45-.1.43-.26.91-.49,1.27-.35.55-.77,1.03-1.26,1.42-.37.29-.76.51-1.2.66-.27.09-1.12.33-.79-.3.46-.86,1.07-1.59,1.66-2.33.34-.43.73-.8,1.07-1.23.13-.17.79-.92.74-1.09l.2-.15Z"/>
                  <path class="cls-5" d="M57.12,30.4c-.64.7-1.19,1.44-1.76,2.22-.3.41-.62.81-.9,1.23-.16.23-.38.68-.6.83-.44.3-.16-.95-.53-.23-.14.27-.42.88-.12,1.12.33.26.96-.13,1.29-.26.27-.11.54-.22.79-.39.21-.15.61-.39.71-.64-.23-.05-.59.26-.81.36-.14.07-.68.38-.82.21-.17-.23.72-1.26.85-1.45.35-.54.73-1.07,1.04-1.65.14-.26.3-.5.46-.74.13-.2.35-.4.41-.64-.03.01-.06.02-.08.04h.06Z"/>
                </g>
                <path class="cls-14" d="M57.06,30.33c-.35.22-.69.45-1.08.59-.37.14-.75.23-1.1.48-.19.13-.4.32-.47.58-.07.31.12.38.34.27.26-.13.47-.39.72-.53.25-.14.5-.25.72-.43.13-.11.91-.89.84-.97l.02.02Z"/>
                <path class="cls-8" d="M54.92,33.31c-.32.31-.61.79-.87,1.19-.1.15-.24.38-.39.48-.3.18-.16-.18-.32-.33-.16-.16-.19.22-.21.38-.02.19-.04.39.1.48.25.16.73-.01.98-.08.33-.09.81-.22,1.05-.51-.42.01-.88.34-1.31.27-.05-.31.32-.81.45-1.06.14-.26.29-.49.44-.75,0,.05-.02.02-.04.04l.12-.11Z"/>
              </g>
              <g>
                <g>
                  <path class="cls-15" d="M50.02,37.44c.17-.23-.14-1.03-.21-1.32-.19-.75-.28-1.58-.17-2.31.18-1.14.8-1.69,1.51-2.38.36-.34.58-.7.77-1.18,1.38,1.96,1.58,4.59.38,6.3-.26.38-.55.69-.9.95-.2.16-.39.37-.64.45-.34.1-.51-.18-.65-.54.03-.04.03,0,.05,0l-.14.03Z"/>
                  <path class="cls-4" d="M51.91,30.4c.23.97-.26,1.93-.46,2.81-.12.52-.13,1.08-.21,1.62-.07.48-.21.94-.26,1.43-.04.4-.02,1.26-.27,1.54-.34.38-.63-.2-.65-.55-.03-.64-.24-1.24-.34-1.89-.06-.42-.15-.83-.11-1.24.03-.39.23-.74.35-1.08.08.24-.03.57-.03.83,0,.37.03.74.13,1.11.05.17.16.67.37.52.08-.05.09-.4.1-.5.04-.29.07-.57.13-.86.18-.9.77-1.56,1.06-2.4.14-.41.46-.96.26-1.46-.02.04-.06.1-.08.15v-.03Z"/>
                  <path class="cls-4" d="M51.89,30.46c.14.62-.22,1.33-.38,1.87-.21.74-.41,1.45-.55,2.23-.06.36-.18.69-.24,1.06-.04.25-.02.55-.17.74-.3.37-.5-.41-.64-.69-.26.14.16,1.39.25,1.68.07.22.18.48.41.38.28-.12.3-1.01.36-1.33.21-1.09.3-2.25.56-3.31.17-.7.27-1.46.32-2.19,0-.13.03-.42-.04-.46h.1Z"/>
                  <path class="cls-4" d="M51.88,30.5c-.11.3-.13.72-.21,1.06-.11.46-.2.93-.28,1.39-.08.45-.18.9-.24,1.36-.04.25-.2.71-.11.95.29-.12.53-.61.68-.89.24-.43.41-.92.54-1.42.16-.61.23-1.54-.08-2.18.22.53.54.99.68,1.56.12.5.19,1.09.13,1.58-.08.76-.27,1.46-.57,2.1-.24.5-.53.91-.91,1.28-.23.23-.99.89-.96.06.04-1.13.3-2.2.54-3.27.13-.61.35-1.2.47-1.82.05-.24.35-1.35.21-1.5l.13-.26Z"/>
                  <path class="cls-5" d="M51.93,30.56c-.31,1.05-.5,2.1-.69,3.2-.1.58-.23,1.15-.31,1.73-.05.32-.04.89-.19,1.16-.3.53-.64-.93-.65.01,0,.35.02,1.13.45,1.24.47.11.92-.6,1.19-.9.22-.25.45-.5.62-.79.14-.26.43-.71.4-1.02-.26.06-.47.56-.65.77-.11.14-.51.74-.74.61-.29-.16.11-1.67.14-1.94.09-.74.22-1.49.24-2.24.01-.33.06-.67.1-.99.03-.28.16-.59.1-.88-.02.02-.04.05-.06.08l.06-.03Z"/>
                </g>
                <path class="cls-14" d="M51.84,30.52c-.25.4-.48.8-.81,1.14-.31.32-.66.61-.89,1.03-.13.24-.25.53-.19.84.08.36.31.34.48.11.2-.26.29-.64.47-.91.18-.27.39-.5.53-.81.08-.17.48-1.37.37-1.42h.03Z"/>
                <path class="cls-8" d="M51.15,34.7c-.18.49-.23,1.13-.29,1.68-.02.21-.05.53-.16.69-.21.34-.26-.11-.49-.2-.25-.1-.09.32-.02.51.07.21.15.43.35.46.34.05.75-.36.97-.56.29-.25.72-.62.82-1.05-.42.22-.73.79-1.21.92-.2-.3-.08-1.01-.08-1.34,0-.35.04-.66.08-1,.02.05-.01.03-.03.06l.07-.17Z"/>
              </g>
              <g>
                <g>
                  <path class="cls-14" d="M50.51,37.64c.29.02.83-.64,1.05-.85.57-.54,1.25-1.04,1.94-1.31,1.09-.43,1.89-.18,2.85.08.48.13.91.14,1.42.06-1.03,2.16-3.23,3.66-5.34,3.51-.46-.03-.88-.12-1.29-.29-.24-.09-.53-.14-.71-.32-.25-.24-.1-.53.15-.83.05,0,.01.03.02.04l-.09-.1Z"/>
                  <path class="cls-4" d="M57.65,35.68c-.74.69-1.82.76-2.7,1.03-.52.16-1.02.44-1.53.64-.45.18-.93.3-1.38.5-.37.17-1.12.62-1.49.55-.5-.09-.14-.64.16-.83.54-.35.97-.83,1.48-1.24.34-.26.66-.55,1.04-.73.36-.17.76-.18,1.13-.25-.17.19-.52.27-.74.39-.32.19-.64.4-.91.67-.13.13-.51.46-.28.57.09.04.4-.13.49-.17.27-.11.55-.23.82-.33.88-.3,1.75-.13,2.64-.31.43-.08,1.08-.09,1.41-.52-.05,0-.12,0-.17,0h.03Z"/>
                  <path class="cls-4" d="M57.58,35.7c-.47.43-1.28.48-1.83.62-.75.2-1.48.39-2.23.66-.35.13-.7.2-1.05.33-.24.09-.5.26-.73.23-.47-.06.11-.64.29-.89-.26-.15-1.15.84-1.35,1.06-.16.17-.33.4-.13.54.25.18,1.04-.26,1.35-.36,1.06-.37,2.13-.88,3.19-1.19.7-.2,1.42-.51,2.09-.84.11-.06.38-.18.38-.26l.04.1Z"/>
                  <path class="cls-4" d="M57.55,35.71c-.32.05-.7.25-1.04.35-.45.14-.91.3-1.37.46-.44.16-.88.3-1.31.48-.24.09-.72.19-.89.39.24.18.8.13,1.13.13.5-.02,1.02-.12,1.52-.26.61-.17,1.47-.58,1.87-1.18-.36.45-.6.96-1.03,1.37-.38.35-.86.71-1.32.91-.71.31-1.42.51-2.14.58-.55.05-1.06,0-1.57-.12-.31-.08-1.28-.4-.53-.79,1.02-.54,2.08-.85,3.14-1.19.61-.2,1.22-.31,1.83-.52.23-.08,1.36-.38,1.42-.58l.29-.02Z"/>
                  <path class="cls-5" d="M57.52,35.79c-1.07.26-2.1.64-3.16,1.03-.56.21-1.12.39-1.67.61-.31.13-.81.42-1.12.42-.62.02.49-1.01-.34-.55-.31.17-.99.59-.86,1,.14.45.99.48,1.38.56.33.06.66.13,1.01.12.3,0,.83,0,1.1-.17-.19-.19-.73-.12-1-.16-.18-.03-.9-.06-.91-.32,0-.33,1.52-.76,1.78-.87.7-.3,1.41-.57,2.09-.93.3-.16.62-.29.92-.42.26-.11.6-.16.82-.36-.03,0-.06-.01-.1-.02l.05.04Z"/>
                </g>
                <path class="cls-14" d="M57.51,35.68c-.47-.01-.95,0-1.41-.11-.44-.1-.87-.25-1.35-.23-.27,0-.59.06-.83.27-.28.25-.14.44.14.47.33.04.7-.08,1.04-.06.32.02.64.08.97.04.19-.02,1.45-.28,1.44-.4v.03Z"/>
                <path class="cls-8" d="M53.49,37.21c-.52.1-1.11.38-1.62.6-.2.08-.49.22-.69.21-.41,0-.04-.27-.07-.52-.04-.26-.33.09-.46.24-.15.17-.3.34-.23.53.12.31.69.46.97.55.37.12.91.3,1.34.17-.4-.25-1.06-.22-1.42-.57.16-.33.84-.58,1.14-.74.31-.17.6-.3.91-.44-.03.05-.03,0-.06.01l.19-.03Z"/>
              </g>
              <g>
                <g>
                  <path class="cls-15" d="M45.55,43.81c.24-.45-.5-1.53-.69-1.93-.5-1.07-.86-2.31-.84-3.5.04-1.88.99-3.06,2.06-4.52.54-.73.83-1.4,1.05-2.25,2.86,2.3,3.84,6.27,2.17,9.58-.37.73-.79,1.36-1.34,1.97-.32.35-.59.8-1.01,1.04-.58.33-.93,0-1.26-.49.04-.07.06,0,.08-.02l-.22.12Z"/>
                  <path class="cls-4" d="M47.16,31.84c.63,1.38.01,3.13-.14,4.62-.08.87.03,1.75.02,2.64-.01.78-.14,1.57-.11,2.35.02.65.26,1.97-.1,2.54-.49.77-1.14.03-1.26-.51-.21-.97-.72-1.8-1.04-2.74-.21-.62-.46-1.21-.49-1.87-.03-.62.22-1.27.36-1.87.19.33.09.91.14,1.29.09.57.23,1.14.49,1.66.13.25.42.96.76.62.12-.12.06-.68.06-.83,0-.47,0-.93.02-1.41.1-1.49.96-2.84,1.28-4.31.15-.71.58-1.74.11-2.4-.03.07-.09.19-.1.27v-.06Z"/>
                  <path class="cls-4" d="M47.14,31.95c.39.89-.08,2.19-.21,3.11-.19,1.26-.37,2.47-.42,3.76-.03.59-.15,1.18-.17,1.78,0,.41.1.87-.12,1.24-.43.74-.97-.37-1.28-.73-.42.37.6,2.09.83,2.48.17.3.42.65.81.37.46-.34.28-1.73.31-2.25.1-1.81-.01-3.65.2-5.44.14-1.18.13-2.41.03-3.58-.02-.2-.05-.66-.17-.69l.18-.03Z"/>
                  <path class="cls-4" d="M47.13,32.01c-.13.53-.06,1.2-.12,1.77-.08.77-.13,1.55-.16,2.31-.03.75-.09,1.49-.1,2.24,0,.41-.17,1.2.04,1.54.46-.34.77-1.24.97-1.76.31-.8.5-1.66.6-2.51.13-1.03.04-2.51-.67-3.34.5.71,1.18,1.25,1.55,2.06.32.72.58,1.59.61,2.38.03,1.22-.12,2.41-.5,3.58-.29.89-.71,1.7-1.26,2.47-.34.47-1.51,1.92-1.66.61-.2-1.79,0-3.58.16-5.37.09-1.03.32-2.05.39-3.08.03-.4.29-2.28.01-2.45l.16-.48Z"/>
                  <path class="cls-5" d="M47.24,32.08c-.29,1.79-.37,3.54-.44,5.35-.03.95-.12,1.9-.13,2.86,0,.53.14,1.41-.06,1.92-.39.99-1.33-1.09-1.13.38.08.55.3,1.75,1.07,1.68.84-.08,1.46-1.43,1.85-2.04.32-.5.66-1.01.88-1.57.19-.47.58-1.33.47-1.81-.43.24-.69,1.12-.94,1.55-.16.28-.71,1.42-1.13,1.35-.55-.09-.21-2.66-.22-3.1-.02-1.21.02-2.42-.12-3.61-.06-.53-.06-1.07-.07-1.6-.01-.45.14-1-.03-1.42-.03.05-.07.1-.09.15l.1-.08Z"/>
                </g>
                <path class="cls-14" d="M47.06,32.06c-.34.75-.65,1.51-1.14,2.21-.46.67-1,1.3-1.3,2.09-.17.43-.31.96-.13,1.4.22.53.62.36.87-.08.29-.51.35-1.14.6-1.68.25-.51.56-.99.72-1.54.09-.31.52-2.4.31-2.42h.06Z"/>
                <path class="cls-8" d="M46.85,38.93c-.2.85-.13,1.88-.11,2.76,0,.34.03.84-.11,1.16-.29.65-.47-.03-.91-.04-.45-.01-.07.55.09.8.17.29.36.59.72.53.6-.1,1.22-.97,1.55-1.39.44-.55,1.1-1.35,1.17-2.08-.68.57-1.08,1.62-1.89,2.09-.43-.35-.38-1.52-.45-2.04-.07-.54-.08-1.05-.11-1.59.05.06,0,.05-.03.11l.08-.31Z"/>
              </g>
              <path class="cls-9" d="M44.7,37.86c.51.16.58,1.11.68,1.53.16.67.26,1.34.25,2.02-.07-1.5,1.51-3.08,2.83-3.65,1.07-.47,2.66-.22,3.27-1.45-.04.31.07.65.04.98-.04.5-.13.99-.37,1.45-.61,1.17-1.77,2.05-2.81,2.84-.78.6-1.82,1.15-2.77,1.41-.47.13-.96.19-1.43.33-.4.11-.95.53-1.37.32.22-.55.65-1.04.85-1.63.21-.61.35-1.29.45-1.92.13-.82-.07-1.83.5-2.53l-.13.3Z"/>
              <g>
                <g>
                  <path class="cls-15" d="M45.41,41.85c.4.03,1.06-.89,1.33-1.17.71-.74,1.58-1.44,2.49-1.82,1.45-.6,2.57-.29,3.94.02.68.16,1.27.15,1.96.03-1.12,2.93-3.95,5.01-6.87,4.87-.64-.03-1.22-.13-1.81-.34-.34-.12-.75-.17-1.03-.41-.38-.32-.21-.7.09-1.12.06,0,.02.05.03.06l-.14-.13Z"/>
                  <path class="cls-4" d="M54.97,39.01c-.92.95-2.4,1.07-3.58,1.46-.69.24-1.34.63-2.02.91-.6.26-1.24.43-1.83.71-.49.24-1.46.87-1.98.78-.7-.11-.28-.85.11-1.12.7-.48,1.22-1.14,1.87-1.71.43-.36.83-.75,1.33-1,.47-.24,1.02-.26,1.52-.36-.21.26-.68.37-.96.55-.42.26-.83.56-1.17.93-.16.18-.64.64-.3.78.12.05.53-.19.65-.24.36-.16.71-.32,1.08-.46,1.17-.43,2.4-.24,3.6-.5.58-.13,1.47-.16,1.87-.73-.06,0-.16,0-.23.01h.04Z"/>
                  <path class="cls-4" d="M54.88,39.03c-.59.59-1.7.68-2.43.89-1.02.29-1.98.56-2.98.95-.46.18-.94.28-1.4.47-.32.13-.65.37-.98.34-.67-.07.06-.86.27-1.21-.38-.19-1.47,1.16-1.72,1.47-.19.23-.4.54-.1.73.37.23,1.4-.37,1.8-.53,1.41-.53,2.81-1.24,4.23-1.69.94-.3,1.88-.72,2.75-1.19.15-.08.5-.26.49-.36l.07.13Z"/>
                  <path class="cls-4" d="M54.83,39.04c-.44.09-.93.36-1.39.51-.61.2-1.21.43-1.81.67-.58.23-1.16.44-1.75.69-.31.13-.96.28-1.17.55.36.24,1.13.16,1.57.13.68-.03,1.39-.19,2.06-.39.82-.25,1.94-.82,2.42-1.63-.43.62-.69,1.31-1.23,1.86-.48.49-1.09.97-1.69,1.26-.93.44-1.88.73-2.86.84-.75.08-1.46.04-2.18-.11-.44-.1-1.81-.49-.84-1.04,1.32-.76,2.75-1.21,4.15-1.7.82-.29,1.65-.45,2.46-.75.31-.12,1.82-.56,1.88-.82l.4-.04Z"/>
                  <path class="cls-5" d="M54.8,39.15c-1.44.39-2.8.92-4.2,1.48-.74.3-1.49.55-2.22.87-.41.17-1.06.58-1.49.6-.85.04.54-1.37-.54-.72-.41.24-1.28.82-1.05,1.37.25.6,1.42.61,1.98.7.46.08.93.16,1.41.14.41-.01,1.15-.01,1.49-.26-.28-.25-1.02-.14-1.4-.19-.25-.03-1.25-.05-1.29-.39-.06-.44,1.99-1.06,2.33-1.21.92-.42,1.87-.81,2.75-1.31.39-.23.81-.41,1.22-.59.34-.16.8-.23,1.08-.51-.04,0-.09-.01-.13-.02l.08.05Z"/>
                </g>
                <path class="cls-14" d="M54.78,39.01c-.65,0-1.31.02-1.95-.11-.62-.12-1.23-.31-1.89-.27-.37.02-.81.09-1.11.38-.35.35-.14.59.26.63.46.04.96-.13,1.42-.12.45.02.89.09,1.35.03.26-.04,1.95-.42,1.92-.58v.04Z"/>
                <path class="cls-8" d="M49.46,41.17c-.7.15-1.48.54-2.15.86-.26.12-.64.31-.92.31-.56,0-.08-.36-.17-.69-.09-.34-.44.13-.6.33-.18.23-.37.47-.24.72.21.42,1.02.59,1.42.7.52.15,1.29.37,1.86.18-.59-.32-1.48-.27-2.03-.71.18-.44,1.08-.8,1.46-1.03.4-.23.79-.41,1.2-.62-.03.06-.04.01-.09.02l.26-.05Z"/>
              </g>
              <g>
                <g>
                  <path class="cls-15" d="M38.89,45.65c.48.1,1.32-.85,1.65-1.12.89-.74,1.97-1.4,3.09-1.69,1.78-.45,3.12.1,4.75.7.82.3,1.52.4,2.37.38-1.47,3.2-4.97,5.13-8.49,4.47-.77-.15-1.47-.36-2.17-.71-.4-.2-.89-.33-1.22-.65-.45-.44-.22-.85.16-1.27.07.01.02.05.03.07l-.16-.17Z"/>
                  <path class="cls-4" d="M50.54,43.99c-1.15.94-2.95.83-4.38,1.08-.84.15-1.64.49-2.48.7-.74.19-1.51.29-2.24.52-.6.19-1.79.76-2.42.57-.84-.25-.31-1.03.17-1.28.86-.44,1.52-1.12,2.33-1.66.53-.35,1.03-.74,1.64-.94.58-.19,1.24-.13,1.85-.16-.27.26-.83.32-1.18.47-.52.23-1.02.5-1.45.88-.2.18-.8.63-.4.85.14.08.65-.13.8-.17.44-.12.87-.25,1.32-.35,1.42-.3,2.9.14,4.36.04.71-.05,1.78.07,2.28-.53-.08,0-.19-.03-.28-.02h.06Z"/>
                  <path class="cls-4" d="M50.42,44.01c-.74.58-2.08.5-2.97.62-1.23.16-2.41.31-3.64.59-.57.13-1.15.17-1.71.31-.38.1-.8.31-1.19.22-.8-.2.11-.99.38-1.35-.45-.29-1.82,1.09-2.13,1.41-.24.24-.51.55-.15.83.43.33,1.7-.2,2.19-.3,1.72-.38,3.43-.96,5.17-1.24,1.14-.18,2.29-.51,3.37-.91.19-.07.61-.21.61-.33l.07.16Z"/>
                  <path class="cls-4" d="M50.37,44.02c-.53.02-1.14.26-1.69.35-.75.13-1.49.29-2.22.46-.72.16-1.42.3-2.14.5-.38.1-1.17.15-1.44.44.43.33,1.35.37,1.89.42.82.07,1.68.02,2.5-.1,1-.15,2.38-.62,2.98-1.48-.54.64-.89,1.4-1.56,1.95-.6.48-1.35.94-2.09,1.17-1.14.35-2.3.52-3.49.48-.91-.03-1.77-.2-2.63-.51-.53-.19-2.16-.88-.98-1.35,1.63-.65,3.37-.93,5.09-1.26.99-.19,2-.24,2.99-.45.39-.08,2.22-.33,2.31-.63l.48.02Z"/>
                  <path class="cls-5" d="M50.33,44.13c-1.76.2-3.42.58-5.13,1-.91.22-1.83.39-2.72.63-.5.13-1.3.49-1.81.45-1.02-.1.7-1.5-.63-.93-.5.21-1.57.73-1.32,1.41.27.74,1.69.95,2.37,1.15.55.16,1.11.34,1.69.4.5.05,1.39.18,1.81-.05-.33-.33-1.22-.33-1.69-.45-.3-.08-1.5-.27-1.54-.68-.05-.52,2.45-.89,2.86-1,1.13-.33,2.28-.61,3.36-1.05.48-.19,1-.33,1.49-.48.42-.12.98-.13,1.32-.4-.05-.01-.11-.03-.16-.04l.09.07Z"/>
                </g>
                <path class="cls-14" d="M50.31,43.97c-.79-.12-1.58-.2-2.35-.46-.75-.25-1.47-.57-2.28-.64-.45-.04-.98-.03-1.35.25-.44.34-.19.66.28.77.55.13,1.16.02,1.73.11.54.09,1.07.25,1.62.26.31,0,2.37-.15,2.34-.35v.06Z"/>
                <path class="cls-8" d="M43.79,45.57c-.85.05-1.8.37-2.62.62-.32.1-.78.25-1.11.2-.68-.09-.09-.43-.18-.83-.1-.41-.54.08-.73.28-.23.23-.46.48-.33.79.23.52,1.2.86,1.68,1.05.62.26,1.54.65,2.24.53-.69-.47-1.78-.56-2.42-1.17.23-.48,1.34-.75,1.81-.95.49-.21.97-.34,1.47-.52-.04.07-.05,0-.11,0h.31Z"/>
              </g>
              <g>
                <g>
                  <path class="cls-15" d="M37.7,47.71c.39-.33.12-1.6.1-2.05-.06-1.18.07-2.47.54-3.56.74-1.73,2.07-2.47,3.61-3.42.78-.47,1.3-.99,1.82-1.69,1.78,3.21,1.19,7.25-1.61,9.71-.61.54-1.24.97-1.98,1.32-.43.21-.85.52-1.33.59-.66.09-.86-.35-.98-.92.06-.05.05.01.08.01l-.25.02Z"/>
                  <path class="cls-4" d="M43.71,37.2c.06,1.52-1.18,2.91-1.87,4.24-.41.78-.63,1.64-.98,2.45-.31.72-.72,1.41-.99,2.14-.22.61-.5,1.93-1.05,2.32-.75.53-1.07-.4-.98-.94.18-.98.02-1.94.08-2.93.04-.65.03-1.3.25-1.92.2-.59.69-1.09,1.04-1.61.05.38-.27.87-.35,1.26-.13.56-.23,1.15-.17,1.72.02.28.03,1.04.47.86.16-.07.31-.61.37-.75.18-.44.34-.87.55-1.29.65-1.34,1.97-2.27,2.81-3.52.41-.61,1.19-1.4,1-2.19-.06.06-.15.14-.2.22l.03-.05Z"/>
                  <path class="cls-4" d="M43.65,37.3c.02.97-.9,2-1.37,2.81-.65,1.1-1.28,2.16-1.81,3.33-.25.54-.59,1.04-.83,1.58-.16.37-.24.85-.57,1.11-.67.52-.76-.71-.91-1.15-.53.18-.23,2.16-.16,2.61.05.34.15.76.61.64.55-.15.92-1.5,1.14-1.97.78-1.64,1.37-3.39,2.24-4.98.57-1.04,1.02-2.19,1.37-3.31.06-.19.21-.63.1-.7l.18.04Z"/>
                  <path class="cls-4" d="M43.62,37.36c-.32.44-.51,1.09-.78,1.59-.37.68-.7,1.39-1.02,2.09-.32.69-.65,1.35-.94,2.05-.16.37-.61,1.05-.54,1.44.56-.14,1.18-.87,1.56-1.27.59-.62,1.09-1.35,1.51-2.1.51-.9.99-2.32.64-3.35.2.85.62,1.6.65,2.49.03.79-.06,1.69-.34,2.43-.43,1.15-1.02,2.19-1.82,3.14-.6.72-1.3,1.31-2.11,1.82-.49.31-2.12,1.21-1.77-.05.49-1.73,1.36-3.32,2.17-4.92.47-.93,1.07-1.78,1.52-2.71.17-.36,1.13-2.01.93-2.27l.33-.38Z"/>
                  <path class="cls-5" d="M43.69,37.46c-.94,1.55-1.68,3.14-2.42,4.79-.39.87-.83,1.73-1.2,2.6-.21.49-.41,1.36-.78,1.75-.73.77-.82-1.52-1.19-.08-.14.54-.38,1.74.35,1.96.81.24,1.89-.78,2.48-1.2.49-.35.99-.7,1.41-1.13.36-.37,1.04-1.01,1.11-1.5-.49.06-1.06.78-1.46,1.09-.26.2-1.19,1.05-1.56.82-.47-.28.81-2.55.96-2.95.44-1.12.94-2.24,1.25-3.4.14-.51.35-1.02.54-1.51.16-.43.51-.88.51-1.33-.05.03-.1.07-.14.11l.12-.03Z"/>
                </g>
                <path class="cls-14" d="M43.54,37.37c-.6.57-1.17,1.16-1.89,1.62-.68.45-1.42.84-1.99,1.45-.32.34-.65.78-.64,1.26,0,.57.43.57.83.25.46-.36.75-.93,1.19-1.33.43-.38.9-.71,1.25-1.16.2-.25,1.38-2.03,1.2-2.12l.05.03Z"/>
                <path class="cls-8" d="M40.75,43.67c-.51.72-.83,1.7-1.15,2.52-.12.32-.29.79-.54,1.03-.51.49-.42-.2-.82-.38-.41-.18-.27.48-.22.78.05.33.11.68.46.76.59.13,1.49-.44,1.96-.71.61-.34,1.53-.84,1.87-1.48-.84.27-1.61,1.09-2.53,1.23-.26-.49.22-1.55.35-2.06.14-.53.32-1,.5-1.52.03.08-.03.04-.07.09l.19-.26Z"/>
              </g>
              <g>
                <g>
                  <path class="cls-14" d="M33.21,48.93c.44.23,1.51-.45,1.91-.63,1.06-.46,2.28-.8,3.44-.76,1.83.05,2.97.95,4.36,1.97.7.51,1.35.8,2.17,1.01-2.33,2.67-6.23,3.56-9.43,1.96-.7-.35-1.3-.75-1.88-1.27-.33-.3-.76-.56-.99-.96-.31-.55.03-.88.51-1.18.07.04,0,.05.02.08l-.11-.21Z"/>
                  <path class="cls-4" d="M44.86,50.54c-1.37.59-3.06-.01-4.51-.16-.86-.09-1.72.02-2.58,0-.76-.02-1.53-.14-2.3-.12-.63.02-1.93.23-2.48-.12-.73-.47,0-1.07.53-1.18.95-.19,1.78-.66,2.71-.95.61-.19,1.2-.42,1.84-.45.61-.03,1.23.22,1.82.35-.33.18-.89.07-1.27.13-.56.08-1.13.2-1.64.45-.24.12-.94.39-.62.71.11.11.66.06.81.06.46,0,.91,0,1.37.03,1.45.1,2.75.93,4.17,1.24.69.14,1.69.55,2.34.12-.07-.03-.18-.08-.26-.09h.05Z"/>
                  <path class="cls-4" d="M44.75,50.53c-.88.35-2.13-.09-3.03-.23-1.23-.19-2.41-.36-3.66-.43-.58-.03-1.15-.15-1.73-.17-.39-.01-.86.09-1.21-.12-.71-.41.39-.91.75-1.19-.34-.4-2.05.55-2.45.76-.3.16-.65.39-.38.76.32.44,1.69.28,2.19.31,1.76.12,3.57.02,5.32.23,1.15.14,2.35.14,3.49.05.2-.01.65-.04.68-.15l.03.17Z"/>
                  <path class="cls-4" d="M44.7,50.52c-.52-.12-1.17-.07-1.72-.13-.75-.08-1.51-.13-2.26-.17-.73-.04-1.46-.1-2.19-.11-.4,0-1.17-.17-1.51.03.32.44,1.19.73,1.69.92.77.3,1.61.48,2.44.59,1,.13,2.46.06,3.28-.6-.71.47-1.25,1.1-2.05,1.44-.71.3-1.57.53-2.34.55-1.19.02-2.35-.13-3.49-.5-.87-.28-1.64-.68-2.38-1.21-.45-.32-1.83-1.44-.55-1.56,1.75-.18,3.5.03,5.24.19,1.01.09,1.99.32,3,.39.39.03,2.23.3,2.39.03l.46.16Z"/>
                  <path class="cls-5" d="M44.62,50.62c-1.74-.29-3.44-.38-5.21-.45-.93-.04-1.86-.13-2.79-.15-.52,0-1.39.12-1.87-.07-.95-.37,1.1-1.24-.34-1.07-.54.07-1.72.27-1.67.99.06.79,1.36,1.39,1.94,1.76.48.31.97.63,1.51.84.46.19,1.28.56,1.75.45-.22-.41-1.08-.66-1.49-.9-.27-.15-1.37-.67-1.28-1.07.1-.51,2.6-.18,3.03-.18,1.18,0,2.37.04,3.53-.09.52-.05,1.05-.04,1.57-.05.44,0,.98.14,1.39-.02-.04-.03-.09-.06-.14-.08l.07.1Z"/>
                </g>
                <path class="cls-14" d="M44.65,50.46c-.73-.33-1.46-.63-2.13-1.09-.65-.44-1.25-.95-2-1.24-.42-.16-.93-.3-1.37-.13-.52.2-.37.57.05.81.49.27,1.11.33,1.62.58.49.24.96.53,1.48.69.3.09,2.32.51,2.35.31v.05Z"/>
                <path class="cls-8" d="M37.95,50.2c-.83-.19-1.84-.14-2.7-.12-.33,0-.83.02-1.13-.11-.62-.27.04-.44.07-.85.03-.43-.53-.07-.79.07-.29.16-.58.33-.53.67.08.56.91,1.15,1.31,1.47.52.42,1.29,1.05,2,1.12-.53-.65-1.55-1.03-1.99-1.79.36-.4,1.5-.35,2-.41.53-.07,1.03-.07,1.56-.09-.06.05-.05,0-.1-.03l.3.08Z"/>
              </g>
              <g>
                <g>
                  <path class="cls-15" d="M32.45,52.1c.34-.38-.12-1.6-.21-2.04-.24-1.16-.3-2.45,0-3.61.48-1.81,1.68-2.74,3.06-3.9.7-.58,1.15-1.17,1.55-1.94,2.24,2.92,2.25,7.01-.15,9.83-.53.62-1.08,1.13-1.77,1.59-.39.26-.76.63-1.23.77-.63.19-.9-.22-1.11-.77.05-.06.06,0,.08,0l-.25.06Z"/>
                  <path class="cls-4" d="M36.84,40.85c.29,1.49-.73,3.05-1.22,4.46-.29.83-.38,1.71-.6,2.57-.2.76-.5,1.49-.66,2.26-.13.63-.21,1.98-.7,2.44-.66.63-1.12-.24-1.1-.79.03-.99-.27-1.92-.36-2.91-.06-.65-.16-1.29-.04-1.94.12-.61.52-1.18.79-1.73.11.37-.13.9-.16,1.29-.05.58-.05,1.17.09,1.74.06.27.18,1.02.58.78.15-.09.22-.65.26-.8.11-.46.21-.91.35-1.36.44-1.42,1.61-2.53,2.26-3.88.31-.66.97-1.56.67-2.31-.05.07-.13.16-.16.24l.02-.06Z"/>
                  <path class="cls-4" d="M36.8,40.96c.16.95-.59,2.11-.94,2.97-.48,1.18-.94,2.31-1.3,3.55-.16.57-.43,1.11-.58,1.68-.11.39-.11.87-.4,1.18-.59.62-.86-.59-1.07-1.01-.5.25.09,2.17.22,2.61.1.33.26.74.7.55.53-.22.68-1.62.83-2.12.53-1.73.85-3.55,1.48-5.24.41-1.11.69-2.31.87-3.47.03-.2.11-.65,0-.71h.19Z"/>
                  <path class="cls-4" d="M36.78,41.01c-.25.49-.34,1.15-.53,1.69-.26.73-.48,1.48-.7,2.21-.21.72-.44,1.43-.62,2.16-.1.39-.45,1.13-.32,1.51.53-.22,1.04-1.03,1.35-1.48.49-.7.87-1.49,1.18-2.29.37-.97.63-2.43.14-3.41.32.81.85,1.5,1.02,2.37.14.77.19,1.68.02,2.45-.26,1.19-.68,2.32-1.33,3.37-.5.8-1.09,1.48-1.81,2.1-.44.38-1.92,1.5-1.76.2.23-1.78.85-3.48,1.42-5.18.33-.99.79-1.91,1.1-2.9.12-.38.82-2.15.58-2.38l.27-.42Z"/>
                  <path class="cls-5" d="M36.86,41.11c-.7,1.67-1.19,3.34-1.68,5.09-.26.92-.57,1.83-.8,2.74-.13.51-.2,1.41-.51,1.85-.61.87-1.04-1.38-1.19.09-.06.56-.12,1.78.64,1.89.83.12,1.75-1.04,2.28-1.54.43-.41.88-.83,1.23-1.31.3-.42.88-1.15.88-1.64-.48.13-.94.92-1.28,1.28-.23.23-1.02,1.21-1.42,1.04-.51-.21.42-2.63.51-3.06.27-1.18.6-2.35.74-3.54.06-.52.2-1.06.31-1.57.1-.44.38-.94.3-1.39-.04.04-.09.08-.12.12l.11-.04Z"/>
                </g>
                <path class="cls-14" d="M36.7,41.05c-.51.65-.99,1.31-1.62,1.88-.61.55-1.28,1.04-1.75,1.72-.27.38-.52.86-.45,1.33.09.57.51.5.86.13.4-.43.6-1.03.98-1.49.36-.44.78-.83,1.06-1.32.17-.28,1.07-2.2.87-2.28l.05.02Z"/>
                <path class="cls-8" d="M34.87,47.67c-.39.79-.57,1.8-.76,2.66-.07.33-.17.82-.38,1.1-.43.56-.45-.14-.87-.26-.43-.12-.2.52-.11.8.1.32.21.65.57.68.6.05,1.41-.65,1.84-.98.56-.43,1.39-1.05,1.63-1.74-.79.39-1.43,1.31-2.32,1.58-.33-.45-.01-1.57.04-2.09.05-.54.17-1.04.27-1.57.04.07-.02.05-.05.1l.15-.29Z"/>
              </g>
              <g>
                <g>
                  <path class="cls-15" d="M5.65,35.83c-.26-.16-.16-1.02-.17-1.31-.03-.77-.18-1.59-.53-2.23-.56-1.02-1.42-1.32-2.43-1.73-.51-.2-.86-.46-1.23-.85-.93,2.31-.34,4.85,1.53,6.06.41.27.82.46,1.3.59.28.07.56.22.86.2.41-.03.52-.34.56-.73-.04-.02-.03.02-.05.02l.16-.02Z"/>
                  <path class="cls-4" d="M1.34,29.85c.04.99.89,1.72,1.39,2.49.3.45.48.98.74,1.45.23.42.52.81.73,1.25.17.37.41,1.18.78,1.36.49.24.64-.41.55-.75-.16-.6-.11-1.25-.21-1.89-.06-.41-.09-.83-.26-1.21-.16-.35-.48-.61-.73-.9-.01.25.21.53.29.76.11.34.2.71.2,1.09,0,.18.04.68-.24.62-.1-.02-.22-.35-.27-.44-.14-.26-.26-.51-.41-.76-.48-.78-1.35-1.21-1.94-1.9-.29-.34-.82-.75-.74-1.28.04.03.1.07.13.11l-.02-.03Z"/>
                  <path class="cls-4" d="M1.38,29.9c.04.63.67,1.17,1,1.63.47.63.91,1.22,1.31,1.91.18.32.42.59.6.92.12.22.2.51.41.64.45.25.44-.56.5-.87.34.05.26,1.37.24,1.67-.01.23-.05.52-.34.5-.35-.02-.65-.85-.82-1.12-.57-.95-1.04-2.01-1.66-2.92-.41-.59-.76-1.27-1.04-1.95-.05-.12-.16-.38-.1-.44l-.11.05Z"/>
                  <path class="cls-4" d="M1.41,29.93c.22.24.38.63.57.93.26.39.51.8.75,1.21.23.4.47.79.69,1.2.12.22.44.59.41.86-.35-.01-.78-.4-1.04-.61-.4-.32-.75-.73-1.05-1.15-.36-.52-.74-1.36-.58-2.08-.08.57-.3,1.12-.27,1.7.02.51.13,1.08.34,1.53.33.68.76,1.28,1.3,1.78.41.38.88.67,1.41.89.32.13,1.39.49,1.1-.27-.4-1.06-1.02-1.97-1.61-2.89-.34-.54-.76-1.01-1.1-1.55-.13-.21-.81-1.15-.7-1.34l-.22-.2Z"/>
                  <path class="cls-5" d="M1.37,30.01c.67.88,1.21,1.8,1.76,2.77.29.51.61,1,.89,1.52.15.29.33.83.58,1.03.5.4.43-1.09.74-.21.11.33.33,1.07-.11,1.31-.49.27-1.22-.25-1.61-.44-.32-.16-.65-.31-.94-.53-.25-.19-.7-.52-.77-.82.31-.03.7.36.97.5.17.09.8.52,1.01.33.28-.25-.64-1.54-.76-1.78-.34-.67-.7-1.32-.96-2.03-.11-.32-.27-.61-.42-.91-.13-.25-.37-.5-.39-.79.03.01.06.03.09.05h-.08Z"/>
                </g>
                <path class="cls-14" d="M1.46,29.93c.41.29.8.59,1.26.8.45.2.93.35,1.32.67.22.18.45.41.47.72.03.37-.24.43-.5.28-.3-.17-.52-.5-.81-.7-.29-.19-.59-.34-.84-.58-.14-.14-.97-1.13-.86-1.21l-.03.03Z"/>
                <path class="cls-8" d="M3.53,33.63c.35.4.61.99.85,1.48.09.19.22.47.39.59.34.25.25-.19.49-.36.25-.17.2.28.18.47-.01.23-.03.45-.25.55-.36.17-.95-.09-1.26-.19-.4-.14-1-.34-1.24-.71.54.06,1.06.49,1.64.45.13-.35-.22-.98-.33-1.28-.11-.32-.25-.6-.39-.91-.01.05.02.02.05.05l-.13-.14Z"/>
              </g>
              <g>
                <g>
                  <path class="cls-15" d="M7.61,38.03c-.13-.25.29-1,.4-1.27.29-.72.51-1.53.5-2.26-.02-1.16-.55-1.79-1.16-2.58-.31-.39-.47-.78-.59-1.28-1.65,1.74-2.22,4.31-1.28,6.18.2.41.44.76.75,1.07.18.18.34.43.57.53.33.14.53-.1.72-.44-.02-.04-.03,0-.05,0l.13.05Z"/>
                  <path class="cls-4" d="M6.74,30.78c-.36.93-.02,1.95.06,2.85.04.54-.03,1.09-.03,1.64,0,.48.07.96.05,1.45-.02.41-.16,1.25.05,1.56.28.42.65-.1.72-.45.12-.62.42-1.2.61-1.82.12-.4.27-.8.29-1.21.02-.39-.12-.76-.2-1.12-.11.23-.05.57-.09.82-.05.36-.13.73-.29,1.08-.07.17-.24.64-.43.47-.07-.06-.03-.41-.03-.51,0-.29.01-.58,0-.87-.05-.91-.54-1.66-.71-2.54-.08-.43-.32-1.02-.05-1.48.02.04.05.11.06.16v-.04Z"/>
                  <path class="cls-4" d="M6.75,30.85c-.22.59.04,1.35.11,1.9.1.76.2,1.49.23,2.28.01.37.08.72.09,1.09,0,.25-.06.55.06.75.24.41.56-.33.73-.59.24.18-.35,1.36-.49,1.63-.1.2-.25.45-.46.32-.26-.16-.15-1.05-.17-1.36-.05-1.11.02-2.27-.09-3.36-.07-.71-.06-1.48,0-2.21.01-.13.03-.41.1-.45h-.11Z"/>
                  <path class="cls-4" d="M6.75,30.88c.07.32.03.74.06,1.08.04.47.06.95.08,1.42.01.47.05.92.05,1.38,0,.25.09.73-.03.96-.26-.16-.43-.69-.54-.98-.17-.46-.28-.98-.33-1.49-.07-.62-.01-1.56.4-2.14-.29.49-.68.9-.89,1.44-.19.48-.34,1.05-.35,1.54-.03.76.06,1.48.27,2.17.16.52.4.98.71,1.4.19.26.86,1.02.94.2.13-1.13.02-2.22-.06-3.31-.05-.63-.17-1.23-.21-1.87-.01-.25-.16-1.39,0-1.52l-.09-.28Z"/>
                  <path class="cls-5" d="M6.69,30.94c.16,1.08.2,2.15.22,3.26.02.59.06,1.17.06,1.76,0,.33-.09.89.03,1.18.22.57.77-.82.65.11-.05.35-.18,1.12-.62,1.16-.48.04-.83-.73-1.05-1.06-.18-.28-.37-.56-.5-.88-.11-.27-.33-.76-.26-1.07.25.1.39.62.53.86.09.15.4.8.64.71.31-.11.13-1.67.14-1.94.02-.75,0-1.5.08-2.26.04-.33.04-.67.05-1,0-.28-.08-.61.03-.88.02.03.03.05.05.08l-.06-.03Z"/>
                </g>
                <path class="cls-14" d="M6.79,30.91c.2.43.37.86.64,1.25.26.37.57.7.73,1.15.09.25.17.57.07.86-.13.35-.35.29-.49.05-.16-.29-.19-.67-.34-.98-.14-.29-.31-.55-.41-.87-.05-.18-.28-1.43-.17-1.46h-.04Z"/>
                <path class="cls-8" d="M6.88,35.14c.11.51.07,1.15.05,1.7,0,.21-.02.53.06.71.16.37.27-.07.52-.13.26-.06.04.34-.05.51-.1.2-.21.4-.41.4-.34,0-.69-.46-.88-.69-.25-.29-.62-.72-.66-1.16.39.28.61.89,1.07,1.09.25-.26.23-.98.27-1.31.05-.35.05-.66.07-1-.03.05,0,.03.02.07l-.04-.19Z"/>
              </g>
              <g>
                <g>
                  <path class="cls-15" d="M7.28,37.94c-.29.02-.84-.64-1.06-.84-.57-.54-1.26-1.04-1.95-1.3-1.1-.42-1.89-.17-2.85.09-.48.13-.9.14-1.42.07,1.04,2.16,3.25,3.65,5.36,3.49.46-.03.88-.12,1.29-.29.24-.1.53-.15.71-.33.25-.25.1-.53-.16-.83-.04,0,0,.03-.02.04l.09-.1Z"/>
                  <path class="cls-4" d="M.14,36.02c.74.69,1.83.75,2.71,1.02.52.16,1.02.43,1.54.63.45.18.93.29,1.38.5.38.16,1.12.61,1.49.54.5-.1.14-.64-.16-.83-.54-.35-.97-.83-1.49-1.23-.34-.26-.66-.55-1.04-.72-.36-.16-.76-.17-1.13-.24.17.19.52.26.74.39.33.19.64.4.92.67.13.13.51.47.28.58-.08.04-.4-.13-.49-.17-.28-.11-.54-.23-.82-.32-.88-.29-1.75-.12-2.64-.29-.43-.08-1.08-.09-1.41-.51.04,0,.12,0,.17.01h-.03Z"/>
                  <path class="cls-4" d="M.2,36.04c.47.43,1.28.47,1.83.61.76.19,1.48.38,2.24.65.35.13.7.19,1.05.32.24.09.5.26.74.23.47-.07-.11-.64-.29-.89.26-.15,1.16.83,1.36,1.06.15.17.34.4.13.54-.25.18-1.04-.25-1.35-.35-1.06-.37-2.13-.87-3.19-1.17-.7-.2-1.42-.5-2.09-.83-.11-.06-.38-.18-.38-.26l-.04.1Z"/>
                  <path class="cls-4" d="M.24,36.05c.32.05.7.25,1.04.34.46.14.91.3,1.37.46.44.16.88.3,1.32.48.24.09.72.19.89.39-.24.18-.8.14-1.12.13-.5-.02-1.02-.11-1.53-.25-.61-.17-1.47-.57-1.88-1.17.36.45.61.96,1.04,1.36.39.35.86.7,1.33.9.71.31,1.42.5,2.14.56.55.05,1.07,0,1.57-.13.31-.08,1.28-.4.53-.79-1.02-.53-2.09-.84-3.15-1.18-.61-.19-1.22-.3-1.84-.51-.23-.08-1.36-.37-1.43-.57l-.29-.02Z"/>
                  <path class="cls-5" d="M.27,36.12c1.07.26,2.1.63,3.16,1.02.56.21,1.12.38,1.68.6.31.13.81.41,1.12.42.62.01-.5-1.01.34-.55.31.17.99.58.87,1-.13.46-.98.49-1.38.56-.33.07-.66.14-1.01.13-.3,0-.83.01-1.1-.17.19-.19.73-.12,1-.16.18-.03.9-.06.91-.32,0-.33-1.53-.75-1.78-.86-.7-.3-1.41-.56-2.09-.92-.3-.16-.62-.29-.93-.42-.26-.11-.6-.15-.82-.35.03,0,.07-.01.1-.01l-.05.04Z"/>
                </g>
                <path class="cls-14" d="M.28,36.02c.47-.02.95-.01,1.4-.12.44-.1.87-.26,1.35-.24.27,0,.59.05.83.26.28.25.15.44-.13.47-.33.04-.7-.08-1.04-.06-.32.02-.64.08-.97.05-.19-.02-1.45-.27-1.44-.4v.03Z"/>
                <path class="cls-8" d="M4.3,37.52c.52.09,1.11.37,1.62.59.2.09.49.22.69.21.41-.01.03-.27.07-.52.04-.26.33.09.46.24.15.17.3.34.23.53-.12.32-.69.46-.97.55-.37.12-.9.3-1.33.17.4-.25,1.05-.23,1.41-.57-.16-.33-.85-.58-1.14-.74-.31-.17-.6-.29-.92-.44.03.05.03,0,.07,0l-.19-.03Z"/>
              </g>
              <g>
                <g>
                  <path class="cls-15" d="M13.52,44.26c-.32-.4.2-1.59.31-2.03.29-1.14.42-2.44.17-3.6-.39-1.83-1.54-2.81-2.87-4.04-.67-.61-1.09-1.22-1.46-2.01-2.38,2.81-2.59,6.9-.32,9.83.5.64,1.03,1.18,1.68,1.67.38.28.73.67,1.19.82.63.22.91-.18,1.14-.72-.05-.06-.05,0-.08,0l.24.07Z"/>
                  <path class="cls-4" d="M9.68,32.81c-.36,1.48.58,3.08,1,4.51.25.85.3,1.73.48,2.6.16.77.43,1.51.55,2.29.1.64.11,1.99.58,2.47.63.66,1.13-.19,1.14-.74.02-.99.36-1.9.5-2.89.09-.64.22-1.28.13-1.93-.08-.62-.46-1.2-.7-1.77-.12.36.09.91.1,1.3.02.58,0,1.17-.17,1.73-.08.27-.23,1.02-.63.76-.14-.1-.18-.65-.21-.81-.09-.46-.17-.92-.28-1.37-.38-1.44-1.49-2.6-2.07-3.98-.28-.67-.89-1.6-.56-2.34.05.07.12.16.15.25l-.02-.06Z"/>
                  <path class="cls-4" d="M9.72,32.92c-.21.94.49,2.13.8,3.01.42,1.21.83,2.36,1.12,3.61.14.58.37,1.13.5,1.71.09.4.07.88.34,1.19.56.64.89-.55,1.12-.96.49.28-.2,2.16-.35,2.59-.12.33-.29.72-.73.52-.51-.25-.6-1.65-.73-2.15-.44-1.75-.68-3.59-1.22-5.31-.36-1.13-.58-2.34-.7-3.51-.02-.2-.08-.65.04-.71h-.19Z"/>
                  <path class="cls-4" d="M9.74,32.98c.22.5.29,1.17.45,1.71.23.74.41,1.49.59,2.25.18.73.37,1.45.52,2.18.08.4.39,1.15.25,1.52-.52-.24-.99-1.07-1.28-1.54-.45-.72-.8-1.54-1.06-2.35-.32-.98-.51-2.46.03-3.41-.36.79-.92,1.45-1.13,2.32-.18.77-.27,1.67-.14,2.45.2,1.2.57,2.35,1.17,3.42.45.82,1.02,1.53,1.71,2.18.42.4,1.85,1.59,1.74.28-.14-1.79-.68-3.51-1.16-5.24-.28-1-.7-1.95-.96-2.95-.1-.39-.72-2.19-.47-2.4l-.25-.44Z"/>
                  <path class="cls-5" d="M9.64,33.07c.62,1.7,1.03,3.4,1.43,5.16.21.93.47,1.85.66,2.78.11.52.13,1.42.42,1.87.57.89,1.1-1.33,1.18.15.03.56.03,1.78-.73,1.85-.84.08-1.7-1.12-2.2-1.65-.41-.43-.84-.87-1.16-1.37-.28-.43-.82-1.19-.8-1.69.47.15.89.97,1.22,1.34.21.24.96,1.26,1.37,1.11.52-.19-.29-2.65-.37-3.08-.21-1.19-.48-2.37-.56-3.57-.04-.53-.15-1.06-.24-1.59-.07-.45-.33-.96-.23-1.4.04.04.08.08.11.13l-.11-.05Z"/>
                </g>
                <path class="cls-14" d="M9.81,33.01c.48.68.93,1.36,1.53,1.96.58.57,1.23,1.09,1.67,1.8.25.39.48.88.39,1.35-.11.56-.54.48-.86.09-.38-.44-.56-1.06-.91-1.53-.34-.46-.74-.87-1-1.37-.15-.29-.96-2.25-.76-2.31l-.05.02Z"/>
                <path class="cls-8" d="M11.32,39.72c.35.8.48,1.83.62,2.69.06.34.13.84.33,1.12.4.58.45-.12.88-.22.44-.1.17.53.07.8-.12.32-.25.64-.6.65-.6.02-1.38-.72-1.78-1.06-.54-.45-1.34-1.12-1.54-1.81.78.42,1.36,1.38,2.24,1.69.35-.43.09-1.57.06-2.08-.03-.55-.12-1.05-.19-1.59-.04.07.02.05.05.1l-.13-.29Z"/>
              </g>
              <path class="cls-9" d="M13.83,38.39c-.51.15-.57,1.11-.67,1.53-.15.67-.25,1.34-.24,2.03.06-1.5-1.53-3.07-2.85-3.64-1.07-.46-2.67-.21-3.28-1.43.04.31-.07.65-.04.98.05.5.14.99.38,1.45.62,1.17,1.78,2.04,2.82,2.83.79.59,1.83,1.13,2.78,1.39.47.13.95.18,1.43.32.4.11.95.51,1.37.31-.22-.55-.66-1.04-.86-1.62-.21-.61-.36-1.29-.46-1.92-.13-.82.06-1.83-.51-2.53l.12.31Z"/>
              <g>
                <g>
                  <path class="cls-15" d="M13.35,42.11c-.4.03-1.07-.88-1.34-1.16-.71-.74-1.59-1.43-2.51-1.8-1.46-.6-2.58-.28-3.94.04-.68.16-1.27.16-1.97.04,1.14,2.93,3.98,4.99,6.9,4.84.64-.03,1.22-.14,1.81-.35.34-.12.74-.18,1.02-.41.38-.32.21-.7-.1-1.11-.06,0-.02.04-.03.06l.14-.13Z"/>
                  <path class="cls-4" d="M3.77,39.32c.93.94,2.41,1.05,3.59,1.44.69.23,1.34.61,2.03.89.61.25,1.24.42,1.84.7.49.23,1.46.86,1.98.77.7-.11.28-.85-.11-1.12-.7-.48-1.22-1.14-1.88-1.7-.43-.36-.83-.75-1.33-1-.47-.23-1.02-.26-1.52-.36.21.26.68.36.97.54.42.26.83.55,1.17.92.16.18.64.64.31.78-.12.05-.53-.18-.66-.23-.36-.16-.72-.32-1.08-.45-1.17-.42-2.4-.22-3.6-.48-.58-.12-1.47-.15-1.87-.72.06,0,.16,0,.23.01h-.04Z"/>
                  <path class="cls-4" d="M3.86,39.35c.6.59,1.7.67,2.44.88,1.02.28,1.99.55,2.99.94.46.18.94.28,1.4.47.31.13.65.36.98.32.66-.07-.07-.85-.28-1.2.38-.2,1.47,1.15,1.73,1.46.19.23.41.54.1.73-.36.23-1.4-.37-1.8-.52-1.41-.52-2.81-1.23-4.24-1.67-.94-.29-1.88-.71-2.76-1.17-.15-.08-.5-.26-.49-.36l-.06.12Z"/>
                  <path class="cls-4" d="M3.91,39.36c.44.09.94.36,1.39.5.61.2,1.22.43,1.82.65.59.22,1.17.43,1.75.68.31.14.96.27,1.18.55-.36.23-1.13.16-1.57.14-.68-.03-1.39-.19-2.06-.39-.82-.24-1.95-.81-2.43-1.62.43.62.7,1.31,1.24,1.85.48.48,1.09.97,1.7,1.25.93.43,1.89.72,2.87.82.75.08,1.46.04,2.18-.13.44-.1,1.81-.5.84-1.05-1.33-.75-2.76-1.19-4.17-1.67-.81-.28-1.65-.44-2.46-.74-.32-.11-1.82-.54-1.89-.81l-.4-.04Z"/>
                  <path class="cls-5" d="M3.94,39.47c1.45.38,2.81.9,4.21,1.46.74.29,1.49.55,2.23.86.41.17,1.06.57,1.49.59.84.04-.55-1.37.54-.73.41.24,1.28.81,1.06,1.36-.25.61-1.43.62-1.98.71-.46.08-.93.16-1.4.14-.41-.02-1.15,0-1.49-.26.28-.24,1.02-.15,1.4-.19.25-.03,1.25-.05,1.29-.4.05-.44-2-1.05-2.34-1.2-.92-.42-1.87-.79-2.75-1.3-.39-.22-.81-.4-1.22-.59-.34-.16-.8-.23-1.08-.5.04,0,.09-.01.14-.02l-.08.05Z"/>
                </g>
                <path class="cls-14" d="M3.96,39.32c.66,0,1.31.01,1.95-.11.62-.12,1.23-.32,1.9-.28.37.02.81.09,1.11.38.36.34.14.58-.25.63-.46.04-.96-.13-1.43-.11-.45.02-.89.09-1.34.03-.26-.03-1.96-.41-1.93-.58v.05Z"/>
                <path class="cls-8" d="M9.3,41.46c.7.14,1.48.53,2.15.84.26.12.64.31.92.31.56,0,.08-.36.17-.7.09-.34.44.13.6.33.18.23.37.47.25.71-.21.42-1.01.59-1.41.71-.52.15-1.29.38-1.86.19.59-.32,1.48-.27,2.03-.72-.18-.44-1.09-.8-1.47-1.02-.4-.24-.79-.41-1.2-.61.03.06.04,0,.09,0l-.26-.04Z"/>
              </g>
              <g>
                <g>
                  <path class="cls-15" d="M19.89,45.88c-.48.1-1.32-.84-1.66-1.12-.89-.73-1.97-1.38-3.09-1.66-1.78-.45-3.12.11-4.74.72-.82.3-1.52.41-2.37.38,1.49,3.2,5,5.1,8.52,4.43.77-.15,1.46-.37,2.16-.72.41-.2.89-.34,1.22-.66.45-.44.22-.85-.16-1.27-.08.01-.02.05-.04.07l.16-.17Z"/>
                  <path class="cls-4" d="M8.23,44.29c1.15.93,2.95.81,4.38,1.06.84.15,1.65.48,2.48.69.74.19,1.51.28,2.24.5.6.19,1.79.74,2.42.56.84-.25.3-1.04-.18-1.28-.86-.43-1.52-1.11-2.34-1.65-.53-.35-1.03-.73-1.65-.93-.58-.19-1.25-.12-1.85-.16.27.26.83.31,1.19.46.52.23,1.02.5,1.45.87.2.18.8.63.4.85-.14.08-.65-.12-.8-.16-.44-.12-.87-.25-1.32-.34-1.42-.29-2.9.16-4.36.07-.71-.04-1.78.08-2.29-.52.08-.01.2-.03.28-.02h-.05Z"/>
                  <path class="cls-4" d="M8.35,44.3c.75.58,2.08.49,2.98.6,1.23.15,2.41.3,3.64.58.56.13,1.15.16,1.71.3.38.09.8.31,1.19.21.8-.2-.12-.98-.38-1.35.44-.29,1.83,1.08,2.14,1.4.24.24.51.55.15.83-.43.33-1.7-.18-2.2-.29-1.73-.37-3.44-.94-5.18-1.21-1.14-.17-2.3-.5-3.38-.89-.18-.07-.61-.21-.61-.33l-.07.16Z"/>
                  <path class="cls-4" d="M8.4,44.31c.53.02,1.14.25,1.69.34.74.12,1.49.28,2.22.45.71.16,1.43.3,2.14.49.38.1,1.17.15,1.44.43-.43.34-1.35.38-1.89.43-.82.08-1.68.03-2.5-.09-1-.15-2.38-.61-2.99-1.47.55.64.9,1.39,1.58,1.94.6.47,1.36.93,2.1,1.16,1.14.34,2.3.51,3.49.46.91-.04,1.77-.21,2.63-.52.52-.19,2.16-.9.97-1.36-1.64-.64-3.37-.91-5.09-1.23-.99-.18-2.01-.23-2.99-.43-.39-.08-2.22-.32-2.31-.62l-.49.03Z"/>
                  <path class="cls-5" d="M8.44,44.42c1.75.19,3.42.57,5.13.97.91.21,1.82.37,2.72.61.5.13,1.3.49,1.82.43,1.02-.1-.71-1.5.62-.94.5.21,1.58.72,1.33,1.4-.28.75-1.69.96-2.36,1.17-.55.17-1.11.34-1.68.41-.49.05-1.39.19-1.81-.04.33-.33,1.22-.34,1.68-.46.3-.08,1.5-.28,1.54-.69.04-.52-2.46-.87-2.87-.99-1.13-.33-2.29-.59-3.37-1.03-.48-.19-1-.33-1.49-.47-.42-.12-.98-.12-1.32-.39.05-.02.11-.03.16-.05l-.09.07Z"/>
                </g>
                <path class="cls-14" d="M8.46,44.26c.79-.12,1.58-.21,2.35-.47.75-.25,1.47-.57,2.28-.65.45-.04.98-.03,1.35.24.45.34.2.65-.28.77-.55.13-1.16.02-1.72.12-.54.1-1.06.26-1.62.27-.32,0-2.38-.14-2.35-.34v.05Z"/>
                <path class="cls-8" d="M14.99,45.82c.85.04,1.8.36,2.63.6.31.09.79.24,1.12.2.68-.1.08-.43.18-.83.09-.41.54.07.74.28.23.23.47.48.33.78-.23.52-1.2.86-1.68,1.06-.62.26-1.53.66-2.23.54.69-.48,1.77-.57,2.41-1.19-.23-.48-1.34-.73-1.81-.93-.49-.21-.97-.34-1.47-.51.04.06.05,0,.11,0h-.31Z"/>
              </g>
              <g>
                <g>
                  <path class="cls-15" d="M21.09,47.93c-.39-.33-.13-1.6-.1-2.05.05-1.18-.08-2.47-.56-3.56-.76-1.72-2.08-2.46-3.63-3.4-.78-.47-1.31-.98-1.83-1.68-1.76,3.21-1.14,7.26,1.67,9.69.62.53,1.25.96,1.99,1.31.43.2.85.51,1.33.58.66.09.86-.35.98-.93-.06-.05-.05.02-.08.02l.25.02Z"/>
                  <path class="cls-4" d="M15.02,37.46c-.05,1.52,1.19,2.91,1.89,4.22.41.78.64,1.64.99,2.45.32.72.73,1.4,1,2.14.23.6.51,1.92,1.07,2.31.75.52,1.07-.4.97-.95-.18-.97-.03-1.93-.09-2.93-.04-.65-.04-1.3-.26-1.92-.21-.59-.69-1.09-1.05-1.6-.05.38.27.87.36,1.26.14.56.23,1.14.19,1.73-.02.28-.03,1.04-.46.86-.16-.07-.31-.61-.37-.75-.18-.44-.35-.87-.56-1.29-.66-1.34-1.98-2.26-2.83-3.51-.41-.6-1.2-1.39-1.01-2.18.06.06.15.14.19.22l-.03-.05Z"/>
                  <path class="cls-4" d="M15.08,37.56c-.02.97.9,2,1.38,2.8.66,1.1,1.29,2.15,1.83,3.32.25.54.59,1.04.83,1.58.16.37.24.84.58,1.1.68.52.76-.71.9-1.16.53.18.24,2.16.18,2.61-.05.34-.14.76-.61.65-.55-.14-.93-1.5-1.15-1.97-.79-1.63-1.39-3.39-2.27-4.97-.58-1.04-1.04-2.18-1.39-3.3-.06-.19-.21-.63-.11-.7l-.18.04Z"/>
                  <path class="cls-4" d="M15.11,37.61c.32.45.51,1.09.79,1.59.37.68.71,1.39,1.04,2.08.32.68.65,1.35.95,2.04.16.37.62,1.04.55,1.44-.56-.14-1.18-.86-1.57-1.26-.59-.62-1.09-1.35-1.51-2.09-.51-.9-1-2.31-.66-3.35-.19.85-.61,1.6-.64,2.49-.02.78.07,1.69.35,2.43.44,1.14,1.03,2.19,1.83,3.13.61.72,1.3,1.3,2.11,1.81.49.31,2.13,1.2,1.77-.06-.5-1.73-1.38-3.31-2.2-4.91-.48-.92-1.08-1.77-1.54-2.71-.18-.36-1.14-2.01-.94-2.27l-.33-.38Z"/>
                  <path class="cls-5" d="M15.04,37.72c.95,1.54,1.7,3.13,2.44,4.78.4.87.84,1.72,1.22,2.59.21.49.41,1.36.79,1.75.74.76.81-1.52,1.19-.08.14.54.39,1.74-.34,1.96-.81.25-1.89-.77-2.49-1.19-.49-.34-1-.69-1.42-1.12-.36-.37-1.04-1.01-1.12-1.5.49.06,1.07.78,1.46,1.08.26.2,1.19,1.04,1.56.82.47-.29-.82-2.55-.98-2.95-.45-1.12-.95-2.23-1.27-3.39-.14-.51-.36-1.01-.55-1.51-.17-.42-.51-.87-.51-1.32.05.03.1.06.14.11l-.12-.03Z"/>
                </g>
                <path class="cls-14" d="M15.19,37.63c.61.57,1.18,1.15,1.9,1.62.69.45,1.42.83,2,1.44.32.34.65.77.65,1.25,0,.57-.43.57-.83.26-.46-.36-.76-.93-1.2-1.32-.42-.38-.9-.71-1.26-1.15-.2-.25-1.39-2.02-1.21-2.12l-.05.03Z"/>
                <path class="cls-8" d="M18.02,43.91c.51.72.84,1.7,1.16,2.52.12.32.29.79.54,1.03.51.49.42-.2.82-.38.41-.19.28.48.23.77-.05.33-.11.68-.46.76-.59.14-1.49-.44-1.97-.69-.62-.34-1.54-.84-1.88-1.48.84.26,1.61,1.08,2.54,1.21.26-.49-.23-1.55-.36-2.05-.13-.53-.33-1-.51-1.51-.03.08.03.04.07.09l-.19-.26Z"/>
              </g>
              <g>
                <g>
                  <path class="cls-15" d="M25.58,49.13c-.43.23-1.51-.45-1.91-.62-1.06-.46-2.29-.78-3.45-.75-1.83.07-2.96.97-4.34,2-.7.51-1.34.8-2.16,1.02,2.34,2.66,6.25,3.52,9.44,1.91.7-.35,1.3-.75,1.87-1.28.33-.3.76-.57.98-.97.3-.55-.03-.88-.52-1.18-.07.04,0,.05-.02.08l.11-.21Z"/>
                  <path class="cls-4" d="M13.94,50.81c1.37.58,3.06-.03,4.51-.19.85-.09,1.72.01,2.58-.02.77-.03,1.53-.15,2.3-.13.63.01,1.93.22,2.48-.13.73-.47,0-1.08-.54-1.17-.95-.18-1.78-.65-2.72-.94-.61-.19-1.2-.42-1.84-.44-.61-.02-1.23.23-1.82.36.34.18.89.07,1.27.12.56.08,1.12.2,1.64.44.25.12.95.38.63.7-.11.11-.66.06-.81.06-.46,0-.91,0-1.37.04-1.45.11-2.74.94-4.17,1.26-.69.15-1.68.56-2.34.13.07-.03.18-.08.26-.1h-.06Z"/>
                  <path class="cls-4" d="M14.05,50.79c.88.35,2.14-.1,3.03-.24,1.23-.2,2.4-.38,3.66-.45.58-.03,1.15-.16,1.73-.18.39-.02.86.08,1.21-.13.71-.41-.39-.91-.76-1.19.34-.4,2.06.54,2.45.75.3.16.65.39.39.76-.32.44-1.69.29-2.19.33-1.76.12-3.57.04-5.32.26-1.14.15-2.35.15-3.49.07-.2-.01-.64-.03-.68-.15l-.03.18Z"/>
                  <path class="cls-4" d="M14.11,50.78c.51-.12,1.17-.07,1.72-.14.75-.09,1.51-.14,2.26-.18.74-.04,1.45-.11,2.19-.12.4,0,1.17-.18,1.51.02-.31.44-1.19.73-1.69.93-.77.3-1.61.49-2.43.6-1,.13-2.45.07-3.29-.58.71.46,1.26,1.09,2.06,1.43.71.29,1.57.53,2.34.54,1.19.01,2.35-.15,3.48-.52.86-.28,1.64-.69,2.37-1.22.45-.33,1.82-1.45.54-1.57-1.75-.17-3.5.05-5.24.22-1,.09-1.99.33-3,.4-.39.03-2.22.31-2.39.04l-.46.16Z"/>
                  <path class="cls-5" d="M14.18,50.88c1.74-.3,3.44-.4,5.2-.48.93-.04,1.86-.14,2.79-.16.52-.01,1.39.11,1.87-.08.95-.38-1.11-1.24.33-1.07.54.06,1.72.26,1.68.98-.05.79-1.35,1.39-1.93,1.77-.48.31-.97.64-1.5.85-.46.19-1.28.56-1.75.46.22-.41,1.07-.66,1.48-.9.27-.16,1.36-.68,1.28-1.09-.1-.51-2.61-.16-3.03-.16-1.18,0-2.37.05-3.53-.06-.52-.05-1.05-.04-1.57-.04-.45,0-.97.15-1.38,0,.05-.03.09-.06.14-.09l-.07.1Z"/>
                </g>
                <path class="cls-14" d="M14.15,50.72c.72-.33,1.45-.63,2.12-1.1.64-.45,1.24-.96,1.99-1.25.42-.16.93-.3,1.37-.14.52.2.38.57-.05.81-.49.28-1.11.34-1.62.59-.49.24-.95.54-1.48.7-.3.09-2.32.52-2.35.32v.05Z"/>
                <path class="cls-8" d="M20.86,50.42c.83-.2,1.84-.15,2.7-.14.33,0,.82.02,1.13-.12.62-.28-.04-.44-.07-.85-.03-.42.54-.08.79.07.29.16.58.33.54.66-.08.57-.91,1.16-1.31,1.48-.52.42-1.28,1.06-1.99,1.13.53-.65,1.55-1.04,1.98-1.8-.36-.4-1.5-.34-2-.4-.53-.07-1.02-.06-1.56-.08.06.05.05-.01.1-.03l-.3.08Z"/>
              </g>
              <g>
                <g>
                  <path class="cls-15" d="M26.36,52.3c-.34-.38.11-1.6.2-2.04.23-1.16.28-2.46-.02-3.61-.49-1.81-1.7-2.73-3.09-3.89-.7-.58-1.15-1.16-1.56-1.93-2.22,2.93-2.21,7.02.21,9.83.53.62,1.09,1.13,1.77,1.58.39.26.77.63,1.23.76.64.18.9-.23,1.1-.78-.05-.06-.06.01-.08,0l.25.06Z"/>
                  <path class="cls-4" d="M21.91,41.07c-.28,1.5.75,3.04,1.24,4.45.29.83.39,1.71.62,2.57.2.76.51,1.49.67,2.26.13.64.22,1.98.71,2.44.66.63,1.12-.24,1.1-.8-.03-.99.26-1.92.34-2.91.05-.65.15-1.29.03-1.93-.12-.62-.52-1.18-.8-1.73-.11.37.14.9.17,1.29.05.58.06,1.17-.07,1.73-.06.27-.18,1.03-.59.78-.14-.09-.22-.64-.26-.8-.11-.46-.21-.91-.36-1.36-.45-1.42-1.62-2.52-2.28-3.87-.32-.65-.98-1.55-.68-2.31.05.06.13.16.16.24l-.02-.05Z"/>
                  <path class="cls-4" d="M21.95,41.18c-.16.95.6,2.1.96,2.96.48,1.18.95,2.31,1.31,3.55.17.57.44,1.11.59,1.68.11.39.12.87.41,1.18.59.61.86-.6,1.06-1.02.5.25-.08,2.17-.21,2.61-.1.34-.26.74-.7.56-.53-.22-.69-1.61-.85-2.11-.54-1.73-.87-3.55-1.51-5.24-.42-1.11-.7-2.3-.89-3.47-.03-.2-.11-.65,0-.71h-.19Z"/>
                  <path class="cls-4" d="M21.98,41.23c.25.49.34,1.15.54,1.69.26.73.49,1.47.71,2.21.22.72.45,1.43.64,2.16.1.39.46,1.12.33,1.5-.53-.21-1.04-1.02-1.36-1.47-.49-.7-.88-1.49-1.19-2.29-.37-.97-.65-2.43-.16-3.41-.32.81-.85,1.5-1.01,2.37-.14.77-.18,1.68-.01,2.46.26,1.19.7,2.31,1.35,3.36.49.79,1.1,1.47,1.82,2.09.44.38,1.93,1.49,1.76.19-.24-1.78-.87-3.48-1.45-5.17-.33-.98-.8-1.91-1.12-2.9-.12-.38-.83-2.15-.6-2.37l-.27-.42Z"/>
                  <path class="cls-5" d="M21.89,41.33c.71,1.67,1.21,3.34,1.71,5.08.26.92.58,1.83.82,2.74.13.51.21,1.41.52,1.85.62.87,1.03-1.39,1.19.09.06.56.13,1.78-.63,1.89-.83.13-1.76-1.04-2.29-1.53-.44-.41-.89-.82-1.24-1.31-.3-.41-.88-1.15-.88-1.64.48.13.94.93,1.29,1.28.23.23,1.03,1.21,1.42,1.03.51-.22-.43-2.63-.53-3.06-.27-1.17-.61-2.35-.76-3.54-.07-.52-.2-1.06-.32-1.57-.1-.44-.38-.94-.31-1.38.04.04.09.08.12.13l-.11-.05Z"/>
                </g>
                <path class="cls-14" d="M22.05,41.26c.52.65,1,1.31,1.63,1.87.61.54,1.29,1.03,1.76,1.71.27.38.53.86.46,1.33-.09.57-.51.5-.86.14-.4-.42-.61-1.03-.99-1.48-.36-.44-.78-.83-1.07-1.32-.17-.28-1.08-2.2-.88-2.27l-.05.02Z"/>
                <path class="cls-8" d="M23.92,47.88c.39.78.58,1.8.77,2.66.07.34.17.83.38,1.1.44.56.45-.15.87-.26.43-.13.2.52.11.8-.1.32-.21.65-.57.69-.6.05-1.42-.64-1.84-.97-.56-.42-1.39-1.05-1.64-1.73.8.38,1.43,1.31,2.33,1.57.33-.45,0-1.57-.05-2.09-.06-.54-.18-1.04-.28-1.57-.04.07.02.05.05.1l-.15-.29Z"/>
              </g>
              <path class="cls-15" d="M27.13,46.01c-1.38-.18-2.02,2.7-2.15,3.62-.19,1.25-.16,3.15.86,4.09.54.5,1.19.33,1.81.13.39-.13.82-.27,1.24-.22.41.05.58.28.94.41,1.35.51,3.62-.05,3.87-1.65.33-2.15-.22-5.47-2.32-6.63-1.31-.72-3.65-.51-4.79.36l.54-.11Z"/>
              <path class="cls-4" d="M26.97,45.85c-1.17.15-1.82,2.29-1.93,3.23-.14,1.26-.18,2.78.51,3.9.55.89,1.69.82,2.65.64.46-.08.81-.24,1.28-.09.46.15.79.42,1.31.41,1.76,0,2.15-1.37,2.36-2.87.13-.9.16-1.74-.09-2.62-.16-.56-.49-1.64-.98-1.95-.14.35-.03.83-.09,1.22-.11.69-.44,1.42-.93,1.92-.81.84-2.14.95-2.96.1-.65-.66-1.02-1.53-1.13-2.44-.06-.42-.13-1.19.21-1.49l-.21.05Z"/>
              <path class="cls-4" d="M26.91,46.12c-1.22-.26-1.8,3.03-1.88,3.81-.11,1.02-.07,2.99.98,3.56,1.05.58,1.77-.52,2.79-.36.89.14,1.48.78,2.53.64,2.72-.36,2.18-5.33,1.03-6.92-.25,1.53.32,2.88-.83,4.21-.84.97-1.82,1.2-3.06.8-2.46-.79-2.73-4.02-1.61-5.86l.05.11Z"/>
              <path class="cls-5" d="M25.83,45.69c.01.64-.27.88-.65,1.38-.44.6-.68,1.18-.85,1.9-.11.46-.13,1.27-.6,1.49-.31.14-.89.05-1.23.07.09.97,1.9,2.35,2.84,2.48.08-1.47-.24-2.96.16-4.46.18-.68.44-1.25.75-1.87.4-.79-.05-.68-.42-1.28v.27Z"/>
              <path class="cls-5" d="M32.29,46.6c1.41,1.51,1.25,4.18,1.35,6.11.58.13,1.35-.88,1.71-1.26.67-.71,1.26-1.5,1.56-2.44-.21.49-1.26.92-1.67.46-.46-.52.18-1.37-.55-1.9-.43-.31-2.3-.62-2.25-1.18l-.16.21Z"/>
              <path class="cls-5" d="M26.32,46.22c-.07.63-.95,1.43-1.25,2.03-.35.7-.44,1.41-.69,2.12-.09.26-.09.39-.31.59-.24.21-.62.18-.6.53.03.46,1.28,1.18,1.65,1.43.1-.53-.1-1.14-.1-1.7,0-.71.08-1.34.22-2.02.14-.68.35-1.27.63-1.91.15-.32.61-1.01.5-1.33l-.05.27Z"/>
              <path class="cls-5" d="M32.4,46.6c.09.24.3.33.43.54.19.3.22.67.33,1,.21.62.38,1.25.49,1.9.15.86.06,1.74.1,2.61.7.11,2.47-1.45,2.41-2.11-.7.06-.76.07-.85-.64-.09-.66-.43-.96-.86-1.45-.38-.43-.7-.89-1.12-1.28-.31-.28-.79-.49-1.04-.85l.11.27Z"/>
              <path class="cls-17" d="M27.13,45.96c-.23.04-1.06.92-.47,1.26.38.22,1.6-.38,2.02-.45.71-.12,1.6-.16,2.29.05.59.18.95.61,1.28.9-.42-1.24-.81-1.92-2.16-2.19-.51-.1-.99-.11-1.5-.06-.27.03-.55,0-.81.09-.3.11-.51.36-.81.44l.16-.05Z"/>
              <path class="cls-18" d="M27.02,46.01c-.18.18-.85.77-.39,1.02.26.14.97-.54,1.24-.67.85-.41,1.87-.42,2.79-.24-.59-.46-1.25-.38-1.97-.38-.36,0-.7.02-1.03.09-.18.04-.34.1-.52.13-.19.04-.29.17-.28.04h.16Z"/>
              <path class="cls-5" d="M19.92,41.56c-.04.42.23.83.25,1.27.03.56-.21,1.05-.34,1.58-.27,1.17-.5,2.49-.17,3.67.3,1.07.88,2.09,1.68,2.85.72.69,1.56,1.09,2.47,1.41-.54-.47-1.09-.81-1.54-1.42-.37-.5-.72-1.05-.92-1.64-.36-1.06-.56-2.09-.77-3.18-.19-.99-.13-1.87-.02-2.85.1-.9-.56-1.25-.83-2.01l.18.32Z"/>
              <path class="cls-5" d="M38.11,42.8c.03.98.45,1.89.39,2.91-.05.97-.28,2.05-.72,2.94-.38.75-.83,1.56-1.36,2.21-.19.23-.41.47-.64.67-.11.1-.7.4-.73.5,0,0-.02,0-.03,0,.04.6,1.73.67,2.11.44,1.37-.82,2.32-2.42,2.59-3.95.24-1.35.03-2.64-.47-3.91-.25-.63-.62-1.52-1.16-1.94,0,0-.02,0-.03,0l.04.14Z"/>
            </g>
            <path class="cls-11" d="M31.66,46.09c-.1,1.07.43,2.19-.14,3.19-.81,1.44-1.58.34-2.31.54-.52.14-.62.84-1.3.89-.63.04-.96-.3-1.3-.77-.55-.77-.83-1.74-1.35-.22-.49,1.43-.29,4.21,1.76,4.08,1.05-.07,1.1-.52,2.12-.03.73.36,1.26.88,2.17.69,3.88-.79,2.42-7.09,0-8.59l.33.22Z"/>
            <path class="cls-12" d="M35.29,42.84c-1.07.94-3.39,2.42-2.7,4.13.42,1.04.89,1.91,1.1,3.07.15.81.17,1.7,0,2.48,2.62-.97,4.54-3.99,4.39-6.8-.5.6-.93,1.29-1.74,1.47-.41-.93.46-2.25-.12-3.14-.33.37-1.14,2.51-1.43,1.07-.1-.48-.09-1.04.07-1.51.08-.22.35-.87.43-.7v-.05Z"/>
            <path class="cls-12" d="M38.54,41.8c-.27.49-.6.96-.48,1.55.12.59.42,1.09.47,1.71.07.88-.29,1.57-.31,2.4.66.04,1.39.31,2.03.22,1.1-.16,1.86-1.48,2.48-2.3,1.04-1.39,2.37-4.05,1.78-5.83-.32.83-.84,2.78-1.93,2.85-.02-.36.2-.75.28-1.11.13-.55.16-1.13.21-1.69.06-.71.15-1.43.16-2.13-.19,1.27-.68,2.5-1.28,3.62-.31.58-.85,2.16-1.47,2.47-1.19.59-1.35-1.99-1.07-2.64-.37.31-.86.9-.91,1.38l.05-.5Z"/>
            <path class="cls-11" d="M38.21,43.01c-.07.86.32,1.89.4,2.76.05.59-.1,1.09-.11,1.63.65.08,1.31.28,1.96.05.79-.28,2.17-1.49,2.43-2.29-.32.05-.61.45-.93.6-.37.18-.92.37-1.31.36.14-1.29,1.17-2.28,1.08-3.71-.5.81-1.25,2.69-2.35,2.78-.09-.63.17-.94-.28-1.48-.18-.21-.52-.68-.77-.71h-.11Z"/>
            <path class="cls-11" d="M43.77,37.28c.14.56.53,1.05.67,1.65.14.6.24,1.17.26,1.78.03.72-.04,1.41-.27,2.07.21-.01.42,0,.6.1.17-.83,1.06-1.59,1.64-2.18.69-.71,1.47-1.26,2.2-1.88.67-.57.85-1.13.89-2.01.03-.59.12-1.95-.54-2.21-.38,1.05.05,2.7-1.18,3.42-.59.34-.55-.32-.66-.8-.15-.65-.24-1.4-.43-2.02-.16.39-.18,4.95-1.42,3.89-.56-.48-.89-1.62-1.83-1.64l.05-.17Z"/>
            <path class="cls-11" d="M44.76,41.36c.1,1.45-.86,3.38-1.83,4.41-.78.83-1.6,1.42-2.5,2.1,1.07.42,2.23.59,3.39.59,1.02,0,2.74-.3,3.35-1.2-.26,0-1.26-.08-1.43-.28-.24-.29,1.16-.93,1.15-1.53-.41-.09-1,.07-1.35-.17.94-.31,2.28-.6,1.59-1.87-.35-.63-.8-.53-1.43-.67.92-.3,1.42-.68,2.02-1.46.24-.31,1.59-1.7.93-1.99-.56-.25-1.77,1.3-2.11,1.64-.43.45-.9,1.08-1.52,1.22-.06-.28.02-.61-.23-.77h-.06Z"/>
            <path class="cls-11" d="M44.65,41.74c-.61,2.62-1.87,4.76-4.22,6.1,1.05.4,1.91-.36,2.69-.93.79-.57,2.57-.57,3.01-1.47-.32-.04-1.4.31-1.6.09-.11-.12.77-1.13.85-1.48.17-.79-.2-2.36-.73-2.92v.6Z"/>
            <path class="cls-11" d="M31.99,46.64c-.07.86.37,1.7.33,2.6-.04.96-.42,2.05-1.25,2.62-.28.19-.66.41-1.01.22-.26-.14-.24-.59-.67-.53-.32.05-.39.48-.64.64-.3.18-.72.15-1.06.12-.79-.06-1.69-.51-1.9-1.33-.08-.3.12-2.13-.29-2.09-.47.05-.77,2-.77,2.36,0,.66.13,1.55.54,2.09.35.45.92.68,1.5.67.64-.01,1.07-.48,1.7-.5,1.15-.03,1.77,1.31,3.04.83,1.57-.59,1.75-2.24,1.8-3.69.04-1.17-.3-3.22-1.22-4.06-.09-.08-.2-.14-.32-.18l.22.22Z"/>
            <path class="cls-11" d="M21.81,40.86c.01.42-.6,1.02-.82,1.39-.37.6-.66,1.23-.78,1.93-.24,1.39-.14,2.98.52,4.24.51.97,1.07,2.11,1.91,2.85.6.52,1.63,1.38,2.42,1.53-1-1.23-.16-3.43.37-4.68.34-.79,1.12-3.2-.2-3.56-.04.59.19,1.45-.4,1.82-.93-1.29-1.66-2.79-2.48-4.16.03,1.69.78,3.39.65,5.08-.96.05-1.39-2.91-1.47-3.58-.08-.69-.27-2.2.32-2.68l-.05-.16Z"/>
            <path class="cls-11" d="M14.11,42.46c.51,1.65,1.33,3.47,2.74,4.57.72.57,2,1.3,2.93.82.39-.2.31-.6.33-1.09.03-.65-.02-1.3.04-1.94.11-1.2.39-2.71-.52-3.68-.19.41.18,2.69-.84,2.35-.41-.14-1.04-1.37-1.25-1.71-.21-.34-.42-1.1-.88-1.13-.11.47.45,1.15.61,1.6.24.69.33,1.35.31,2.07-.56,0-1.68-.65-2.16-.98-.45-.31-.92-.79-1.25-1.21l-.05.33Z"/>
            <path class="cls-11" d="M20.49,47.68c-.79.05-2.23.23-2.79.87.59.03,1.41.19,1.53.94.14.89-.88.87-1.36,1.2.66-.01,1.48.35.96,1.16-.4.62-1.29.66-1.91.79.27.73,2.81.56,3.5.54,1.15-.03,2.12-.6,3.09-1.16-.68-.76-1.46-1.27-1.93-2.26-.26-.53-.7-2.08-1.09-2.35v.27Z"/>
            <path class="cls-11" d="M9.43,32.17c.26.46-.29,1.05-.55,1.43-.38.55-.51,1.18-.68,1.83-.16.63-.21,1.21-.21,1.86,0,.29-.18,1.15-.04,1.36.19.29,1.29.44,1.63.58.57.23,1.09.58,1.55.98.4.35.85.71,1.22,1.09.35.37.59,1.01.94,1.33.05.05.1.17.14.21.56-1.14.9-3.25.19-4.38-.24.82-.6,1.45-1.39.69-.72-.7-.74-1.89-1.53-2.34-1.7-.97-1.18-2.96-1.17-4.63h-.11Z"/>
            <path class="cls-11" d="M11.02,43.61c1.53,0,3.37.85,3.9,2.42.3.91.03,1.8-.69,2.38,1.07.51,3.22.14,4.2-.42-1.86-.55-3.08-2.13-3.66-3.95-.1-.31-.17-.98-.45-1.16-.34-.22-.89.05-1.2.18-.31.13-.6.39-.91.47-.36.09-.87-.12-1.14.12.07-.02.04-.08.1-.1l-.16.05Z"/>
            <path class="cls-11" d="M14.38,43.01c-.8-.85-2.88.07-3.67.61.76-.01,1.55-.24,2.31-.17.54.05.55.32.87.66.26.28.59.4.81.71.72.99,1.65,2.47.84,3.68.58.09,1.78-.23,2.29-.49-1.06-.25-1.83-1.64-2.33-2.49-.51-.86-.93-1.74-1.17-2.68l.05.16Z"/>
            <path class="cls-11" d="M9.15,33.32c-.13.44-.5.86-.66,1.32-.17.5-.22.97-.27,1.49-.09.83-.22,1.74-.05,2.58,1.12-.05,2.34.79,3.13,1.49.86.77,1.42,1.7,2.19,2.53.32-.55.92-2.61.24-3.02-.04.32-.21,1.01-.67.93-.32-.06-.43-.86-.71-1.09-.36-.29-.93-.38-1.34-.62-.44-.25-.98-.47-1.31-.88-1.02-1.26-.99-3.63-.44-5.06l-.11.33Z"/>
            <path class="cls-11" d="M6.46,30.4c-.21.83-.8,1.49-1.06,2.31-.27.84-.48,1.71-.43,2.6.07,1.26,1.78,1.78,2.52,2.72.3-1.3,1.17-3.19.66-4.55-.34.69-.19,1.58-.87,2.19-.74.66-1.26-.12-1.47-.87-.2-.7-.37-1.66-.25-2.38.09-.5.39-1.66.9-1.69v-.33Z"/>
            <path class="cls-11" d="M4.75,32.06c.23.83.17,2.11-.77,2.42-.62.21-1.7.25-2.24-.17.5.55.55,1.06,1.35,1.22.64.13,1.54.03,2.07.49-.37-.72.22-1.46.13-2.2-.07-.58-.43-1.31-.66-1.82l.11.06Z"/>
            <path class="cls-11" d="M26.1,45.7c.06.2.28.39.28.6,0,.2-.34.6-.43.77-.27.48-.53.98-.77,1.48-.47,1.02-.77,2.18-.36,3.25.37.95.82,1.79,1.94,1.87,1.06.08,1.71-.66,2.65.04.89.66,2.32.92,3.07-.09.78-1.06.89-3.29.33-4.45.02,1-.1,1.87-.6,2.74-.23.4-1.19,1.55-1.76,1.37-.51-.16-.45-1.17-1.17-.82-.27.13-.25.37-.59.43-.16.03-.55-.09-.76-.09-1.21.05-2.06-.28-2.23-1.62-.09-.7-.09-1.45.14-2.12.2-.59.5-1.1.54-1.72.03-.59.03-1.26-.11-1.8-.05-.03-.11-.05-.16-.07v.22Z"/>
          </g>
        </g>
      </g>
    </g>
  </g>
</svg>