<?xml version="1.0" encoding="UTF-8"?>
<svg xmlns="http://www.w3.org/2000/svg" viewBox="0 0 57.61 95.09">
  <defs>
    <style>
      .cls-1 {
        fill: #ffd0ca;
        mix-blend-mode: soft-light;
      }

      .cls-2 {
        fill: #2d2d2d;
      }

      .cls-3 {
        fill: #c46600;
      }

      .cls-4 {
        fill: #ea8000;
      }

      .cls-5 {
        fill: #606060;
      }

      .cls-6 {
        isolation: isolate;
      }

      .cls-7 {
        fill: #ffb948;
      }

      .cls-8 {
        fill: #ed9f2e;
      }
    </style>
  </defs>
  <g class="cls-6">
    <g id="Layer_2">
      <g id="Layer_1-2" data-name="Layer_1">
        <g>
          <path class="cls-7" d="M21.1,0c-1.11-.18-5.22,3.86-4.33,9.18.89,5.32,5.22,9.18,2.55,11.11s-5-5.32-4.56-7.53c-4.55,2.75-3.66,14.05,2.89,16.52h23.88s2.11-1.84,2.22-4.13c.11-2.29-3.67-4.04-1.78-7.71-3.22,1.01-4.67,3.49-4.67,3.49,1.22-5.14-6.44-10.37-6.11-14.87-3.33,2.94-1.67,7.9-3.22,9.09C27.1,6.16,20.32,7.53,21.1,0Z"/>
          <path class="cls-4" d="M18.43,22.59c-.33,2.39.55,6.7,2.67,7.71h16.44s2.11-2.94,1.78-6.24c-2.22,2.57-4.33,3.49-5.44,3.49,1.55-2.94-1-4.04-.89-7.89-3.22.37-1.56,4.13-2.44,5.78-2-2.02-6.44-5.97-5.11-8.91-2.66,2.94-.55,9.18-2.78,9.73-2.22.55-4.22-3.67-4.22-3.67Z"/>
          <g>
            <g>
              <g>
                <path class="cls-8" d="M10.68,63l1.67-1.69c.35.35,1.14.17,1.58-.06.6-.32,1.13-1.29.78-3.04-.36-1.84-1.49-2.71-3.8-4.34-1.94-1.37-4.34-3.06-6.8-6.15C-1.38,40.82.19,31.51.26,31.11l.24-1.38h9.55s-.21,4.34,4.91,4.91v3.33c-3.38,0-6.7-2.47-7.83-4.91h-2.5c-.18,2.58-1.33,8.28,2.09,12.57,2.16,2.71,4.26,4.19,6.11,5.5,2.42,1.71,4.51,3.18,5.15,6.42.69,3.54-.83,5.74-2.49,6.62-.67.36-3.27.9-4.82-1.19Z"/>
                <path class="cls-3" d="M12.84,51.14c-1.85-1.31-3.96-2.79-6.11-5.5-3.42-4.3-2.27-9.99-2.09-12.57h2.5c1.14,2.43,4.45,4.91,7.83,4.91v-1.67c-3.43,0-6.58-3.15-6.58-4.91H1.9s-1.58,8.89,3.52,15.28c5.09,6.39,10,6.48,10.93,11.21.93,4.72-2.96,6.3-4.91,4.35h0s-.76.77-.76.77c1.55,2.08,4.15,1.54,4.82,1.19,1.66-.88,3.18-3.09,2.49-6.62-.64-3.24-2.73-4.71-5.15-6.42Z"/>
                <path class="cls-4" d="M13.8,61.68c0,1.13-.91,2.04-2.04,2.04s-2.04-.91-2.04-2.04.91-2.04,2.04-2.04,2.04.91,2.04,2.04Z"/>
                <circle class="cls-8" cx="11.76" cy="61.68" r="1.25"/>
              </g>
              <g>
                <path class="cls-8" d="M46.93,63l-1.67-1.69c-.35.35-1.14.17-1.59-.06-.6-.32-1.13-1.29-.78-3.04.36-1.84,1.49-2.71,3.8-4.34,1.94-1.37,4.34-3.06,6.8-6.15,5.5-6.9,3.93-16.22,3.86-16.61l-.24-1.38h-9.55s.21,4.34-4.91,4.91v3.33c3.38,0,6.7-2.47,7.83-4.91h2.5c.18,2.58,1.33,8.28-2.09,12.57-2.16,2.71-4.26,4.19-6.11,5.5-2.42,1.71-4.51,3.18-5.15,6.42-.69,3.54.83,5.74,2.49,6.62.67.36,3.27.9,4.82-1.19Z"/>
                <path class="cls-3" d="M44.77,51.14c1.85-1.31,3.95-2.79,6.11-5.5,3.43-4.3,2.27-9.99,2.09-12.57h-2.5c-1.13,2.43-4.45,4.91-7.83,4.91v-1.67c3.43,0,6.57-3.15,6.57-4.91h6.48s1.57,8.89-3.52,15.28c-5.09,6.39-10,6.48-10.93,11.21-.93,4.72,2.96,6.3,4.91,4.35h0s.76.77.76.77c-1.55,2.08-4.15,1.54-4.82,1.19-1.66-.88-3.18-3.09-2.49-6.62.64-3.24,2.73-4.71,5.15-6.42Z"/>
                <path class="cls-4" d="M43.8,61.68c0,1.13.91,2.04,2.04,2.04s2.04-.91,2.04-2.04-.91-2.04-2.04-2.04-2.04.91-2.04,2.04Z"/>
                <path class="cls-8" d="M44.59,61.68c0,.69.56,1.25,1.25,1.25s1.25-.56,1.25-1.25-.56-1.25-1.25-1.25-1.25.56-1.25,1.25Z"/>
              </g>
            </g>
            <path class="cls-4" d="M30.62,69.84v-6.77h-3.64v6.77c0,3.98-4.28,7.35-6.33,8.44v.37h16.3v-.37c-2.05-1.08-6.33-4.46-6.33-8.44Z"/>
            <path class="cls-8" d="M20.65,78.28v.37h16.3v-.37c-1.95-1.03-5.92-4.14-6.29-7.87h-3.71c-.38,3.73-4.34,6.84-6.29,7.87Z"/>
            <rect class="cls-4" x="18.38" y="77.35" width="20.84" height="1.94"/>
            <path class="cls-4" d="M12.61,30.38c-.03.9-.06,1.8-.06,2.72,0,18.91,7.27,34.23,16.24,34.23s16.24-15.33,16.24-34.23c0-.92-.02-1.82-.06-2.72H12.61Z"/>
            <path class="cls-2" d="M42.9,93.88v-12.22c0-1.53-1.25-2.78-2.78-2.78h-22.64c-1.53,0-2.78,1.25-2.78,2.78v12.22h28.2Z"/>
            <rect x="14.7" y="91.52" width="28.2" height="2.36"/>
            <rect class="cls-5" x="13.11" y="92.82" width="31.39" height="2.27"/>
            <g>
              <path class="cls-7" d="M34.31,85.3c0,3.04-2.47,5.51-5.51,5.51s-5.51-2.47-5.51-5.51,2.47-5.51,5.51-5.51,5.51,2.47,5.51,5.51Z"/>
              <path class="cls-4" d="M33.38,85.3c0,2.53-2.05,4.58-4.58,4.58s-4.58-2.05-4.58-4.58,2.05-4.58,4.58-4.58,4.58,2.05,4.58,4.58Z"/>
              <g>
                <path class="cls-7" d="M29.11,81.31c0,.17-.14.31-.31.31s-.31-.14-.31-.31.14-.31.31-.31.31.14.31.31Z"/>
                <path class="cls-7" d="M29.11,89.29c0-.17-.14-.31-.31-.31s-.31.14-.31.31.14.31.31.31.31-.14.31-.31Z"/>
                <path class="cls-7" d="M32.79,85.61c-.17,0-.31-.14-.31-.31s.14-.31.31-.31.31.14.31.31-.14.31-.31.31Z"/>
                <path class="cls-7" d="M24.81,85.61c.17,0,.31-.14.31-.31s-.14-.31-.31-.31-.31.14-.31.31.14.31.31.31Z"/>
                <path class="cls-7" d="M26.2,82.26c.12.12.12.31,0,.43-.12.12-.31.12-.43,0-.12-.12-.12-.31,0-.43.12-.12.31-.12.43,0Z"/>
                <path class="cls-7" d="M31.84,87.91c-.12-.12-.31-.12-.43,0-.12.12-.12.31,0,.43.12.12.31.12.43,0,.12-.12.12-.31,0-.43Z"/>
                <path class="cls-7" d="M31.84,82.7c-.12.12-.31.12-.43,0-.12-.12-.12-.31,0-.43.12-.12.31-.12.43,0,.12.12.12.31,0,.43Z"/>
                <path class="cls-7" d="M26.2,88.34c.12-.12.12-.31,0-.43-.12-.12-.31-.12-.43,0-.12.12-.12.31,0,.43.12.12.31.12.43,0Z"/>
                <path class="cls-7" d="M28.07,81.37c.04.16-.05.33-.21.38-.16.04-.33-.05-.38-.22-.04-.16.05-.33.22-.37.16-.04.33.05.37.22Z"/>
                <path class="cls-7" d="M30.13,89.08c-.04-.16-.21-.26-.37-.22-.16.04-.26.21-.22.38.04.16.21.26.37.22.16-.04.26-.21.22-.37Z"/>
                <path class="cls-7" d="M32.73,84.56c-.16.04-.33-.05-.37-.22-.04-.16.05-.33.22-.37.16-.04.33.05.37.22.04.16-.05.33-.21.37Z"/>
                <path class="cls-7" d="M25.03,86.63c.16-.04.26-.21.21-.37-.04-.16-.21-.26-.37-.22-.16.04-.26.21-.22.37.04.16.21.26.38.22Z"/>
                <path class="cls-7" d="M25.5,83.04c.15.08.2.27.11.42-.09.15-.27.2-.42.11-.15-.08-.2-.27-.11-.42.08-.15.27-.2.42-.11Z"/>
                <path class="cls-7" d="M32.41,87.03c-.15-.08-.33-.03-.42.11-.08.15-.03.33.11.42.15.09.33.04.42-.11.08-.15.04-.33-.11-.42Z"/>
                <path class="cls-7" d="M31.06,82c-.08.15-.27.2-.42.11-.15-.08-.2-.27-.11-.42.08-.15.27-.2.42-.11.15.08.2.27.11.42Z"/>
                <path class="cls-7" d="M27.07,88.91c.08-.15.04-.33-.11-.42-.15-.09-.33-.04-.42.11-.08.15-.03.33.11.42.14.08.33.03.42-.11Z"/>
                <path class="cls-7" d="M27.07,81.7c.08.15.04.33-.11.42-.15.08-.33.04-.42-.11-.08-.15-.03-.33.11-.42.14-.08.33-.03.42.11Z"/>
                <path class="cls-7" d="M31.06,88.6c-.08-.15-.27-.2-.42-.11-.15.08-.2.27-.11.42.08.15.27.2.42.11.15-.08.2-.27.11-.42Z"/>
                <path class="cls-7" d="M32.41,83.57c-.15.09-.33.04-.42-.11s-.03-.33.11-.42c.15-.08.33-.03.42.11.08.15.04.33-.11.42Z"/>
                <path class="cls-7" d="M25.5,87.56c.15-.08.2-.27.11-.42-.09-.15-.27-.2-.42-.11-.15.09-.2.27-.11.42.08.15.27.2.42.11Z"/>
                <path class="cls-7" d="M25.03,83.97c.16.04.26.21.21.37-.04.16-.21.26-.37.22-.16-.04-.26-.21-.22-.37.04-.16.21-.26.38-.22Z"/>
                <path class="cls-7" d="M32.73,86.04c-.16-.04-.33.05-.37.22-.04.16.05.33.22.37.16.04.33-.05.37-.22.04-.16-.05-.33-.21-.37Z"/>
                <path class="cls-7" d="M30.13,81.53c-.04.16-.21.26-.37.22-.16-.04-.26-.21-.22-.38.04-.16.21-.26.37-.22.16.04.26.21.22.37Z"/>
                <path class="cls-7" d="M28.07,89.23c.04-.16-.05-.33-.21-.38-.16-.04-.33.05-.38.22-.04.16.05.33.22.37.16.04.33-.05.37-.22Z"/>
              </g>
              <path class="cls-7" d="M27.11,83.53c.43-.21.78-.34,1.33-1h1.35v4.31h.71v1.01h-3.04v-1.01h.76v-2.82l-.76.36-.35-.85Z"/>
              <path class="cls-1" d="M24.91,81.4l7.79,7.79c.8-.81,1.36-1.86,1.54-3.04l-6.29-6.29c-1.18.18-2.23.73-3.04,1.54Z"/>
              <path class="cls-1" d="M23.79,83.03l7.29,7.29c.45-.2.87-.46,1.24-.78l-7.76-7.76c-.31.38-.57.79-.77,1.24Z"/>
            </g>
            <path class="cls-1" d="M12.83,39.27c.11,1.3.26,2.57.44,3.82l21.69,21.69c.58-.5,1.14-1.07,1.68-1.7l-23.81-23.81Z"/>
            <path class="cls-1" d="M19.03,28.72l23.3,23.3c.8-2.54,1.44-5.32,1.9-8.28l-15.02-15.02h-10.19Z"/>
            <path class="cls-1" d="M40.63,56.56c.34-.77.67-1.57.98-2.4l-25.44-25.44h-2.22c-.33,0-.64.09-.92.24l27.6,27.6Z"/>
            <path class="cls-8" d="M45.63,31.22v-.53c0-1.09-.89-1.97-1.97-1.97H13.95c-1.08,0-1.97.89-1.97,1.97v.53h33.66Z"/>
            <path class="cls-3" d="M11.97,30.69v.53h33.66v-.53c0-.22-.05-.43-.11-.63H12.09c-.07.2-.11.41-.11.63Z"/>
            <path class="cls-3" d="M28.8,62.25c-5.29,0-10.02-3.6-13.22-9.27,2.95,8.69,7.77,14.36,13.22,14.36s10.27-5.67,13.22-14.35c-3.2,5.67-7.94,9.27-13.22,9.27Z"/>
          </g>
        </g>
      </g>
    </g>
  </g>
</svg>