<svg width="908" height="916" viewBox="0 0 908 916" fill="none" xmlns="http://www.w3.org/2000/svg">
<g clip-path="url(#clip0_872_914)">
<path d="M98.1689 916C98.1689 916 176.242 693.632 226.365 693.171C276.489 692.71 330.308 853.027 373.502 853.027C400.297 853.027 450.882 750.147 489.226 747.379C541.197 743.457 583.467 900.315 616.96 886.705C644.909 875.402 692.723 708.626 739.382 704.705C779.342 701.244 844.249 916.231 844.249 916.231H98.1689V916Z" fill="url(#paint0_linear_872_914)"/>
<path d="M8.77733 547.386H455.27C455.27 547.386 408.149 499.867 350.172 480.722C292.426 461.576 279.26 516.245 279.26 516.245C279.26 516.245 222.9 427.206 151.526 415.672C57.977 400.678 74.3769 522.012 74.3769 522.012C74.3769 522.012 44.1179 505.404 18.9406 506.557C2.30976 507.249 -8.54651 521.781 8.77733 547.386Z" fill="url(#paint1_linear_872_914)"/>
<path d="M474.211 309.332H908C908 309.332 862.034 263.198 805.905 244.513C749.776 226.059 736.841 278.883 736.841 278.883C736.841 278.883 682.097 192.381 612.571 181.309C521.563 166.777 537.732 284.419 537.732 284.419C537.732 284.419 508.166 268.272 483.913 269.426C467.975 270.348 457.58 284.65 474.211 309.332Z" fill="url(#paint2_linear_872_914)"/>
<path d="M71.6053 275.654C77.601 275.654 82.4616 270.8 82.4616 264.812C82.4616 258.825 77.601 253.971 71.6053 253.971C65.6095 253.971 60.749 258.825 60.749 264.812C60.749 270.8 65.6095 275.654 71.6053 275.654Z" fill="url(#paint3_linear_872_914)"/>
<path d="M612.109 692.478C612.109 698.476 607.258 703.32 601.253 703.32C595.247 703.32 590.396 698.476 590.396 692.478C590.396 686.481 595.247 681.637 601.253 681.637C607.258 681.637 612.109 686.481 612.109 692.478Z" fill="url(#paint4_linear_872_914)"/>
<path d="M214.585 67.8182C214.585 70.8169 212.275 73.1236 209.273 73.1236C206.27 73.1236 203.96 70.8169 203.96 67.8182C203.96 64.8194 206.27 62.5127 209.273 62.5127C212.275 62.5127 214.585 64.8194 214.585 67.8182Z" fill="url(#paint5_linear_872_914)"/>
<path d="M22.4061 123.41C22.4061 126.409 20.0962 128.715 17.0934 128.715C14.0906 128.715 11.5498 126.409 11.5498 123.41C11.5498 120.411 13.8596 118.104 16.8624 118.104C19.8652 118.104 22.4061 120.411 22.4061 123.41Z" fill="url(#paint6_linear_872_914)"/>
<path d="M718.825 454.425C718.825 457.423 716.515 459.73 713.512 459.73C710.509 459.73 708.199 457.423 708.199 454.425C708.199 451.426 710.509 449.119 713.512 449.119C716.515 448.888 718.825 451.426 718.825 454.425Z" fill="url(#paint7_linear_872_914)"/>
<path d="M763.173 172.773C763.173 178.771 758.323 183.615 752.317 183.615C746.312 183.615 741.461 178.771 741.461 172.773C741.461 166.776 746.312 161.932 752.317 161.932C758.323 161.932 763.173 166.776 763.173 172.773Z" fill="url(#paint8_linear_872_914)"/>
<path d="M689.027 6.45883C689.027 9.91891 686.255 12.9177 682.559 12.9177C678.864 12.9177 676.092 10.1496 676.092 6.45883C676.092 2.76807 678.864 0 682.559 0C686.255 0 689.027 2.76807 689.027 6.45883Z" fill="url(#paint9_linear_872_914)"/>
<path d="M836.627 603.208C836.627 609.205 831.776 614.049 825.77 614.049C819.765 614.049 814.914 609.205 814.914 603.208C814.914 597.21 819.765 592.366 825.77 592.366C831.776 592.366 836.627 597.21 836.627 603.208Z" fill="url(#paint10_linear_872_914)"/>
<path d="M78.304 760.758C82.0035 760.758 85.0026 757.763 85.0026 754.068C85.0026 750.374 82.0035 747.379 78.304 747.379C74.6045 747.379 71.6055 750.374 71.6055 754.068C71.6055 757.763 74.6045 760.758 78.304 760.758Z" fill="url(#paint11_linear_872_914)"/>
<path d="M855.105 789.822C855.105 793.513 852.102 796.512 848.407 796.512C844.711 796.512 841.708 793.513 841.708 789.822C841.708 786.132 844.711 783.133 848.407 783.133C852.102 783.133 855.105 786.132 855.105 789.822Z" fill="url(#paint12_linear_872_914)"/>
<path d="M704.503 850.259C736.906 850.259 763.173 824.027 763.173 791.668C763.173 759.309 736.906 733.077 704.503 733.077C672.1 733.077 645.833 759.309 645.833 791.668C645.833 824.027 672.1 850.259 704.503 850.259Z" fill="url(#paint13_linear_872_914)"/>
<g opacity="0.6">
<path d="M763.173 790.053C752.548 782.441 731.066 767.908 713.512 760.988C697.343 754.529 677.247 750.377 665.467 748.07C674.244 740.228 685.562 734.922 698.036 733.538C702.193 739.536 707.044 746.225 712.357 749.916C729.68 762.833 746.542 765.602 757.861 767.216C761.094 774.136 762.942 781.979 763.173 790.053Z" fill="url(#paint14_linear_872_914)"/>
<path d="M740.537 838.032C738.92 839.186 737.303 840.339 735.686 841.262C730.373 829.728 715.359 799.049 699.422 790.975C682.791 782.671 676.785 828.344 675.399 842.646C666.622 837.571 659.23 830.42 653.918 821.655C658.306 810.121 668.008 794.666 666.853 784.286C665.698 773.905 657.844 766.293 653.225 762.603C654.38 760.526 655.534 758.681 656.92 757.066C662.002 759.142 682.56 768.139 701.731 783.132C719.055 796.511 734.531 826.037 740.537 838.032Z" fill="url(#paint15_linear_872_914)"/>
<path d="M759.477 811.967C757.86 816.58 755.55 820.963 752.779 824.884C747.697 815.196 738.688 799.741 729.449 791.667C716.052 780.364 742.615 788.669 759.477 811.967Z" fill="url(#paint16_linear_872_914)"/>
</g>
<path d="M725.292 853.488C725.292 852.565 724.83 851.642 724.137 850.95C722.751 849.566 720.441 849.566 719.055 850.95L708.199 861.792V793.513C708.199 791.437 706.582 789.822 704.503 789.822C702.424 789.822 700.808 791.437 700.808 793.513V811.275L689.027 799.511C688.334 798.819 687.41 798.357 686.487 798.357C685.563 798.357 684.639 798.819 683.946 799.511C682.56 800.895 682.56 803.201 683.946 804.585L701.039 821.655V916H708.43V871.942L724.368 856.025C724.83 855.333 725.292 854.411 725.292 853.488Z" fill="#282734"/>
<path d="M671.703 864.561C674.475 896.855 697.342 890.165 697.342 890.165C697.342 890.165 703.81 867.098 671.703 864.561Z" fill="url(#paint17_linear_872_914)"/>
<path d="M169.081 865.944C193.83 865.944 213.892 845.909 213.892 821.194C213.892 796.479 193.83 776.443 169.081 776.443C144.333 776.443 124.271 796.479 124.271 821.194C124.271 845.909 144.333 865.944 169.081 865.944Z" fill="url(#paint18_linear_872_914)"/>
<g opacity="0.6">
<path d="M141.132 856.256C138.822 854.411 136.512 852.104 134.664 849.797C144.366 838.956 169.081 809.199 157.07 804.585C152.681 802.971 140.439 821.424 125.656 832.727C124.732 829.037 124.039 825.346 124.039 821.194C139.746 808.045 146.445 791.206 149.447 780.826C154.76 778.289 160.535 776.674 166.771 776.443C172.546 815.196 148.985 848.182 141.132 856.256Z" fill="url(#paint19_linear_872_914)"/>
<path d="M207.656 798.588C200.726 814.504 174.394 848.874 149.448 861.331C148.062 860.638 146.676 859.946 145.29 859.024C150.603 855.794 186.867 832.266 193.104 783.363C199.109 787.285 204.191 792.59 207.656 798.588Z" fill="url(#paint20_linear_872_914)"/>
<path d="M181.323 864.098C177.397 865.252 173.239 865.713 169.081 865.713C167.464 865.713 166.078 865.713 164.692 865.482C173.008 861.1 190.794 849.797 203.267 833.188C208.348 826.499 208.81 823.039 209.734 822.808C213.43 821.885 202.805 847.951 181.323 864.098Z" fill="url(#paint21_linear_872_914)"/>
</g>
<path d="M153.144 849.105C153.144 848.413 153.375 847.721 154.067 847.259C155.222 846.106 156.839 846.106 157.994 847.259L166.31 855.564V822.808C166.31 821.193 167.465 820.04 169.081 820.04C170.698 820.04 171.853 821.193 171.853 822.808V836.418L180.862 827.422C181.324 826.96 182.017 826.499 182.941 826.499C183.633 826.499 184.326 826.73 184.788 827.422C185.943 828.575 185.943 830.19 184.788 831.343L171.853 844.261V916.23H166.31V863.406L154.067 851.181C153.375 850.489 153.144 849.797 153.144 849.105Z" fill="#282734"/>
<path d="M194.027 868.943C169.543 871.019 174.625 888.32 174.625 888.32C174.625 888.32 192.18 893.395 194.027 868.943Z" fill="url(#paint22_linear_872_914)"/>
<path d="M523.873 878.17C542.498 878.17 557.597 863.092 557.597 844.492C557.597 825.892 542.498 810.813 523.873 810.813C505.248 810.813 490.149 825.892 490.149 844.492C490.149 863.092 505.248 878.17 523.873 878.17Z" fill="url(#paint23_linear_872_914)"/>
<g opacity="0.6">
<path d="M557.597 844.722C557.597 848.644 556.904 852.565 555.749 856.025C547.664 851.412 526.876 837.571 512.555 813.12C513.941 812.659 515.096 812.197 516.481 811.967C523.411 821.194 538.194 838.263 557.597 844.261C557.597 844.261 557.597 844.492 557.597 844.722Z" fill="url(#paint24_linear_872_914)"/>
<path d="M551.36 864.329C548.358 868.481 544.431 871.941 540.042 874.248C538.887 868.02 535.422 855.102 524.104 842.646C514.634 832.266 501.93 830.651 493.152 831.343C495 826.96 497.772 823.269 501.006 820.04C512.324 827.883 537.501 846.337 551.36 864.329Z" fill="url(#paint25_linear_872_914)"/>
<path d="M533.344 877.016C530.341 877.939 527.107 878.4 523.873 878.4C505.163 878.4 490.149 863.407 490.149 844.722C490.149 843.338 490.149 842.185 490.38 840.801C498.927 843.108 522.025 852.104 533.344 877.016Z" fill="url(#paint26_linear_872_914)"/>
</g>
<path d="M545.124 856.487C545.586 856.025 545.817 855.564 545.817 855.103C545.817 854.641 545.586 853.949 545.124 853.719C544.2 852.796 543.045 852.796 542.121 853.719L525.952 869.635V831.574C525.952 830.421 525.028 829.498 523.874 829.498C522.719 829.498 521.795 830.421 521.795 831.574V855.795L514.865 848.875C514.403 848.413 513.941 848.183 513.479 848.183C513.017 848.183 512.324 848.413 512.093 848.875C511.169 849.797 511.169 850.951 512.093 851.873L521.795 861.561V915.77H525.952V900.084L536.809 889.242C537.271 888.781 537.502 888.319 537.502 887.858C537.502 887.397 537.271 886.705 536.809 886.474C535.885 885.551 534.73 885.551 533.806 886.474L525.952 894.317V875.402L545.124 856.487Z" fill="#282734"/>
<path d="M471.439 417.287C471.439 417.287 437.947 426.745 424.55 409.675C422.933 407.599 421.778 405.753 420.854 403.908C420.161 402.755 419.699 401.371 419.468 400.217C419.468 399.987 419.237 399.525 419.237 399.295C419.006 398.372 418.775 397.449 418.775 396.527C418.775 395.835 418.544 395.373 418.544 394.681C418.544 393.759 418.544 393.066 418.544 392.374C423.164 388.453 425.935 382.917 427.321 379.688L465.896 380.841H466.127C466.127 380.841 459.659 396.988 458.735 402.985C458.273 408.983 471.439 417.287 471.439 417.287Z" fill="#F39C94"/>
<path d="M465.203 380.61C463.355 384.532 450.651 410.136 420.854 403.908C420.161 402.755 419.699 401.371 419.468 400.217C419.468 399.987 419.237 399.525 419.237 399.295C419.006 398.372 418.775 397.449 418.775 396.527C418.775 395.835 418.544 395.373 418.544 394.681C418.544 393.759 418.544 393.066 418.544 392.374C423.164 388.453 425.935 382.917 427.321 379.688L465.203 380.61Z" fill="#F39C94"/>
<path d="M611.417 500.328C611.417 500.328 613.034 496.638 612.572 493.87C612.11 491.102 607.952 490.179 607.952 490.179C607.952 490.179 610.031 486.488 607.952 483.951C605.873 481.413 600.329 481.875 600.329 481.875C600.329 481.875 599.175 480.491 597.789 479.337C596.403 478.184 592.245 476.108 588.318 479.337C584.392 482.567 576.538 498.483 576.538 498.483C563.141 500.79 533.113 506.557 513.71 513.015C506.55 495.023 500.313 476.8 500.313 476.8L465.435 498.252C465.435 498.252 479.063 547.155 494.77 547.616C519.716 548.539 565.22 523.626 580.927 514.399C580.927 514.399 599.637 516.706 607.952 513.246C610.262 512.323 609.8 508.633 609.8 508.633C609.8 508.633 612.11 506.787 612.572 503.788C613.034 501.02 611.417 500.328 611.417 500.328Z" fill="#F39C94"/>
<path d="M406.764 205.068C403.992 206.683 402.837 210.835 400.989 212.45C400.066 213.372 397.525 214.987 395.446 216.14L398.449 203.684C398.449 203.684 402.606 194.919 403.53 191.92C405.378 185.461 400.527 183.846 398.911 185.692C397.987 186.845 393.136 194.457 391.75 197.456C392.443 193.765 394.753 181.54 394.984 178.771C395.446 172.313 390.364 171.851 389.209 174.389C388.054 176.926 385.975 183.385 384.59 187.537C385.052 185.461 385.283 182.001 385.513 180.155C386.206 172.774 381.356 172.082 379.97 174.389C378.584 176.926 376.736 183.385 375.581 188.69C375.35 189.844 374.657 194.457 374.195 200.916C373.964 197.456 373.733 193.765 373.502 191.228C373.502 190.997 373.502 190.766 373.502 190.536C376.505 177.157 372.116 177.618 370.5 179.463C368.883 181.54 365.88 189.382 365.649 191.458C365.649 192.381 363.108 203.453 363.57 214.526C364.032 225.598 366.573 233.671 366.573 233.671C366.573 233.671 338.855 289.725 336.314 338.397C335.39 355.466 380.432 422.823 380.432 422.823C380.432 422.823 405.84 391.913 392.674 356.851L373.733 331.246C373.733 331.246 387.13 242.898 390.364 238.746C390.364 238.746 405.84 223.061 408.15 220.062C410.46 217.063 409.998 217.294 411.384 211.066C412.77 204.376 409.305 203.453 406.764 205.068Z" fill="#F39C94"/>
<path d="M348.787 580.141C348.787 580.141 347.401 589.138 364.494 592.136C381.587 595.135 375.812 559.842 375.812 559.842C375.812 559.842 369.575 558.689 367.266 560.073C364.956 561.457 352.713 568.608 348.787 580.141Z" fill="url(#paint27_linear_872_914)"/>
<path d="M348.787 580.141C348.787 580.141 347.401 589.138 364.494 592.136C381.587 595.135 375.812 559.842 375.812 559.842C375.812 559.842 369.575 558.689 367.266 560.073C364.956 561.457 352.713 568.608 348.787 580.141Z" fill="url(#paint28_linear_872_914)"/>
<path d="M476.291 689.941C476.291 689.941 471.209 706.55 467.513 714.854L448.342 704.474C448.342 704.474 453.654 680.484 453.192 672.872C452.73 665.259 478.139 673.333 476.291 689.941Z" fill="#F39C94"/>
<path d="M414.386 810.813L415.772 828.575L394.984 836.649L388.747 810.813H414.386Z" fill="#F39C94"/>
<path d="M501.468 574.605L457.119 582.448C457.119 582.448 439.795 600.902 424.55 615.665C420.854 656.725 402.837 713.701 402.837 713.701C402.837 713.701 409.998 730.54 412.077 754.761C414.155 778.981 416.927 814.043 416.927 814.043L387.823 825.346C387.823 825.346 363.57 721.082 362.184 708.857C360.336 690.172 359.412 615.434 359.181 579.911C359.181 568.377 358.95 560.765 358.95 560.765C358.95 560.765 390.826 538.39 422.009 534.468C434.02 532.854 453.423 534.007 468.437 538.159C473.75 539.543 478.369 541.389 482.065 543.695C493.845 551.307 501.468 574.605 501.468 574.605Z" fill="url(#paint29_linear_872_914)"/>
<path d="M468.437 538.851C401.914 534.93 358.951 580.141 358.951 580.141C358.951 568.608 358.72 560.995 358.72 560.995C358.72 560.995 390.596 538.62 421.778 534.699C433.79 533.084 453.192 534.237 468.206 538.39L468.437 538.851Z" fill="url(#paint30_linear_872_914)"/>
<path d="M358.951 531.469C346.939 578.296 349.018 580.141 349.018 580.141C349.018 580.141 374.658 545.309 442.567 538.389C469.823 535.621 482.065 543.925 482.065 543.925L475.598 507.018C479.294 506.787 482.296 506.095 485.068 505.403C504.24 500.098 505.164 484.873 505.164 484.873C505.164 484.873 493.153 443.583 487.84 434.356C479.987 420.977 461.739 405.061 461.739 405.061C448.342 415.21 439.333 413.596 432.404 410.135C418.314 403.215 421.316 381.993 421.316 381.993L388.979 348.546C357.565 368.153 355.024 388.222 354.793 390.298C361.261 403.677 366.573 412.673 373.965 429.743C374.889 438.508 365.649 504.942 358.951 531.469Z" fill="url(#paint31_linear_872_914)"/>
<path opacity="0.5" d="M464.51 454.425C467.744 468.265 475.597 507.249 475.597 507.249C479.293 507.018 482.296 506.326 485.067 505.634L464.51 454.425Z" fill="url(#paint32_linear_872_914)"/>
<path d="M414.155 671.949C418.544 654.187 422.702 633.427 424.319 615.665C439.795 600.902 457.118 582.448 457.118 582.448H457.349L468.668 555.921C468.668 555.921 449.727 567.455 442.566 573.221C435.406 579.219 425.243 590.752 425.243 590.752L420.392 575.297L414.155 671.949Z" fill="url(#paint33_linear_872_914)"/>
<path d="M476.059 552.461C488.532 549.693 503.546 560.304 504.47 569.761C506.318 586.831 504.239 605.977 500.543 624.2C493.152 660.877 479.524 693.171 479.524 693.171L447.417 684.175C447.417 684.175 450.189 661.569 450.651 635.272C450.882 620.509 447.648 601.363 447.417 590.06C447.417 577.835 458.735 556.152 476.059 552.461Z" fill="url(#paint34_linear_872_914)"/>
<path d="M480.448 319.712C480.448 319.712 492.228 332.399 484.837 357.542C479.524 375.766 455.271 395.603 431.71 387.991C407.457 380.148 418.082 335.859 430.325 320.635C442.567 305.41 470.285 306.333 480.448 319.712Z" fill="#F39C94"/>
<path d="M415.772 828.575L394.984 836.649C394.984 836.649 392.674 853.026 390.595 865.252C390.595 865.252 387.361 872.634 386.899 882.091C386.668 885.321 388.747 888.55 393.136 890.626C400.989 881.63 433.327 842.877 433.327 842.877C433.327 842.877 430.555 838.494 427.783 834.111C424.781 829.959 415.772 828.575 415.772 828.575Z" fill="url(#paint35_linear_872_914)"/>
<path d="M470.977 718.314C471.67 715.776 472.132 710.471 471.439 707.011C470.746 702.628 469.361 698.015 463.124 694.324C451.806 687.404 440.718 693.863 436.33 703.089L434.713 708.856L468.668 725.465L470.977 718.314Z" fill="url(#paint36_linear_872_914)"/>
<path d="M456.195 704.012C456.195 704.012 472.364 713.008 468.899 725.465C465.434 738.152 449.034 748.993 440.95 739.536C432.865 730.078 439.564 724.773 435.406 715.084C431.248 705.627 441.412 697.092 456.195 704.012Z" fill="url(#paint37_linear_872_914)"/>
<path d="M456.195 704.012C456.195 704.012 472.364 713.008 468.899 725.465C465.434 738.152 449.034 748.993 440.95 739.536C432.865 730.078 439.564 724.773 435.406 715.084C431.248 705.627 441.412 697.092 456.195 704.012Z" fill="url(#paint38_linear_872_914)"/>
<path d="M421.778 337.935C416.003 329.17 425.936 313.253 425.936 313.253C422.009 302.873 428.939 289.955 430.555 294.338C432.403 299.644 435.175 300.566 435.175 300.566C437.023 289.263 447.879 279.114 448.11 284.419C448.572 293.877 454.347 296.414 454.347 296.414C455.271 290.186 467.744 274.039 470.054 283.266C472.364 292.262 486.223 299.182 491.073 312.1C494.538 321.327 492.459 325.94 492.459 325.94C492.459 325.94 506.318 334.706 500.082 351.776C493.845 369.076 479.524 369.076 479.524 369.537L472.364 363.079L476.983 354.313C476.983 354.313 471.44 350.161 471.902 337.705C471.902 337.705 449.958 315.099 434.482 319.943C426.398 323.864 421.778 337.935 421.778 337.935Z" fill="url(#paint39_linear_872_914)"/>
<path d="M475.136 365.616C477.446 363.309 484.375 359.618 488.302 364.924C492.691 371.152 481.834 380.61 476.291 380.84C470.978 381.071 469.361 378.534 469.361 375.996C469.361 372.767 472.826 367.923 475.136 365.616Z" fill="#F39C94"/>
<path opacity="0.5" d="M373.964 430.435C372.117 426.283 370.5 422.823 368.883 419.362C374.195 410.828 370.038 394.45 372.81 403.677C375.581 413.134 373.964 430.435 373.964 430.435Z" fill="url(#paint40_linear_872_914)"/>
<path d="M598.943 507.71C603.563 507.71 610.492 501.021 610.492 501.021C610.492 501.021 603.794 505.634 600.098 506.326C597.326 506.788 596.864 502.636 596.864 501.482C599.405 500.79 602.177 498.484 603.794 497.099C604.025 496.869 604.487 496.869 604.718 496.638C605.411 495.946 605.642 495.023 605.411 494.331C604.949 490.641 603.332 486.95 601.022 483.951C602.177 487.411 605.411 493.87 603.332 495.485C601.253 497.099 595.247 495.254 592.014 489.487C593.4 494.101 598.019 497.1 601.484 497.33C600.56 498.253 598.25 500.098 596.633 500.098C594.093 500.329 592.938 496.638 593.169 495.485C592.245 495.485 592.245 498.484 593.631 500.329C594.093 501.021 594.555 501.252 595.248 501.252C594.786 502.636 595.478 504.942 596.402 506.096C596.633 506.557 597.095 506.788 597.326 507.018C597.095 508.402 597.557 510.248 598.25 511.401C601.253 516.245 609.107 509.094 609.107 509.094C609.107 509.094 604.487 511.863 601.946 512.093C599.867 512.785 598.481 509.556 598.943 507.71Z" fill="#F39C94"/>
<path d="M372.81 331.246C372.81 331.246 362.185 327.555 354.331 335.168C354.331 335.168 360.799 332.399 372.81 331.246Z" fill="#F39C94"/>
<path d="M424.319 360.541L440.257 368.384C440.257 368.384 436.33 375.073 428.708 372.305C421.085 369.537 424.319 360.541 424.319 360.541Z" fill="white"/>
<path d="M437.023 335.86C438.64 336.09 439.564 334.476 439.102 333.322C438.871 332.169 434.251 330.785 431.479 331.016C428.708 331.016 427.091 331.938 427.322 332.63C427.553 333.092 430.555 333.092 432.865 334.014C434.944 334.937 436.099 335.86 437.023 335.86Z" fill="url(#paint41_linear_872_914)"/>
<path d="M433.327 337.705C432.865 337.244 431.248 337.013 430.325 338.166C428.939 340.012 429.401 342.78 431.017 342.78C433.327 342.549 434.482 338.628 433.327 337.705Z" fill="url(#paint42_linear_872_914)"/>
<path d="M451.344 342.088C450.189 340.704 451.344 339.32 452.268 338.858C453.423 338.628 456.887 341.626 458.504 343.933C460.121 346.24 460.121 348.316 459.428 348.316C458.966 348.316 457.349 345.778 455.271 344.394C453.423 343.01 452.037 342.78 451.344 342.088Z" fill="url(#paint43_linear_872_914)"/>
<path d="M451.806 345.778C452.499 346.009 453.423 347.162 452.961 348.546C452.268 350.622 449.497 351.775 448.573 350.391C447.418 348.546 450.19 345.317 451.806 345.778Z" fill="url(#paint44_linear_872_914)"/>
<path d="M483.451 367.23C482.527 366.769 480.679 366.308 479.524 368.384C478.369 370.229 479.755 372.074 478.138 372.997C476.06 373.92 474.212 372.997 473.519 375.073C472.826 377.611 477.445 378.764 481.603 375.535C485.761 372.074 485.761 368.384 483.451 367.23Z" fill="#F39C94"/>
<path d="M512.786 514.399C512.786 514.399 500.774 516.937 501.467 535.391C501.467 535.391 502.622 523.396 512.786 514.399Z" fill="#F39C94"/>
<path d="M437.947 344.395C437.947 344.395 428.939 350.392 428.708 352.468C428.477 354.775 433.096 357.312 433.096 357.312C433.096 357.312 430.094 353.852 431.017 352.007C432.172 350.161 437.947 344.395 437.947 344.395Z" fill="#F39C94"/>
<path d="M587.162 374.843L555.979 337.243C554.363 335.398 551.591 335.398 550.205 337.243L519.022 374.843C517.636 376.458 518.791 378.764 520.87 378.764H534.036C534.729 378.764 535.422 379.226 535.422 380.148V542.773H570.993V380.148C570.993 379.456 571.455 378.764 572.379 378.764H585.546C587.162 378.764 588.317 376.458 587.162 374.843Z" fill="url(#paint45_linear_872_914)"/>
<path d="M552.746 338.166C552.977 338.166 553.439 338.166 553.901 338.627L585.084 376.227C585.084 376.227 585.084 376.227 585.084 376.458C585.084 376.458 585.084 376.458 584.853 376.458H571.686C569.608 376.458 567.991 378.072 567.991 380.148V540.466H537.039V380.148C537.039 378.072 535.422 376.458 533.343 376.458H520.177C520.177 376.458 520.177 376.458 519.946 376.458V376.227L551.129 338.627C552.053 338.397 552.515 338.166 552.746 338.166ZM552.746 335.859C551.591 335.859 550.667 336.321 549.743 337.243L518.56 374.843C517.174 376.458 518.329 378.764 520.408 378.764H533.574C534.267 378.764 534.96 379.226 534.96 380.148V542.772H570.532V380.148C570.532 379.456 570.994 378.764 571.917 378.764H585.084C587.162 378.764 588.317 376.227 586.931 374.843L555.749 337.243C555.056 336.321 553.901 335.859 552.746 335.859Z" fill="url(#paint46_linear_872_914)"/>
<path d="M340.471 595.597L288.962 533.776C286.421 530.778 281.801 530.778 279.261 533.776L227.751 595.597C225.672 598.134 227.52 602.286 230.754 602.286H252.466C253.621 602.286 254.545 603.209 254.545 604.362V733.077H313.215V604.362C313.215 603.209 314.139 602.286 315.294 602.286H337.007C340.702 602.286 342.781 598.365 340.471 595.597Z" fill="url(#paint47_linear_872_914)"/>
<path d="M284.111 534.007C285.266 534.007 286.421 534.468 287.114 535.391L338.624 597.211C339.317 597.903 339.086 598.826 338.855 599.057C338.624 599.287 338.393 599.979 337.238 599.979H315.525C312.984 599.979 311.136 602.055 311.136 604.362V730.77H257.086V604.362C257.086 601.825 255.007 599.979 252.697 599.979H230.985C230.061 599.979 229.599 599.287 229.368 599.057C229.137 598.826 228.906 597.903 229.599 597.211L281.108 535.391C281.801 534.468 282.956 534.007 284.111 534.007ZM284.111 531.7C282.263 531.7 280.646 532.392 279.261 534.007L227.751 595.827C225.672 598.364 227.52 602.517 230.754 602.517H252.466C253.621 602.517 254.545 603.439 254.545 604.593V733.308H313.215V604.362C313.215 603.209 314.139 602.286 315.294 602.286H337.007C340.471 602.286 342.319 598.365 340.009 595.596L288.5 533.776C287.576 532.392 285.959 531.7 284.111 531.7Z" fill="url(#paint48_linear_872_914)"/>
<path d="M283.65 275.423L252.467 237.823C250.85 235.978 248.078 235.978 246.692 237.823L215.509 275.423C214.123 277.038 215.278 279.345 217.357 279.345H230.523C231.216 279.345 231.909 279.806 231.909 280.729V358.927H267.481V280.729C267.481 280.037 267.943 279.345 268.867 279.345H282.033C283.65 279.345 284.805 277.038 283.65 275.423Z" fill="url(#paint49_linear_872_914)"/>
<path d="M249.464 238.746C249.695 238.746 250.156 238.746 250.618 239.208L281.801 276.807C281.801 276.807 281.801 276.807 281.801 277.038C281.801 277.038 281.801 277.038 281.57 277.038H268.404C266.325 277.038 264.709 278.652 264.709 280.729V356.62H233.757V280.729C233.757 278.652 232.14 277.038 230.061 277.038H217.126C217.126 277.038 217.126 277.038 216.895 277.038V276.807L248.078 239.208C248.54 238.746 249.002 238.746 249.464 238.746ZM249.464 236.439C248.309 236.439 247.385 236.901 246.461 237.823L215.278 275.423C213.892 277.038 215.047 279.345 217.126 279.345H230.292C230.985 279.345 231.678 279.806 231.678 280.729V358.927H267.249V280.729C267.249 280.037 267.711 279.345 268.635 279.345H281.801C283.88 279.345 285.035 276.807 283.649 275.423L252.466 237.823C251.542 236.901 250.387 236.439 249.464 236.439Z" fill="url(#paint50_linear_872_914)"/>
<path d="M725.061 589.83H715.821V580.603C715.821 579.219 714.666 578.296 713.511 578.296C712.356 578.296 711.202 579.449 711.202 580.603V589.83H701.962C700.576 589.83 699.652 590.983 699.652 592.136C699.652 593.52 700.807 594.443 701.962 594.443H711.202V603.67C711.202 605.054 712.356 605.977 713.511 605.977C714.666 605.977 715.821 604.823 715.821 603.67V594.443H725.061C726.447 594.443 727.37 593.29 727.37 592.136C727.37 590.983 726.447 589.83 725.061 589.83Z" fill="url(#paint51_linear_872_914)"/>
<path d="M316.911 437.124H307.672V427.898C307.672 426.514 306.517 425.591 305.362 425.591C303.976 425.591 303.052 426.744 303.052 427.898V437.124H293.813C292.427 437.124 291.503 438.278 291.503 439.431C291.503 440.815 292.658 441.738 293.813 441.738H303.052V450.965C303.052 452.349 304.207 453.272 305.362 453.272C306.748 453.272 307.672 452.118 307.672 450.965V441.738H316.911C318.297 441.738 319.221 440.585 319.221 439.431C319.221 438.047 318.066 437.124 316.911 437.124Z" fill="url(#paint52_linear_872_914)"/>
<path d="M125.425 670.565H119.881V665.029C119.881 664.336 119.188 663.645 118.495 663.645C117.802 663.645 117.109 664.336 117.109 665.029V670.565H111.566C110.873 670.565 110.18 671.257 110.18 671.949C110.18 672.641 110.873 673.333 111.566 673.333H117.109V678.869C117.109 679.561 117.802 680.253 118.495 680.253C119.188 680.253 119.881 679.561 119.881 678.869V673.333H125.425C126.118 673.333 126.811 672.641 126.811 671.949C126.811 671.026 126.118 670.565 125.425 670.565Z" fill="url(#paint53_linear_872_914)"/>
<path d="M799.899 694.785H794.356V689.249C794.356 688.557 793.663 687.865 792.97 687.865C792.277 687.865 791.584 688.557 791.584 689.249V694.785H786.04C785.347 694.785 784.654 695.477 784.654 696.169C784.654 696.861 785.347 697.553 786.04 697.553H791.584V703.09C791.584 703.782 792.277 704.474 792.97 704.474C793.663 704.474 794.356 703.782 794.356 703.09V697.553H799.899C800.592 697.553 801.285 696.861 801.285 696.169C801.285 695.477 800.823 694.785 799.899 694.785Z" fill="url(#paint54_linear_872_914)"/>
<path d="M125.425 150.86H119.881V145.323C119.881 144.631 119.188 143.939 118.495 143.939C117.802 143.939 117.109 144.631 117.109 145.323V150.86H111.566C110.873 150.86 110.18 151.552 110.18 152.244C110.18 152.936 110.873 153.628 111.566 153.628H117.109V159.164C117.109 159.856 117.802 160.548 118.495 160.548C119.188 160.548 119.881 159.856 119.881 159.164V153.628H125.425C126.118 153.628 126.811 152.936 126.811 152.244C126.811 151.552 126.118 150.86 125.425 150.86Z" fill="url(#paint55_linear_872_914)"/>
<path d="M880.513 340.011H874.969V334.475C874.969 333.783 874.276 333.091 873.583 333.091C872.89 333.091 872.197 333.783 872.197 334.475V340.011H866.653C865.961 340.011 865.268 340.703 865.268 341.395C865.268 342.087 865.961 342.779 866.653 342.779H872.197V348.315C872.197 349.007 872.89 349.699 873.583 349.699C874.276 349.699 874.969 349.007 874.969 348.315V342.779H880.513C881.206 342.779 881.898 342.087 881.898 341.395C881.898 340.703 881.437 340.011 880.513 340.011Z" fill="url(#paint56_linear_872_914)"/>
<path d="M676.785 400.909H673.551V397.679C673.551 397.218 673.089 396.987 672.858 396.987C672.627 396.987 672.165 397.449 672.165 397.679V400.909H668.931C668.469 400.909 668.238 401.37 668.238 401.601C668.238 402.062 668.7 402.293 668.931 402.293H672.165V405.522C672.165 405.984 672.627 406.214 672.858 406.214C673.089 406.214 673.551 405.753 673.551 405.522V402.293H676.785C677.247 402.293 677.478 401.831 677.478 401.601C677.478 401.139 677.247 400.909 676.785 400.909Z" fill="url(#paint57_linear_872_914)"/>
<path d="M719.286 171.62H714.666V167.007C714.666 166.315 714.205 165.854 713.512 165.854C712.819 165.854 712.357 166.315 712.357 167.007V171.62H707.737C707.044 171.62 706.582 172.082 706.582 172.774C706.582 173.466 707.044 173.927 707.737 173.927H712.357V178.54C712.357 179.233 712.819 179.694 713.512 179.694C714.205 179.694 714.666 179.233 714.666 178.54V173.927H719.286C719.979 173.927 720.441 173.466 720.441 172.774C720.672 172.082 719.979 171.62 719.286 171.62Z" fill="url(#paint58_linear_872_914)"/>
</g>
<defs>
<linearGradient id="paint0_linear_872_914" x1="471.335" y1="1011.67" x2="471.335" y2="796.527" gradientUnits="userSpaceOnUse">
<stop stop-color="white"/>
<stop offset="1" stop-color="#E6F4FF"/>
</linearGradient>
<linearGradient id="paint1_linear_872_914" x1="227.677" y1="590.353" x2="227.677" y2="461.992" gradientUnits="userSpaceOnUse">
<stop stop-color="white"/>
<stop offset="1" stop-color="#E6F4FF"/>
</linearGradient>
<linearGradient id="paint2_linear_872_914" x1="686.879" y1="364.814" x2="686.879" y2="240.133" gradientUnits="userSpaceOnUse">
<stop stop-color="white"/>
<stop offset="1" stop-color="#E6F4FF"/>
</linearGradient>
<linearGradient id="paint3_linear_872_914" x1="71.5533" y1="284.938" x2="71.5533" y2="264.058" gradientUnits="userSpaceOnUse">
<stop stop-color="white"/>
<stop offset="1" stop-color="#E6F4FF"/>
</linearGradient>
<linearGradient id="paint4_linear_872_914" x1="601.258" y1="712.643" x2="601.258" y2="691.762" gradientUnits="userSpaceOnUse">
<stop stop-color="white"/>
<stop offset="1" stop-color="#E6F4FF"/>
</linearGradient>
<linearGradient id="paint5_linear_872_914" x1="209.179" y1="77.9652" x2="209.179" y2="67.5247" gradientUnits="userSpaceOnUse">
<stop stop-color="white"/>
<stop offset="1" stop-color="#E6F4FF"/>
</linearGradient>
<linearGradient id="paint6_linear_872_914" x1="16.9541" y1="133.459" x2="16.9541" y2="123.018" gradientUnits="userSpaceOnUse">
<stop stop-color="white"/>
<stop offset="1" stop-color="#E6F4FF"/>
</linearGradient>
<linearGradient id="paint7_linear_872_914" x1="713.418" y1="464.457" x2="713.418" y2="454.017" gradientUnits="userSpaceOnUse">
<stop stop-color="white"/>
<stop offset="1" stop-color="#E6F4FF"/>
</linearGradient>
<linearGradient id="paint8_linear_872_914" x1="752.306" y1="192.845" x2="752.306" y2="171.964" gradientUnits="userSpaceOnUse">
<stop stop-color="white"/>
<stop offset="1" stop-color="#E6F4FF"/>
</linearGradient>
<linearGradient id="paint9_linear_872_914" x1="682.726" y1="18.1325" x2="682.726" y2="5.88538" gradientUnits="userSpaceOnUse">
<stop stop-color="white"/>
<stop offset="1" stop-color="#E6F4FF"/>
</linearGradient>
<linearGradient id="paint10_linear_872_914" x1="825.901" y1="623.205" x2="825.901" y2="602.324" gradientUnits="userSpaceOnUse">
<stop stop-color="white"/>
<stop offset="1" stop-color="#E6F4FF"/>
</linearGradient>
<linearGradient id="paint11_linear_872_914" x1="78.3657" y1="766.679" x2="78.3657" y2="753.547" gradientUnits="userSpaceOnUse">
<stop stop-color="white"/>
<stop offset="1" stop-color="#E6F4FF"/>
</linearGradient>
<linearGradient id="paint12_linear_872_914" x1="848.312" y1="802.564" x2="848.312" y2="789.432" gradientUnits="userSpaceOnUse">
<stop stop-color="white"/>
<stop offset="1" stop-color="#E6F4FF"/>
</linearGradient>
<linearGradient id="paint13_linear_872_914" x1="817.74" y1="904.879" x2="672.242" y2="759.185" gradientUnits="userSpaceOnUse">
<stop stop-color="#4CCEC1"/>
<stop offset="1" stop-color="#93FFE2"/>
</linearGradient>
<linearGradient id="paint14_linear_872_914" x1="686.655" y1="729.888" x2="761.735" y2="813.473" gradientUnits="userSpaceOnUse">
<stop stop-color="#4CCEC1"/>
<stop offset="1" stop-color="#93FFE2"/>
</linearGradient>
<linearGradient id="paint15_linear_872_914" x1="645.698" y1="766.677" x2="720.779" y2="850.262" gradientUnits="userSpaceOnUse">
<stop stop-color="#4CCEC1"/>
<stop offset="1" stop-color="#93FFE2"/>
</linearGradient>
<linearGradient id="paint16_linear_872_914" x1="681.173" y1="734.812" x2="756.254" y2="818.397" gradientUnits="userSpaceOnUse">
<stop stop-color="#4CCEC1"/>
<stop offset="1" stop-color="#93FFE2"/>
</linearGradient>
<linearGradient id="paint17_linear_872_914" x1="701.66" y1="877.547" x2="674.242" y2="877.547" gradientUnits="userSpaceOnUse">
<stop stop-color="#4CCEC1"/>
<stop offset="1" stop-color="#93FFE2"/>
</linearGradient>
<linearGradient id="paint18_linear_872_914" x1="209.955" y1="862.069" x2="143.607" y2="795.631" gradientUnits="userSpaceOnUse">
<stop stop-color="#4CCEC1"/>
<stop offset="1" stop-color="#93FFE2"/>
</linearGradient>
<linearGradient id="paint19_linear_872_914" x1="190.991" y1="860.128" x2="141.824" y2="802.639" gradientUnits="userSpaceOnUse">
<stop stop-color="#4CCEC1"/>
<stop offset="1" stop-color="#93FFE2"/>
</linearGradient>
<linearGradient id="paint20_linear_872_914" x1="198.384" y1="853.805" x2="149.217" y2="796.316" gradientUnits="userSpaceOnUse">
<stop stop-color="#4CCEC1"/>
<stop offset="1" stop-color="#93FFE2"/>
</linearGradient>
<linearGradient id="paint21_linear_872_914" x1="197.154" y1="855.705" x2="136.999" y2="785.369" gradientUnits="userSpaceOnUse">
<stop stop-color="#4CCEC1"/>
<stop offset="1" stop-color="#93FFE2"/>
</linearGradient>
<linearGradient id="paint22_linear_872_914" x1="184.218" y1="891.675" x2="184.218" y2="870.914" gradientUnits="userSpaceOnUse">
<stop stop-color="#4CCEC1"/>
<stop offset="1" stop-color="#93FFE2"/>
</linearGradient>
<linearGradient id="paint23_linear_872_914" x1="589.052" y1="909.628" x2="505.431" y2="825.894" gradientUnits="userSpaceOnUse">
<stop stop-color="#4CCEC1"/>
<stop offset="1" stop-color="#93FFE2"/>
</linearGradient>
<linearGradient id="paint24_linear_872_914" x1="559.644" y1="855.964" x2="513.265" y2="808.638" gradientUnits="userSpaceOnUse">
<stop stop-color="#4CCEC1"/>
<stop offset="1" stop-color="#93FFE2"/>
</linearGradient>
<linearGradient id="paint25_linear_872_914" x1="544.922" y1="870.391" x2="498.543" y2="823.065" gradientUnits="userSpaceOnUse">
<stop stop-color="#4CCEC1"/>
<stop offset="1" stop-color="#93FFE2"/>
</linearGradient>
<linearGradient id="paint26_linear_872_914" x1="530.753" y1="884.277" x2="484.374" y2="836.951" gradientUnits="userSpaceOnUse">
<stop stop-color="#4CCEC1"/>
<stop offset="1" stop-color="#93FFE2"/>
</linearGradient>
<linearGradient id="paint27_linear_872_914" x1="395.162" y1="606.904" x2="363.656" y2="572.997" gradientUnits="userSpaceOnUse">
<stop stop-color="#5FA3FA"/>
<stop offset="1" stop-color="#3768EE"/>
</linearGradient>
<linearGradient id="paint28_linear_872_914" x1="395.162" y1="606.904" x2="363.656" y2="572.997" gradientUnits="userSpaceOnUse">
<stop stop-color="#5FA3FA"/>
<stop offset="1" stop-color="#3768EE"/>
</linearGradient>
<linearGradient id="paint29_linear_872_914" x1="430.124" y1="533.641" x2="430.124" y2="774.341" gradientUnits="userSpaceOnUse">
<stop stop-color="#2F3872"/>
<stop offset="1" stop-color="#1C134B"/>
</linearGradient>
<linearGradient id="paint30_linear_872_914" x1="447.24" y1="592.809" x2="389.779" y2="535.27" gradientUnits="userSpaceOnUse">
<stop stop-color="#2F3872"/>
<stop offset="1" stop-color="#1C134B"/>
</linearGradient>
<linearGradient id="paint31_linear_872_914" x1="505.177" y1="464.695" x2="348.775" y2="464.695" gradientUnits="userSpaceOnUse">
<stop stop-color="#5FA3FA"/>
<stop offset="1" stop-color="#3768EE"/>
</linearGradient>
<linearGradient id="paint32_linear_872_914" x1="485.125" y1="480.796" x2="464.531" y2="480.796" gradientUnits="userSpaceOnUse">
<stop stop-color="#5FA3FA"/>
<stop offset="1" stop-color="#3768EE"/>
</linearGradient>
<linearGradient id="paint33_linear_872_914" x1="441.284" y1="555.738" x2="441.284" y2="671.852" gradientUnits="userSpaceOnUse">
<stop stop-color="#2F3872"/>
<stop offset="1" stop-color="#1C134B"/>
</linearGradient>
<linearGradient id="paint34_linear_872_914" x1="476.326" y1="531.881" x2="476.326" y2="775.245" gradientUnits="userSpaceOnUse">
<stop stop-color="#2F3872"/>
<stop offset="1" stop-color="#1C134B"/>
</linearGradient>
<linearGradient id="paint35_linear_872_914" x1="433.128" y1="859.581" x2="386.777" y2="859.581" gradientUnits="userSpaceOnUse">
<stop stop-color="#2F3872"/>
<stop offset="1" stop-color="#1C134B"/>
</linearGradient>
<linearGradient id="paint36_linear_872_914" x1="471.538" y1="707.333" x2="434.927" y2="710.932" gradientUnits="userSpaceOnUse">
<stop stop-color="#2F3872"/>
<stop offset="1" stop-color="#1C134B"/>
</linearGradient>
<linearGradient id="paint37_linear_872_914" x1="454.91" y1="700.341" x2="447.354" y2="740.96" gradientUnits="userSpaceOnUse">
<stop stop-color="#2F3872"/>
<stop offset="1" stop-color="#1C134B"/>
</linearGradient>
<linearGradient id="paint38_linear_872_914" x1="454.91" y1="700.341" x2="447.354" y2="740.96" gradientUnits="userSpaceOnUse">
<stop stop-color="#2F3872"/>
<stop offset="1" stop-color="#1C134B"/>
</linearGradient>
<linearGradient id="paint39_linear_872_914" x1="505.755" y1="337.618" x2="423.32" y2="305.449" gradientUnits="userSpaceOnUse">
<stop stop-color="#2D2F7B"/>
<stop offset="1" stop-color="#16203C"/>
</linearGradient>
<linearGradient id="paint40_linear_872_914" x1="372.046" y1="396.165" x2="371.648" y2="429.811" gradientUnits="userSpaceOnUse">
<stop stop-color="#5FA3FA"/>
<stop offset="1" stop-color="#3768EE"/>
</linearGradient>
<linearGradient id="paint41_linear_872_914" x1="430.394" y1="342.716" x2="433.997" y2="330.713" gradientUnits="userSpaceOnUse">
<stop stop-color="#2D2F7B"/>
<stop offset="1" stop-color="#16203C"/>
</linearGradient>
<linearGradient id="paint42_linear_872_914" x1="430.693" y1="342.806" x2="434.297" y2="330.803" gradientUnits="userSpaceOnUse">
<stop stop-color="#2D2F7B"/>
<stop offset="1" stop-color="#16203C"/>
</linearGradient>
<linearGradient id="paint43_linear_872_914" x1="455.667" y1="353.057" x2="455.152" y2="338.48" gradientUnits="userSpaceOnUse">
<stop stop-color="#2D2F7B"/>
<stop offset="1" stop-color="#16203C"/>
</linearGradient>
<linearGradient id="paint44_linear_872_914" x1="450.805" y1="353.228" x2="450.291" y2="338.652" gradientUnits="userSpaceOnUse">
<stop stop-color="#2D2F7B"/>
<stop offset="1" stop-color="#16203C"/>
</linearGradient>
<linearGradient id="paint45_linear_872_914" x1="552.857" y1="535.75" x2="552.857" y2="341.013" gradientUnits="userSpaceOnUse">
<stop offset="0.00558659" stop-color="#FFCA00" stop-opacity="0"/>
<stop offset="1" stop-color="#FFFF8B"/>
</linearGradient>
<linearGradient id="paint46_linear_872_914" x1="552.857" y1="335.974" x2="552.857" y2="542.829" gradientUnits="userSpaceOnUse">
<stop stop-color="#FF9C00"/>
<stop offset="1" stop-color="#FFCA00" stop-opacity="0"/>
</linearGradient>
<linearGradient id="paint47_linear_872_914" x1="284.128" y1="726.238" x2="284.128" y2="536.516" gradientUnits="userSpaceOnUse">
<stop offset="0.00558659" stop-color="#FFCA00" stop-opacity="0"/>
<stop offset="1" stop-color="#FFFF8B"/>
</linearGradient>
<linearGradient id="paint48_linear_872_914" x1="284.128" y1="531.607" x2="284.128" y2="733.134" gradientUnits="userSpaceOnUse">
<stop stop-color="#FF9C00"/>
<stop offset="1" stop-color="#FFCA00" stop-opacity="0"/>
</linearGradient>
<linearGradient id="paint49_linear_872_914" x1="249.362" y1="354.544" x2="249.362" y2="239.442" gradientUnits="userSpaceOnUse">
<stop offset="0.00558659" stop-color="#FFCA00" stop-opacity="0"/>
<stop offset="1" stop-color="#FFFF8B"/>
</linearGradient>
<linearGradient id="paint50_linear_872_914" x1="249.361" y1="236.464" x2="249.361" y2="358.728" gradientUnits="userSpaceOnUse">
<stop stop-color="#FF9C00"/>
<stop offset="1" stop-color="#FFCA00" stop-opacity="0"/>
</linearGradient>
<linearGradient id="paint51_linear_872_914" x1="726.513" y1="605.369" x2="706.817" y2="585.645" gradientUnits="userSpaceOnUse">
<stop stop-color="#FF9C00"/>
<stop offset="1" stop-color="#FFCA00"/>
</linearGradient>
<linearGradient id="paint52_linear_872_914" x1="318.294" y1="452.48" x2="298.597" y2="432.756" gradientUnits="userSpaceOnUse">
<stop stop-color="#FF9C00"/>
<stop offset="1" stop-color="#FFCA00"/>
</linearGradient>
<linearGradient id="paint53_linear_872_914" x1="126.223" y1="679.588" x2="114.57" y2="667.92" gradientUnits="userSpaceOnUse">
<stop stop-color="#FF9C00"/>
<stop offset="1" stop-color="#FFCA00"/>
</linearGradient>
<linearGradient id="paint54_linear_872_914" x1="800.815" y1="703.954" x2="789.162" y2="692.286" gradientUnits="userSpaceOnUse">
<stop stop-color="#FF9C00"/>
<stop offset="1" stop-color="#FFCA00"/>
</linearGradient>
<linearGradient id="paint55_linear_872_914" x1="126.223" y1="160.076" x2="114.57" y2="148.408" gradientUnits="userSpaceOnUse">
<stop stop-color="#FF9C00"/>
<stop offset="1" stop-color="#FFCA00"/>
</linearGradient>
<linearGradient id="paint56_linear_872_914" x1="881.414" y1="349.138" x2="869.762" y2="337.47" gradientUnits="userSpaceOnUse">
<stop stop-color="#FF9C00"/>
<stop offset="1" stop-color="#FFCA00"/>
</linearGradient>
<linearGradient id="paint57_linear_872_914" x1="677.195" y1="406.059" x2="670.544" y2="399.399" gradientUnits="userSpaceOnUse">
<stop stop-color="#FF9C00"/>
<stop offset="1" stop-color="#FFCA00"/>
</linearGradient>
<linearGradient id="paint58_linear_872_914" x1="720.098" y1="179.419" x2="710.05" y2="169.357" gradientUnits="userSpaceOnUse">
<stop stop-color="#FF9C00"/>
<stop offset="1" stop-color="#FFCA00"/>
</linearGradient>
<clipPath id="clip0_872_914">
<rect width="908" height="916" fill="white"/>
</clipPath>
</defs>
</svg>
