<?xml version="1.0" encoding="UTF-8"?>
<svg id="Layer_2" xmlns="http://www.w3.org/2000/svg" viewBox="0 0 297.63 261.09">
  <defs>
    <style>
      .cls-1 {
        fill: #1a49ba;
      }

      .cls-2 {
        fill: #fff;
      }

      .cls-3 {
        fill: #02216f;
        stroke: #02216f;
        stroke-linejoin: round;
        stroke-width: 7px;
      }

      .cls-4 {
        fill: #b3e4ff;
      }

      .cls-5 {
        fill: #edd4ff;
      }

      .cls-6 {
        fill: #ffda55;
      }
    </style>
  </defs>
  <g id="BACKGROUND_2">
    <g>
      <path class="cls-2" d="M40.7,122.74L1.17,135.6c-1.6.52-1.52,2.81.12,3.21l47.2,11.67c1.49.37,1.74,2.39.38,3.1l-30.12,15.83c-1.5.79-1.01,3.05.68,3.15l43.89,2.59c1.74.1,2.18,2.46.6,3.19l-29.33,13.53c-1.72.79-1,3.38.88,3.18l42.31-4.49c1.36-.14,2.31,1.32,1.62,2.5l-19.46,33.4c-.85,1.46.76,3.12,2.24,2.31l36.82-20.04c1.43-.78,3.02.74,2.3,2.21l-4.41,8.98c-.73,1.49.91,3.02,2.34,2.18l22.24-12.97c1.16-.67,2.59.21,2.51,1.55l-3.05,48.63c-.12,1.91,2.54,2.49,3.23.7l17.69-46.11c.53-1.38,2.46-1.44,3.08-.1l18.62,40.19c.75,1.63,3.19,1.09,3.19-.7v-26.59c0-1.77,2.4-2.33,3.17-.73l12.01,24.61c.73,1.49,2.94,1.13,3.16-.51l3.77-27.9c.17-1.22,1.55-1.85,2.58-1.17l27.5,18.15c1.28.84,2.92-.33,2.54-1.81l-9.03-35.34c-.34-1.31.95-2.46,2.22-1.97l38.67,14.85c1.64.63,3.02-1.37,1.84-2.68l-27.66-30.87c-1.08-1.2,0-3.08,1.59-2.75l29.24,6.13c1.74.36,2.77-1.87,1.37-2.96l-23.29-18.06c-1.23-.96-.6-2.93.96-2.99l58.65-2.13c1.89-.07,2.23-2.73.42-3.27l-48.38-14.56c-1.65-.5-1.56-2.87.13-3.23l43.78-9.53c1.78-.39,1.74-2.95-.05-3.28l-40.7-7.5c-1.62-.3-1.88-2.51-.37-3.17l43.99-19.41c1.65-.73,1.13-3.2-.67-3.2h-52.82c-1.63,0-2.3-2.09-.97-3.04l27.83-19.72c1.4-1,.57-3.21-1.14-3.03l-46.03,4.89c-1.36.14-2.31-1.32-1.62-2.5l19.46-33.4c.85-1.46-.76-3.12-2.24-2.31l-36.82,20.05c-1.43.78-3.02-.74-2.3-2.21l4.41-8.98c.73-1.49-.91-3.02-2.34-2.18l-22.24,12.97c-1.16.67-2.59-.21-2.51-1.55l3.05-48.63c.12-1.91-2.54-2.49-3.23-.7l-17.69,46.11c-.53,1.38-2.46,1.44-3.08.1l-18.62-40.19c-.75-1.63-3.19-1.09-3.19.7v26.59c0,1.77-2.4,2.33-3.17.73l-11.13-22.81c-.78-1.61-3.2-1.03-3.17.76l.59,35.14c.02,1.38-1.53,2.19-2.65,1.38l-27.71-20.03c-1.35-.97-3.13.4-2.54,1.95l9.22,24.19c.52,1.38-.86,2.71-2.21,2.14l-53.7-22.7c-1.64-.7-3.09,1.33-1.9,2.66l37.61,41.97c1.08,1.2,0,3.08-1.59,2.75l-29.24-6.13c-1.74-.36-2.77,1.87-1.37,2.96l23.29,18.06c1.23.96.6,2.93-.96,2.99l-59.82,2.18c-1.85.07-2.24,2.64-.49,3.25l39.6,13.76c1.51.53,1.49,2.67-.03,3.17Z"/>
      <path class="cls-3" d="M242.66,176.25c-1.6-33.94-49.93-37.89-60.52-48.64,8.46-8.14,40.13-.97,40.13-.97.21-.03,6.72-28.96,6.5-28.93,0,0,.07-9.01,0-9,0,0-11.4-7.25-36.35-7.25-9.96,0-18.57,1.9-25.76,5.03,6.71-21.99,11.72-38.53,11.72-38.53v-9l-44.82,1.75-19.07,88.73-17.96-84.42-44.78,4.24v9s44.32,137.54,45.48,137.54c.7,0,1.4-.23,1.4-.23,0,0,32.88-.47,34.05,0,.34,0,6.36-19.14,13.92-43.63,7.42,10.57,22.53,19.8,50.01,26.59,1.06.26,3.37.87,5.07,2.42-9.97,9.29-52.96,4.81-52.96,4.81-.19.16,0,9,0,9-.58.51,3.62,35.44,3.83,35.41,0,0,90.11,12.46,90.11-44.91-.05-1.15,0-7.03,0-9Z"/>
      <g>
        <path class="cls-5" d="M51.75,49.25l44.78-4.24,17.96,84.42,19.07-88.73,44.82-1.75s-44.77,147.62-45.71,147.62c-1.17-.47-34.05,0-34.05,0,0,0-.7.23-1.4.23-1.17,0-45.48-137.54-45.48-137.54Z"/>
        <path class="cls-4" d="M228.77,88.7c.21-.03-6.29,28.91-6.5,28.93,0,0-40.48-9.16-42.14,4.98-1.79,15.23,60.7,14.97,62.53,53.64,0,57.38-90.11,44.91-90.11,44.91-.21.03-4.41-34.9-3.83-35.41,0,0,56.36,5.88,54.99-9.77-.41-4.7-5.37-6.03-7.09-6.46-48.5-11.99-58.48-31.53-55.65-52.74,2.23-16.74,20.27-35.34,51.46-35.34,24.95,0,36.35,7.25,36.35,7.25Z"/>
        <path class="cls-6" d="M135.95,142.45c-.89-.15-1.81-.24-2.74-.24-5.28,0-9.99,2.42-13.09,6.21-.68-.13-1.39-.21-2.11-.21-.65,0-1.29.07-1.91.18.11-.79.19-1.6.19-2.42,0-9.34-7.57-16.91-16.91-16.91-3.2,0-6.18.9-8.73,2.45,0-.07.01-.13.01-.2,0-9.34-7.57-16.91-16.91-16.91-.29,0-.58.02-.87.03,4.93,15.1,9.95,30.44,14.15,43.08,5.69,17.12,9.86,29.3,10.2,29.3.7,0,1.4-.23,1.4-.23,0,0,32.88-.47,34.05,0,.15,0,1.52-4.07,3.68-10.83,3.25-10.18,8.31-26.47,13.8-44.34-6.58.65-12.04,5.06-14.22,11.06Z"/>
        <path class="cls-1" d="M222.57,146.87c-9.76-5.81-21.18-9.53-29.72-13.12-1.23,1.49-2.23,3.18-2.9,5.04-.89-.15-1.81-.24-2.74-.24-5.28,0-9.99,2.42-13.09,6.21-.68-.13-1.39-.21-2.11-.21-.65,0-1.29.07-1.91.18.11-.79.19-1.6.19-2.42,0-9.34-7.57-16.91-16.91-16.91-3.2,0-6.18.9-8.73,2.45,0-.07.01-.13.01-.2,0-4-1.4-7.68-3.72-10.57-2.71,21.1,7.38,40.52,55.63,52.46.01,0,.03,0,.04.01,1.72.42,6.67,1.75,7.09,6.46,1.38,15.65-54.99,9.77-54.99,9.77-.58.51,3.62,35.44,3.83,35.41,0,0,90.11,12.46,90.11-44.91-.66-14.08-9.37-22.99-20.09-29.38Z"/>
      </g>
    </g>
  </g>
</svg>