<?xml version="1.0" encoding="UTF-8"?>
<svg xmlns="http://www.w3.org/2000/svg" viewBox="0 0 59.36 53.19">
  <defs>
    <style>
      .cls-1 {
        opacity: .7;
      }

      .cls-1, .cls-2, .cls-3, .cls-4, .cls-5, .cls-6, .cls-7, .cls-8, .cls-9, .cls-10 {
        mix-blend-mode: multiply;
      }

      .cls-1, .cls-3, .cls-6, .cls-7, .cls-9, .cls-11 {
        fill: #dfa000;
      }

      .cls-2, .cls-3, .cls-12 {
        opacity: .3;
      }

      .cls-2, .cls-8 {
        fill: #834200;
      }

      .cls-13 {
        fill: #ffe91a;
      }

      .cls-13, .cls-4, .cls-6 {
        opacity: .5;
      }

      .cls-14 {
        fill: #f5ae00;
      }

      .cls-4 {
        fill: #934200;
      }

      .cls-5 {
        fill: #ffb30b;
      }

      .cls-5, .cls-9 {
        opacity: .2;
      }

      .cls-15, .cls-12 {
        fill: #f7b80e;
      }

      .cls-16 {
        isolation: isolate;
      }

      .cls-7, .cls-10 {
        opacity: .4;
      }

      .cls-8 {
        opacity: .6;
      }

      .cls-17 {
        fill: #f4ab00;
      }

      .cls-10 {
        fill: #793500;
      }

      .cls-18 {
        fill: #f7b900;
      }
    </style>
  </defs>
  <g class="cls-16">
    <g id="Layer_2">
      <g id="l1">
        <g>
          <g>
            <path class="cls-18" d="M33.4.59c-.17-.03-.34-.06-.51-.08-1.23-.19-2.49-.28-3.78-.28C15.26.23,4.02,11.18,4.02,24.69s11.24,24.46,25.09,24.46,25.1-10.95,25.1-24.46c0-12.08-8.99-22.12-20.81-24.1ZM28.99,5.37c.19-.02.39-.02.58-.02,1.21,0,2.39.11,3.53.32.04.01.09.02.13.03h.01c.55.1,1.08.23,1.61.39,1.85.52,3.59,1.31,5.16,2.33.48.3.94.63,1.39.98,1.73,1.33,3.23,2.96,4.41,4.81.11.14.21.3.3.46,1.42,2.34,2.36,5.01,2.68,7.87.08.71.12,1.42.12,2.15,0,4.94-1.86,9.44-4.91,12.86-1.61,1.82-3.56,3.33-5.76,4.42-.37.2-.76.37-1.14.54-.03.01-.06.02-.09.03-.01.01-.02.01-.02.01-.55.23-1.1.43-1.67.61-.19.06-.38.12-.58.17-.04.01-.07.02-.11.03-.14.04-.29.07-.44.11,0,0,0,0,0,0,0,0-.02,0-.03,0h-.02c-.34.08-.69.16-1.03.22-.08.02-.17.03-.25.05-.24.04-.48.07-.72.11-.16.02-.33.04-.49.06-.33.03-.67.06-1.01.08h-.07c-.33.02-.67.03-1,.03-1.89,0-3.71-.27-5.44-.78-.72-.21-1.42-.46-2.1-.75-.58-.24-1.14-.51-1.68-.81-1.49-.81-2.86-1.81-4.08-2.97-.04-.02-.07-.06-.1-.09h-.01c-.66-.63-1.26-1.3-1.82-2.02-1.52-1.92-2.67-4.14-3.36-6.55-.5-1.7-.76-3.51-.76-5.37,0-3.3.83-6.41,2.29-9.13.02-.04.04-.08.06-.11.17-.32.35-.63.55-.94.55-.89,1.17-1.73,1.86-2.51.66-.77,1.39-1.49,2.17-2.13,3.22-2.71,7.33-4.38,11.84-4.5Z"/>
            <path class="cls-9" d="M51.37,27.97c-.29,2.16-1.03,4.09-2.03,5.97-.16.29-.32.57-.48.86-1.2,2.09-2.01,4.63-3.88,6.23-2.81,2.41-6.95,4.26-10.89,4.98-.01,0-.02,0-.03.01-.16.04-.32.06-.48.08-.98.17-1.95.26-2.87.27-1.42.01-2.84.01-4.25-.07-2.72-.15-5.39-.59-7.87-1.77-.57-.27-1.14-.58-1.69-.94-1.73-1.11-3.31-2.63-4.54-4.4-1.88-2.69-2.94-5.95-2.52-9.17.03-.25.07-.49.12-.74.05,0,.1.01.15.02.05.01.09.02.13.04.29.11.53.38.74.72.69,2.41,1.84,4.63,3.36,6.55.56.72,1.16,1.39,1.82,2.01h.01s.06.08.1.1c1.22,1.16,2.59,2.16,4.08,2.97.54.3,1.1.57,1.68.81.68.29,1.38.54,2.1.75,1.73.51,3.55.78,5.44.78.33,0,.67-.01,1-.03h.07c.34-.02.68-.05,1.01-.08.16-.02.33-.04.49-.06.24-.04.48-.07.72-.11.08-.02.17-.03.25-.05.34-.06.69-.14,1.03-.22h.02s.02,0,.03,0c0,0,0,0,0,0,.15-.04.3-.07.44-.11.04-.01.07-.02.11-.03.2-.05.39-.11.58-.17.57-.18,1.12-.38,1.67-.61,0,0,0,0,.02-.01.03-.01.06-.02.09-.03.38-.17.77-.34,1.14-.54,2.2-1.09,4.15-2.6,5.76-4.42,3.05-3.42,4.91-7.92,4.91-12.86,0-.73-.04-1.44-.12-2.15-.32-2.86-1.26-5.53-2.68-7.87-.09-.16-.19-.32-.3-.46-1.18-1.85-2.68-3.48-4.41-4.81-.45-.35-.91-.68-1.39-.98-.19-.38-.31-.78-.41-1.18-.02-.06-.04-.12-.05-.18-.33-1.38-.44-2.85-1.48-3.97-.01-.02-.03-.04-.05-.05-.07-.09-.15-.16-.23-.23l-.34-.69c.48.59,1.46.53,2.17.83.82.36,1.54.86,2.31,1.37,1.68,1.11,3.29,2.52,4.61,4.06.13.14.26.29.38.44.53.65,1.02,1.34,1.47,2.05.53.83,1.01,1.7,1.43,2.59.51,1.08.94,2.2,1.3,3.33,1.17,3.7.75,7.39.25,11.18Z"/>
            <path class="cls-9" d="M52.14,17.97c-.53-1.69-1.45-3.03-2.32-4.51-.02-.04-.05-.08-.07-.12-.47-.79-.88-1.64-1.36-2.47-.36-.64-.76-1.27-1.24-1.83-.19-.23-.4-.45-.61-.66-2.16-2.24-5.03-3.89-7.88-5.05-.02,0-.04-.02-.06-.03-.18-.07-.35-.14-.53-.21-.02-.01-.03-.01-.05-.02-.82-.31-2.38-.88-3.64-1.07-.5-.07-.96-.09-1.3,0-1.36.34-1.14,1.5-.53,2.71.15.29.32.59.49.87.01.01.01.02.02.03.01.02.02.04.04.06.04.01.09.02.13.03h.01c.55.1,1.08.23,1.61.39,1.85.52,3.59,1.31,5.16,2.33.48.3.94.63,1.39.98,1.73,1.33,3.23,2.96,4.41,4.81.11.14.21.3.3.46,1.42,2.34,2.36,5.01,2.68,7.87.08.71.12,1.42.12,2.15,0,4.94-1.86,9.44-4.91,12.86-1.61,1.82-3.56,3.33-5.76,4.42-.37.2-.76.37-1.14.54-.03.01-.06.02-.09.03-.01.01-.02.01-.02.01-.55.23-1.1.43-1.67.61-.19.06-.38.12-.58.17-.04.01-.07.02-.11.03-.14.04-.29.07-.44.11,0,0,0,0,0,0,0,0-.02,0-.03,0h-.02c-.34.08-.69.16-1.03.22-.08.02-.17.03-.25.05-.24.04-.48.07-.72.11-.16.02-.33.04-.49.06-.33.03-.67.06-1.01.08h-.07c-.33.02-.67.03-1,.03-1.89,0-3.71-.27-5.44-.78-.72-.21-1.42-.46-2.1-.75-.58-.24-1.14-.51-1.68-.81-1.49-.81-2.86-1.81-4.08-2.97-.04-.02-.07-.06-.1-.09h-.01c-.66-.63-1.26-1.3-1.82-2.02-1.52-1.92-2.67-4.14-3.36-6.55-.5-1.7-.76-3.51-.76-5.37,0-3.3.83-6.41,2.29-9.13.02-.04.04-.08.06-.11.17-.32.35-.63.55-.94.55-.89,1.17-1.73,1.86-2.51.03-.48.08-.95.14-1.41,0-.14.03-.27.05-.4.17-1.21.41-2.39.73-3.48h0c.06-.24.13-.45.2-.67l-.11.24c-.97.69-1.88,1.5-2.72,2.39l-.02.02c-.69.73-1.34,1.53-1.92,2.35-1.12,1.57-2.32,2.99-3.26,4.65,0,0-.01,0-.01.02-.33.59-.62,1.2-.87,1.86-.09.24-.17.48-.25.73h0c-.7,2.21-1,4.67-.89,6.95.02.52.06,1.02.11,1.5v.03c.05.56.12,1.09.22,1.61,0,.02,0,.03.01.04.05.3.1.59.18.89,0,.02,0,.04.01.06.13.6.3,1.2.5,1.8,0,.01.01.02.01.03.3.88.67,1.78,1.13,2.72,1.94,3.97,4.42,7.48,8.11,9.87,2.98,1.93,7.35,3.72,10.87,3.93,3.77.23,7.37-.22,10.91-1.27,1.57-.46,2.72-1.3,3.93-2.4,1.18-1.08,2.49-1.74,3.66-2.88,2.06-2.04,3.5-4.41,4.55-6.99.55-1.35.99-2.76,1.36-4.21,1.04-4.08,1.83-7.86.53-12.01Z"/>
            <path class="cls-9" d="M23.41,2.14c0,.18.09.41.12.6-.04.02-.08.05-.12.07v-.67Z"/>
            <path class="cls-9" d="M23.53,2.74c.14-.07.29-.14.47-.19-.14.11-.3.2-.46.26,0-.02-.01-.04-.01-.07Z"/>
            <path class="cls-9" d="M49.38,26.65s0,.04,0,.07c0,.13-.01.26-.03.41-.01.04-.01.08-.02.13-.2,1.98-.61,3.93-1.31,5.75-.32.86-.71,1.69-1.17,2.48-1.43,2.48-3.34,5.01-5.51,6.87-1.03.87-1.97,1.15-3.17,1.58-1.12.4-2,1.23-3.11,1.71-.31.13-.63.25-.96.36-.01,0-.02,0-.03.01-.18.05-.36.1-.54.15-2.14.55-4.49.54-6.65.55h-.04c-2.84,0-5.84-.55-8.24-2.19-.02-.01-.04-.03-.06-.04-2.08-1.42-4.34-3.38-6.17-5.3-.28-.29-.56-.59-.82-.88-1.92-2.14-3.36-4.43-4.45-7.1,0-.01-.01-.02-.01-.03-.19-.46-.33-.92-.45-1.4-.11-.44-.19-.89-.24-1.35-.01-.01-.01-.02-.01-.04-.02-.19-.04-.38-.06-.58v-.04c-.15-2.06.15-4.19.51-6.21.66-3.77,1.9-6.46,4.33-9.39.44-.53,1.8-2.47,2.55-1.5.16.2.16.58.09,1.01-.04.27-.11.56-.18.84-.15.55-.32,1.05-.37,1.3-.05.22-.09.46-.13.69-.2.31-.38.62-.55.94-.02.03-.04.07-.06.11-1.46,2.72-2.29,5.83-2.29,9.13,0,1.86.26,3.67.76,5.37.69,2.41,1.84,4.63,3.36,6.55.56.72,1.16,1.39,1.82,2.01h.01s.06.08.1.1c1.22,1.16,2.59,2.16,4.08,2.97.54.3,1.1.57,1.68.81.68.29,1.38.54,2.1.75,1.73.51,3.55.78,5.44.78.33,0,.67-.01,1-.03h.07c.34-.02.68-.05,1.01-.08.16-.02.33-.04.49-.06.24-.04.48-.07.72-.11.08-.02.17-.03.25-.05.34-.06.69-.14,1.03-.22h.02s.02,0,.03,0c0,0,0,0,0,0,.15-.04.3-.07.44-.11.04-.01.07-.02.11-.03.2-.05.39-.11.58-.17.57-.18,1.12-.38,1.67-.61,0,0,0,0,.02-.01.03-.01.06-.02.09-.03.38-.17.77-.34,1.14-.54,2.2-1.09,4.15-2.6,5.76-4.42,3.05-3.42,4.91-7.92,4.91-12.86,0-.73-.04-1.44-.12-2.15-.32-2.86-1.26-5.53-2.68-7.87-.09-.16-.19-.32-.3-.46-1.18-1.85-2.68-3.48-4.41-4.81-.45-.35-.91-.68-1.39-.98-1.57-1.02-3.31-1.81-5.16-2.33-.53-.16-1.06-.29-1.61-.39h-.01s-.09-.02-.13-.03c-1.14-.21-2.32-.32-3.53-.32-.19,0-.39,0-.58.02-.2-.27-.32-.58-.44-.9-.25-.66-.47-1.36-1.25-1.76-.76-.38-2.29-.45-3.3-.16.67-.45,1.19-1.21,2.03-1.47,1.35-.43,3.21-.09,4.57.11,1.25.19,2.48.39,3.68.67,1.29.29,2.54.66,3.74,1.18.2.08.39.17.58.26.02.01.04.02.06.03.8.39,1.58.86,2.33,1.42,4.36,3.27,7.16,7.96,8.02,13.46.42,2.7.6,5.6.37,8.44Z"/>
            <path class="cls-4" d="M49.39,23.53c-.01-.23,0-.49-.05-.77-.04-.28-.08-.59-.13-.92-.06-.33-.08-.69-.17-1.06-.01-.04-.01-.07-.03-.11,0-.01,0-.02-.01-.04-.03-.17-.06-.34-.11-.51-.04-.17-.09-.34-.13-.53-.01-.02-.01-.05-.02-.07-.47-1.65-1.13-3.65-2.42-5.67-1.29-2.04-3.1-4.18-5.58-5.89-.37-.25-.75-.5-1.14-.72-.21-.13-.43-.26-.65-.37,0,0-.01,0-.02-.01-1.24-.67-2.59-1.23-4.05-1.63-.75-.22-1.53-.4-2.33-.52-.28-.05-.56-.09-.85-.13-.44-.06-.84-.06-1.27-.09l-.63-.04-.32-.02h-.2s-.17.01-.17.01c-.19,0-.37.02-.56.03-.7.03-1.41.06-2.12.19-1.8.21-3.58.79-5.32,1.52-1.72.76-3.35,1.81-4.86,3.02-.37.32-.73.65-1.08.99-.48.47-.95.97-1.37,1.49-.53.6-1.02,1.24-1.47,1.9-1.07,1.67-1.91,3.5-2.5,5.42-.54,1.92-.77,3.99-.76,5.93.07,1.76.31,3.45.77,5.09.07.26.15.53.23.79.59,1.73,1.37,3.36,2.33,4.88.08.14.16.27.25.4.57.81,1.2,1.59,1.85,2.31.01.01.01.02.02.02.63.69,1.3,1.34,1.99,1.94.48.39.98.76,1.48,1.12.02.01.03.02.05.03,1.02.73,2.09,1.37,3.21,1.89,1.38.6,2.78,1.12,4.22,1.42.33.07.67.13,1.01.18.91.2,1.76.21,2.61.28h.16s.09.02.09.02h.29s.03-.01.05-.01h.09l.65-.03c.44-.02.87,0,1.3-.06,1.15-.13,2.27-.35,3.34-.66,2.1-.6,4.02-1.51,5.66-2.64.61-.43,1.18-.89,1.74-1.34.51-.5,1.04-.97,1.5-1.46.44-.53.9-1.01,1.28-1.53.36-.53.74-1.03,1.07-1.54.64-.99,1.12-1.98,1.5-2.93.41-1,.7-1.94.94-2.79.1-.42.19-.82.29-1.19.08-.38.1-.74.16-1.07.04-.29.09-.55.12-.79.01-.05.01-.09.02-.13.02-.15.03-.28.03-.41,0-.12,0-.24.02-.36.04-.92.06-1.41.06-1.41,0,0-.02-.49-.06-1.42ZM49.31,25.03c0,.23-.03.47-.04.71-.01.18-.02.38-.03.61-.02.23-.01.49-.06.77-.05.28-.09.58-.14.91-.06.32-.1.68-.2,1.04-.1.37-.21.75-.32,1.17-.06.2-.11.41-.19.63-.08.21-.16.42-.25.64-.08.22-.18.44-.27.67-.09.23-.18.46-.31.68-.24.45-.49.92-.75,1.41-.3.46-.61.93-.93,1.43-.72.99-1.57,1.98-2.58,2.91-.92.85-1.95,1.66-3.11,2.37-.58.36-1.19.69-1.83,1-.35.17-.71.34-1.08.5h-.01c-.08.03-.16.07-.25.1-.53.22-1.08.42-1.64.58-.19.06-.38.12-.58.17-.04.01-.07.02-.11.03-.98.3-1.99.5-3.04.63-.41.06-.81.06-1.22.09l-.62.05h-.31s.01.02,0,.02h-.12s-.16-.01-.16-.01c-.65-.03-1.33-.02-1.98-.08-.02,0-.05,0-.07-.01-.09,0-.17-.01-.26-.02-.08-.01-.16-.03-.25-.04-.41-.06-.83-.09-1.26-.17-.27-.06-.54-.12-.81-.19-.15-.03-.3-.06-.46-.1-.43-.08-.84-.23-1.26-.37-.36-.13-.74-.23-1.09-.38-.06-.02-.12-.04-.17-.07-.2-.08-.39-.16-.59-.25-1.45-.64-2.83-1.48-4.13-2.48-1.04-.85-1.99-1.81-2.85-2.86,0,0-.01,0-.01-.01s-.01-.01-.01-.01c-.33-.41-.64-.81-.95-1.25-1.05-1.59-1.87-3.35-2.44-5.19-.12-.43-.23-.87-.32-1.32-.29-1.44-.42-2.93-.43-4.37.1-2,.4-3.84.99-5.66.45-1.31,1.02-2.57,1.71-3.75.02-.04.04-.08.06-.11.17-.32.35-.63.55-.94.55-.89,1.17-1.73,1.86-2.51.66-.77,1.39-1.49,2.17-2.13,3.22-2.71,7.33-4.38,11.84-4.5.19-.02.39-.02.58-.02,1.21,0,2.39.11,3.53.32.04.01.09.02.13.03h.01c.55.1,1.08.23,1.61.39,1.85.52,3.59,1.31,5.16,2.33.48.3.94.63,1.39.98,1.73,1.33,3.23,2.96,4.41,4.81.11.14.21.3.3.46.22.33.43.65.63.96.26.49.51.96.75,1.41.13.22.22.45.31.68.09.23.18.45.27.67.09.22.17.43.25.64.08.21.13.42.19.63.06.23.12.45.19.66.04.17.09.34.14.5.09.37.13.73.19,1.05.05.33.1.63.15.91.04.28.04.53.05.76.05.69.07,1.14.08,1.32h0s.01.06.01.08c0,0,0,.03-.01.09Z"/>
            <path class="cls-7" d="M49.31,24.86v.17c0,.23-.03.47-.04.71-.09,1.31-.31,2.62-.64,3.9-.17.65-.34,1.27-.55,1.87-.25.78-.55,1.52-.89,2.23h0c-.29.62-.61,1.21-.98,1.78-.01.01-.01.02-.02.03,0,.01,0,.02-.02.03-.5.78-1.08,1.51-1.76,2.23-.23.24-.46.5-.69.75t-.02.02c-.89.98-1.8,2-2.8,2.73-.48.35-.97.62-1.48.85-.24.11-.48.21-.73.31-.88.35-1.79.63-2.7,1.02-.16.07-.33.14-.49.22-1.93.92-3.84,1.43-5.82,1.58-.02,0-.03.01-.05,0h-.19s-.1.01-.1.01c-1.2.08-2.41.01-3.67-.18-.3-.04-.59-.09-.89-.14-1.99-.37-3.64-1.22-5.36-2.28-.84-.52-1.87-1.18-2.81-1.97h-.01c-.82-.69-1.58-1.46-2.08-2.31-.01,0-.01-.01-.02-.02-.24-.41-.43-.83-.53-1.28,0,0-.01,0-.01-.01s-.01-.01-.01-.01c0-.01.01-.02.01-.02h-.01s-.02-.08-.03-.12c.66.71,1.42,1.25,2.24,1.66h.01s.06.08.1.1c1.22,1.16,2.59,2.16,4.08,2.97.54.3,1.1.57,1.68.81.68.29,1.38.54,2.1.75,1.73.51,3.55.78,5.44.78.33,0,.67-.01,1-.03h.07c.34-.02.68-.05,1.01-.08.16-.02.33-.04.49-.06.24-.04.48-.07.72-.11.08-.02.17-.03.25-.05.34-.06.69-.14,1.03-.22h.02s.02,0,.03,0c0,0,0,0,0,0,.15-.04.3-.07.44-.11.04-.01.07-.02.11-.03.2-.05.39-.11.58-.17.57-.18,1.12-.38,1.67-.61,0,0,0,0,.02-.01.03-.01.06-.02.09-.03.38-.17.77-.34,1.14-.54,2.2-1.09,4.15-2.6,5.76-4.42,3.05-3.42,4.91-7.92,4.91-12.86,0-.73-.04-1.44-.12-2.15-.32-2.86-1.26-5.53-2.68-7.87-.09-.16-.19-.32-.3-.46-1.18-1.85-2.68-3.48-4.41-4.81-.45-.35-.91-.68-1.39-.98-1.57-1.02-3.31-1.81-5.16-2.33-.53-.16-1.06-.29-1.61-.39h-.01l-.17-.09-.06-.03h.04c.5.01.9-.27,1.41-.23.15.02.29.05.42.1.46.18.83.51,1.33.69.87.32,1.81.47,2.73.72,0,.01.02.01.02.01.2.06.4.12.6.19.11.03.21.07.32.11,2.79,1.11,4.22,3.34,5.91,5.7,1.45,2.02,2.42,4.28,2.96,6.65,0,.02,0,.05.02.07.04.19.09.36.13.53.05.17.08.34.11.51.01.02.01.03.01.04.24,1.38.34,2.78.3,4.19Z"/>
            <path class="cls-7" d="M30.57,44c-1.15.1-2.3.11-3.4.06-.02,0-.05,0-.07-.01-.09,0-.17-.01-.26-.02-.73-.04-1.46-.11-2.18-.24-1.06-.17-2.1-.42-3.12-.75-.11-.04-.23-.07-.34-.12-1.09-.37-2.15-.84-3.16-1.41-.02,0-.03-.02-.05-.03-.48-.27-.94-.5-1.38-.75h-.01c-.95-.52-1.81-1.08-2.58-2.07-.66-.85-1.16-1.92-1.62-2.97-.21-.47-.41-.93-.61-1.37-.76-1.64-1.33-3.32-1.68-5.02-1.2-5.68-.11-11.51,3.36-16.56.05-.07.1-.14.15-.22.4-.58.95-1.35,1.5-1.93.25-.26.5-.48.73-.63.54-.35,1.43-.22,1.73-.91l-.43.82c-.78.64-1.51,1.36-2.17,2.13-.69.78-1.31,1.62-1.86,2.51-.2.31-.38.62-.55.94-.02.03-.04.07-.06.11-1.46,2.72-2.29,5.83-2.29,9.13,0,1.86.26,3.67.76,5.37.69,2.41,1.84,4.63,3.36,6.55.56.72,1.16,1.39,1.82,2.01h.01s.06.08.1.1c1.22,1.16,2.59,2.16,4.08,2.97.54.3,1.1.57,1.68.81.68.29,1.38.54,2.1.75,1.73.51,3.55.78,5.44.78.33,0,.67-.01,1-.03Z"/>
            <path class="cls-7" d="M44,37.55c-.24.35-.49.71-.76,1.06-.25.33-.51.65-.78.96-.59.67-1.23,1.27-1.93,1.7-.14.09-.29.17-.45.24-.48.24-1.02.43-1.58.6-.43.13-.86.25-1.28.37h-.01s-.08.02-.11.03c.38-.17.77-.34,1.14-.54,2.2-1.09,4.15-2.6,5.76-4.42Z"/>
            <path class="cls-7" d="M48.79,22.54c-.32-2.86-1.26-5.53-2.68-7.87-.09-.16-.19-.32-.3-.46-1.18-1.85-2.68-3.48-4.41-4.81-.03-.11-.06-.22-.07-.33,1.39-.07,2.68,2.61,3.43,3.55,1.13,1.42,2.15,2.75,2.99,4.38.52,1.01.81,2.15.95,3.32.08.73.11,1.48.09,2.22Z"/>
            <path class="cls-13" d="M19.07,2.58c-1.31,1.31-3.39,1.89-4.89,3.02-2.32,1.75-4.23,3.76-5.69,6.3-2.52,4.41-4.29,9.52-3.56,14.65.33,2.32.94,4.84,1.73,7.05.55,1.52,1.38,2.98,2.36,4.26.78,1.01,1.65,2.4,2.65,3.15-1.1-1.52-1.74-3.48-2.65-5.17-.99-1.82-2.11-3.73-2.36-5.82-.21-1.71-.63-3.46-.69-5.17-.06-1.85-.11-4.34.68-6.03.29-.61.72-1.1.97-1.73.27-.67.41-1.39.64-2.08.54-1.58,1.77-2.67,2.73-4,1.05-1.48,2.71-2.71,4.16-3.78,1.41-1.03,2.78-1.82,4.41-2.4.73-.26,3.75-1.58,1.84-2.41-.9-.39-1.94-.05-2.74.33l.38-.15Z"/>
            <path class="cls-5" d="M16.27,38.72c-.9-.5-1.78-1.04-2.31-1.64h-.01c-.06-.08-.12-.15-.17-.23.18-.11.37-.19.56-.24.56.72,1.16,1.39,1.82,2.01h.01s.06.08.1.1Z"/>
            <path class="cls-5" d="M22.03,42.5c-.11.06-.22.16-.32.28-.06.07-.12.16-.17.26-.06.1-.12.22-.17.35-.05-.16-.11-.32-.17-.47-.07-.16-.15-.32-.25-.46-.17-.28-.37-.53-.6-.77.54.3,1.1.57,1.68.81Z"/>
            <path class="cls-5" d="M36.99,42.55s-.02.02-.03.03c-.32.26-.65.58-.97.91-.34.37-.67.74-.93,1.05-.31.35-.54.62-.64.72-.22.21-.52.53-.84.84-.02.03-.04.05-.06.07-.43.41-.89.81-1.23.96-.91.41-1.34-.19-2.39-.3-.9-.09-1.94.46-2.78.05-.09-.04-.17-.1-.25-.16-.15-.12-.28-.26-.41-.42-.3-.37-.57-.82-.79-1.18-.07-.11-.13-.2-.19-.29,0,0,0,0-.01,0-.18-.26-.47-.65-.81-1.03-.05-.05-.1-.11-.14-.16-.13-.13-.26-.26-.39-.38,1.73.51,3.55.78,5.44.78.33,0,.67-.01,1-.03h.07c.34-.02.68-.05,1.01-.08.16-.02.33-.04.49-.06.24-.04.48-.07.72-.11.08-.02.17-.03.25-.05.34-.06.69-.14,1.03-.22h.02s.02,0,.03,0c0,0,0,0,0,0,.15-.04.3-.07.44-.11.04-.01.07-.02.11-.03.2-.05.39-.11.58-.17.57-.18,1.12-.38,1.67-.61Z"/>
            <path class="cls-5" d="M53.8,25.73c-.12,2.53-.69,6.71-3.05,8.19-.19.12-.36.21-.5.27-.54.22-.75.04-.91-.25-.23-.43-.34-1.12-1.29-.94-.01,0-.03,0-.04,0-.07.02-.14.05-.2.09-.21.12-.42.35-.62.64h0c-.36.51-.69,1.19-.98,1.78-.01.01-.01.02-.02.03,0,.01,0,.02-.02.03-.22.47-.42.86-.59,1.09-.54.71-1.18,1.33-1.86,1.89t-.02.02c-.4.35-.82.67-1.24.99-.82.64-1.64,1.25-2.38,1.94-.23.2-.45.42-.66.65-.23.25-.46.52-.66.8-.01-.2-.04-.36-.07-.49-.05-.16-.11-.28-.19-.36-.06-.06-.13-.1-.2-.13-.02,0-.04-.01-.06-.01,2.2-1.09,4.15-2.6,5.76-4.42,3.05-3.42,4.91-7.92,4.91-12.86,0-.73-.04-1.44-.12-2.15-.32-2.86-1.26-5.53-2.68-7.87-.09-.16-.19-.32-.3-.46-1.18-1.85-2.68-3.48-4.41-4.81-.45-.35-.91-.68-1.39-.98-1.57-1.02-3.31-1.81-5.16-2.33,0-.21.01-.43.02-.64,0-.07,0-.15,0-.22.05-1.18.11-2.32-.5-3.23-.03-.05-.06-.1-.1-.14-.26-.36-.64-.67-1.18-.94l-.21-.41-.25-.51c.14.23.41.43.76.59,1.2.58,3.32.83,4.26,1.22,2.04.83,3.97,1.93,5.78,3.16,4.36,2.95,6.77,6.41,8.72,11.33,1.24,3.11,1.78,6.04,1.64,9.43Z"/>
          </g>
          <g>
            <path class="cls-10" d="M5.54,30.5c.24-.89.92-1.92,1.47-2.67.8,1.19,1.76,2.47,1.88,3.96.01-.96.8-1.84,1.43-2.43.2,1.36,1.93,2.22,2.75,3.21.84,1.02,1.05,2.19,1.45,3.19.07-.56.41-1.14.71-1.62.33,1.08,1.84,1.28,2.7,1.97,1.31,1.05,1.8,2.69,2.98,3.77.1-1.03,1.03-1.66,1.51-2.5.31,1.08,1.88,1.73,2.52,2.65.69.98,1.25,2.05,1.77,3.09.51-.54,1.84-.57,2.57-.53,1.21.07,1.86.56,2.75,1.3.29-.2.12-.39.3-.66.31-.47.78-.79,1.2-1.18,1.02-.91,2.04-1.86,2.89-2.93.19-.24.38-.84.61-1,.4-.29.1-.16.53.08.65.35,1.16,1.18,1.61,1.74-.76-.88,1.55-2.54,2.14-2.97,1.23-.9,2.64-1.41,3.63-2.62,1.22-1.47,2.88-3.7,2.83-5.76,1.18.49,1.74,1.64,2.19,2.81.36-.72,1.42-1.08,1.98-1.65.46-.47.7-1.04.97-1.61.58,3.84-2.09,8.22-5.02,10.46-4.08,3.13-8.53,5.71-13.15,7.92-2.02.97-4.15,1.46-6.39,1-2.31-.47-4.3-1.95-6.14-3.4-1.06-.83-2.59-2.11-3.96-2.15-1.53-.05-3.09-.62-4.3-1.6-2.07-1.68-3.23-4.25-5.4-5.81-.86-.62-1.98-1.19-2.4-2.22-.25-.6-.13-1.66-.63-2.08v.23Z"/>
            <path class="cls-6" d="M5.85,30.66c-.84-.35.18-2.35.17-3,1.62,1.42,2.29,2.71,2.8,4.74.16-.4.6-1.58,1.14-1.5.43.07,1.49,1.49,1.91,1.78,1.71,1.22,2.14,2.45,2.6,4.45.2-.53.55-1.15.82-1.69,2.1,1.75,4.97,2.64,5.86,5.51.16-.62.77-1.39,1.29-1.73.45.91,1.83,1.47,2.53,2.22.78.83,1.56,1.71,2.12,2.69.74-.09,4.95-.7,3.71,1.18-.47.71-1.6,1.45-2.25,2.01-.82.7-1.69,1.36-2.7.76-.87-.52-1.83-1.24-2.59-1.93-.91-.83-1.62-1.15-2.71-1.64-.86-.38-1.41-1.16-2.23-1.6-.79-.44-1.67-.28-2.49-.59-1.12-.42-2.1-2.05-2.81-3.02-.85-1.17-1.68-2.32-2.68-3.38-.45-.48-.89-1.06-1.46-1.4-.4-.24-.9-.32-1.28-.61-.73-.57-2.05-2.54-1.9-3.54l.15.31Z"/>
            <g>
              <g>
                <path class="cls-11" d="M54.43,33.47c.22-.12.28-.87.34-1.13.14-.67.39-1.37.76-1.9.59-.84,1.31-1.05,2.16-1.33.43-.14.74-.35,1.08-.65.36,2.07-.5,4.23-2.14,5.15-.36.2-.71.34-1.11.42-.22.04-.47.15-.7.11-.32-.05-.35-.33-.32-.67.03-.02.02.02.04.02l-.12-.03Z"/>
                <path class="cls-3" d="M58.72,28.59c-.19.86-.96,1.43-1.47,2.06-.3.37-.53.81-.81,1.21-.25.35-.53.67-.76,1.04-.19.3-.51.99-.82,1.12-.42.17-.44-.39-.32-.68.23-.52.29-1.08.46-1.62.11-.36.2-.72.39-1.03.18-.3.47-.5.71-.73-.03.22-.25.44-.35.64-.14.29-.27.6-.33.93-.03.16-.14.59.09.55.08,0,.23-.29.28-.36.15-.21.28-.43.44-.63.5-.64,1.24-.95,1.8-1.51.28-.27.75-.59.78-1.06-.03.02-.09.05-.12.09l.02-.02Z"/>
                <path class="cls-3" d="M58.68,28.63c-.13.54-.7.97-1.04,1.34-.46.51-.9,1-1.31,1.56-.2.26-.42.49-.61.75-.13.18-.23.43-.43.53-.39.19-.25-.52-.25-.79-.27.02-.42,1.17-.45,1.43-.03.2-.04.45.19.46.28,0,.64-.69.81-.92.6-.79,1.12-1.67,1.75-2.42.41-.49.79-1.05,1.11-1.62.06-.1.19-.32.15-.38l.08.05Z"/>
                <path class="cls-3" d="M58.66,28.65c-.21.2-.39.53-.59.76-.27.33-.52.66-.77,1-.25.33-.49.65-.73.99-.13.18-.43.49-.46.72.28.01.67-.29.9-.46.36-.25.7-.58,1-.93.36-.42.79-1.13.78-1.76-.03.51.06.99-.06,1.49-.1.44-.27.93-.51,1.3-.36.57-.79,1.06-1.29,1.46-.38.3-.79.52-1.23.68-.27.1-1.16.33-.81-.31.47-.89,1.1-1.63,1.71-2.39.35-.44.75-.82,1.1-1.27.13-.18.81-.94.76-1.12l.21-.16Z"/>
                <path class="cls-1" d="M58.67,28.73c-.66.71-1.23,1.48-1.81,2.28-.31.42-.63.83-.93,1.26-.17.24-.39.7-.61.85-.45.31-.16-.97-.54-.23-.14.28-.43.91-.12,1.15.34.26.99-.13,1.32-.27.28-.12.56-.23.81-.4.22-.15.62-.4.73-.66-.24-.04-.61.27-.83.37-.15.07-.7.39-.84.21-.18-.23.74-1.29.87-1.49.36-.56.75-1.1,1.07-1.69.14-.26.31-.51.47-.76.14-.21.36-.41.42-.66-.03.01-.06.02-.08.04h.06Z"/>
              </g>
              <path class="cls-14" d="M58.62,28.65c-.36.22-.71.46-1.11.61-.38.14-.77.24-1.13.49-.2.14-.41.33-.48.6-.08.32.12.38.35.27.26-.13.48-.4.74-.55.25-.15.52-.26.75-.45.13-.11.93-.91.86-.99l.02.02Z"/>
              <path class="cls-8" d="M56.42,31.71c-.33.32-.63.81-.89,1.22-.1.16-.25.39-.4.49-.31.19-.17-.18-.33-.34-.16-.17-.2.22-.21.39-.02.2-.04.4.1.5.25.17.75,0,1.01-.08.34-.09.83-.22,1.08-.53-.43.01-.9.35-1.35.28-.05-.31.33-.83.46-1.09.14-.27.29-.5.45-.77,0,.05-.02.02-.04.04l.12-.11Z"/>
            </g>
            <g>
              <g>
                <path class="cls-11" d="M51.38,35.96c.17-.24-.15-1.06-.22-1.36-.19-.77-.29-1.62-.17-2.37.18-1.18.82-1.74,1.55-2.45.37-.35.59-.72.79-1.21,1.42,2.02,1.62,4.71.4,6.47-.27.38-.56.7-.92.98-.21.16-.4.38-.66.46-.35.1-.53-.18-.67-.56.03-.04.03,0,.05,0l-.14.03Z"/>
                <path class="cls-3" d="M53.32,28.73c.24.99-.26,1.98-.48,2.89-.12.54-.13,1.11-.22,1.67-.07.49-.21.96-.26,1.47-.04.41-.02,1.29-.28,1.58-.34.38-.65-.21-.67-.57-.03-.65-.25-1.28-.35-1.94-.06-.43-.15-.85-.12-1.28.03-.4.23-.76.36-1.12.08.25-.03.59-.03.85,0,.38.03.77.13,1.15.05.18.16.68.37.54.08-.05.09-.42.11-.52.04-.3.07-.59.13-.88.18-.92.79-1.6,1.09-2.47.15-.42.48-.99.27-1.49-.02.04-.06.1-.08.15v-.03Z"/>
                <path class="cls-3" d="M53.3,28.79c.14.64-.23,1.37-.39,1.92-.21.76-.42,1.49-.56,2.29-.07.37-.19.71-.25,1.09-.04.25-.02.57-.17.76-.3.38-.52-.42-.66-.71-.27.15.16,1.43.26,1.73.08.22.18.49.43.39.29-.13.31-1.04.37-1.36.21-1.12.31-2.31.58-3.4.18-.72.28-1.5.33-2.25,0-.13.03-.43-.04-.47l.1.02Z"/>
                <path class="cls-3" d="M53.29,28.83c-.12.31-.14.75-.22,1.09-.11.47-.2.95-.29,1.43-.08.46-.18.92-.25,1.39-.04.26-.2.72-.11.98.29-.12.54-.63.7-.92.24-.44.42-.95.55-1.46.16-.62.24-1.58-.09-2.24.22.55.56,1.02.7,1.61.12.51.19,1.12.13,1.62-.08.78-.27,1.5-.59,2.16-.24.51-.55.94-.93,1.31-.23.23-1.02.91-.99.06.04-1.17.31-2.26.55-3.36.14-.63.36-1.23.48-1.87.05-.24.36-1.38.21-1.54l.13-.27Z"/>
                <path class="cls-1" d="M53.35,28.89c-.32,1.07-.52,2.16-.71,3.29-.1.6-.23,1.18-.32,1.78-.05.33-.04.92-.2,1.19-.31.55-.66-.95-.67.02,0,.36.02,1.16.46,1.27.48.11.95-.62,1.22-.92.23-.26.46-.51.64-.82.15-.26.44-.72.42-1.05-.27.07-.49.57-.67.79-.12.15-.52.76-.75.63-.3-.16.11-1.72.14-2,.09-.77.22-1.53.24-2.3.01-.34.06-.69.1-1.02.03-.29.16-.6.1-.9-.02.03-.04.05-.06.08l.06-.03Z"/>
              </g>
              <path class="cls-14" d="M53.25,28.85c-.26.41-.5.82-.83,1.17-.32.33-.68.63-.91,1.06-.13.24-.25.55-.19.86.08.38.32.35.5.12.21-.26.29-.65.49-.94.18-.28.4-.52.54-.83.08-.18.5-1.41.38-1.46h.03Z"/>
              <path class="cls-8" d="M52.54,33.14c-.18.5-.24,1.16-.3,1.72-.02.22-.06.54-.16.71-.22.35-.26-.11-.51-.2-.26-.1-.09.33-.02.52.08.22.15.44.36.47.34.06.77-.37,1-.57.3-.26.74-.63.84-1.08-.43.22-.75.81-1.25.95-.21-.31-.08-1.04-.08-1.38,0-.36.05-.68.08-1.03.02.05-.01.03-.03.06l.07-.18Z"/>
            </g>
            <g>
              <g>
                <path class="cls-11" d="M51.89,36.16c.29.02.86-.66,1.08-.87.58-.55,1.28-1.07,2-1.35,1.12-.44,1.94-.18,2.93.08.5.13.93.14,1.46.06-1.06,2.22-3.32,3.77-5.49,3.61-.47-.04-.9-.12-1.32-.29-.25-.1-.54-.15-.73-.33-.26-.25-.1-.54.16-.85.05,0,0,.03.02.04l-.09-.1Z"/>
                <path class="cls-3" d="M59.22,34.15c-.76.71-1.87.78-2.78,1.05-.53.17-1.04.45-1.58.66-.47.18-.95.31-1.42.52-.38.17-1.15.64-1.53.56-.51-.1-.15-.66.16-.85.55-.36.99-.86,1.52-1.28.35-.27.67-.56,1.07-.75.37-.17.78-.18,1.16-.25-.18.19-.53.27-.76.4-.33.2-.66.41-.94.69-.13.13-.52.48-.29.59.09.04.41-.13.5-.17.28-.11.56-.24.84-.33.9-.31,1.8-.13,2.72-.31.44-.09,1.11-.1,1.45-.53-.05,0-.12,0-.17,0h.04Z"/>
                <path class="cls-3" d="M59.15,34.17c-.49.44-1.31.49-1.88.64-.77.21-1.52.39-2.29.68-.36.13-.72.2-1.08.34-.24.09-.51.27-.75.24-.49-.06.11-.65.29-.92-.27-.16-1.18.86-1.39,1.09-.16.18-.34.41-.13.56.25.18,1.07-.26,1.38-.38,1.09-.38,2.18-.9,3.27-1.22.72-.21,1.46-.52,2.14-.86.12-.06.39-.19.39-.27l.04.1Z"/>
                <path class="cls-3" d="M59.12,34.18c-.33.06-.72.26-1.07.37-.47.14-.94.31-1.4.48-.46.16-.9.31-1.35.5-.24.1-.74.19-.92.4.25.19.82.14,1.16.13.51-.02,1.05-.12,1.56-.27.63-.18,1.51-.59,1.92-1.21-.37.46-.62.99-1.06,1.4-.39.36-.89.73-1.36.94-.72.32-1.45.52-2.2.59-.56.05-1.09,0-1.62-.12-.32-.08-1.31-.41-.55-.81,1.04-.56,2.14-.88,3.22-1.23.63-.2,1.26-.32,1.88-.53.24-.08,1.4-.39,1.46-.6l.3-.02Z"/>
                <path class="cls-1" d="M59.09,34.26c-1.1.27-2.16.65-3.24,1.06-.57.21-1.15.4-1.72.62-.32.13-.83.43-1.15.44-.63.02.51-1.04-.35-.57-.32.18-1.01.61-.89,1.03.14.47,1.02.49,1.42.57.34.06.68.13,1.04.13.3,0,.86,0,1.13-.18-.19-.19-.75-.12-1.03-.16-.19-.03-.92-.06-.93-.32,0-.34,1.57-.78,1.83-.89.72-.31,1.45-.58,2.14-.96.31-.17.63-.3.95-.44.27-.12.62-.16.84-.37-.03,0-.07-.01-.1-.02l.06.04Z"/>
              </g>
              <path class="cls-14" d="M59.08,34.15c-.49-.02-.97,0-1.45-.11-.46-.11-.89-.26-1.39-.24-.28.01-.61.06-.85.27-.29.26-.15.45.14.48.34.04.72-.08,1.07-.07.33.02.65.08,1,.04.2-.02,1.49-.29,1.48-.41v.04Z"/>
              <path class="cls-8" d="M54.95,35.72c-.53.1-1.14.39-1.66.62-.2.09-.5.22-.71.22-.42,0-.04-.28-.08-.54-.04-.26-.33.09-.47.25-.15.17-.31.35-.23.54.12.32.71.47,1,.56.38.12.93.31,1.37.17-.41-.26-1.08-.23-1.46-.58.16-.34.87-.6,1.17-.76.31-.18.62-.3.94-.46-.03.05-.03,0-.07.01l.19-.03Z"/>
            </g>
            <g>
              <g>
                <path class="cls-11" d="M46.79,42.5c.24-.46-.51-1.57-.71-1.99-.51-1.1-.89-2.37-.86-3.59.04-1.93,1.01-3.14,2.12-4.64.56-.75.86-1.44,1.08-2.31,2.94,2.36,3.94,6.44,2.22,9.85-.38.75-.81,1.4-1.37,2.02-.33.36-.61.82-1.04,1.07-.59.34-.96,0-1.29-.5.04-.07.06,0,.08-.02l-.23.12Z"/>
                <path class="cls-3" d="M48.44,30.2c.65,1.42.01,3.22-.14,4.75-.09.9.04,1.8.02,2.71-.01.8-.14,1.61-.11,2.42.02.67.27,2.03-.11,2.61-.51.79-1.17.04-1.29-.52-.21-1-.73-1.85-1.06-2.82-.21-.63-.47-1.25-.51-1.92-.03-.64.23-1.3.37-1.92.2.34.09.93.15,1.33.09.59.23,1.18.5,1.71.13.26.43.98.78.63.12-.12.06-.7.06-.85,0-.49,0-.96.02-1.44.1-1.53.99-2.92,1.31-4.43.16-.73.59-1.79.11-2.47-.03.08-.09.19-.1.28v-.06Z"/>
                <path class="cls-3" d="M48.43,30.32c.4.91-.08,2.25-.22,3.19-.19,1.3-.38,2.54-.43,3.86-.03.61-.16,1.21-.17,1.82,0,.42.1.9-.12,1.27-.44.76-1-.38-1.31-.75-.43.38.62,2.14.86,2.55.18.31.44.67.83.38.47-.35.29-1.78.32-2.32.1-1.85-.01-3.75.2-5.59.14-1.21.13-2.47.03-3.68-.02-.2-.05-.67-.17-.71l.19-.03Z"/>
                <path class="cls-3" d="M48.42,30.38c-.13.55-.06,1.23-.12,1.82-.09.79-.13,1.59-.17,2.38-.04.77-.09,1.53-.1,2.3,0,.42-.18,1.23.04,1.58.48-.35.79-1.28.99-1.81.32-.82.51-1.71.62-2.58.13-1.05.04-2.58-.69-3.43.52.72,1.21,1.28,1.59,2.11.33.73.6,1.63.62,2.44.04,1.25-.12,2.48-.52,3.68-.3.92-.72,1.74-1.3,2.54-.35.49-1.56,1.97-1.71.63-.21-1.83,0-3.68.16-5.51.09-1.06.33-2.11.4-3.17.03-.41.3-2.35.01-2.52l.16-.49Z"/>
                <path class="cls-1" d="M48.53,30.45c-.3,1.84-.38,3.63-.45,5.49-.03.98-.12,1.96-.14,2.93,0,.55.15,1.46-.06,1.97-.4,1.01-1.37-1.12-1.17.38.08.57.31,1.8,1.1,1.73.86-.08,1.5-1.46,1.9-2.1.33-.52.68-1.04.91-1.61.2-.49.6-1.37.48-1.86-.45.25-.71,1.15-.97,1.59-.17.29-.73,1.46-1.16,1.39-.56-.09-.22-2.73-.23-3.18-.02-1.24.03-2.49-.12-3.71-.07-.54-.06-1.1-.07-1.64,0-.46.15-1.03-.04-1.46-.03.05-.07.1-.09.16l.1-.08Z"/>
              </g>
              <path class="cls-14" d="M48.35,30.43c-.35.77-.67,1.55-1.17,2.27-.48.69-1.02,1.34-1.33,2.14-.17.45-.31.99-.13,1.44.23.54.63.38.89-.08.3-.52.36-1.18.62-1.72.26-.52.57-1.02.74-1.58.1-.32.53-2.46.32-2.48h.06Z"/>
              <path class="cls-8" d="M48.13,37.49c-.2.87-.14,1.93-.11,2.84,0,.35.03.87-.11,1.19-.3.66-.48-.03-.93-.04-.46-.02-.07.56.09.82.18.3.37.61.74.54.61-.1,1.25-1,1.6-1.43.45-.56,1.13-1.39,1.2-2.14-.7.58-1.11,1.66-1.94,2.15-.44-.37-.39-1.56-.47-2.09-.08-.56-.08-1.07-.11-1.63.05.06,0,.05-.03.11l.08-.32Z"/>
            </g>
            <path class="cls-2" d="M45.92,36.39c.53.16.59,1.14.69,1.57.16.68.27,1.38.26,2.08-.07-1.54,1.55-3.16,2.91-3.75,1.1-.48,2.74-.23,3.36-1.49-.04.32.07.67.04,1-.04.52-.13,1.02-.38,1.49-.63,1.2-1.82,2.11-2.88,2.92-.8.61-1.87,1.18-2.85,1.45-.49.13-.98.2-1.47.34-.41.12-.97.54-1.4.33.22-.57.67-1.07.87-1.67.21-.63.36-1.32.46-1.98.13-.84-.07-1.88.51-2.6l-.13.31Z"/>
            <g>
              <g>
                <path class="cls-11" d="M46.65,40.48c.41.03,1.09-.91,1.37-1.2.73-.76,1.62-1.48,2.56-1.87,1.49-.62,2.64-.3,4.05.02.7.16,1.3.16,2.02.03-1.15,3.01-4.06,5.14-7.06,5.01-.66-.03-1.26-.13-1.86-.35-.35-.12-.77-.18-1.06-.42-.39-.33-.21-.72.09-1.14.06,0,.02.04.03.06l-.14-.13Z"/>
                <path class="cls-3" d="M56.47,37.57c-.94.97-2.47,1.1-3.68,1.5-.71.24-1.38.64-2.08.93-.62.26-1.27.44-1.88.73-.51.24-1.5.89-2.03.8-.72-.11-.29-.87.11-1.15.72-.49,1.25-1.18,1.93-1.75.44-.38.85-.78,1.36-1.03.48-.24,1.05-.27,1.56-.38-.22.27-.7.38-.99.56-.43.27-.85.57-1.2.96-.16.18-.66.66-.31.8.12.05.55-.2.67-.25.37-.16.74-.33,1.11-.47,1.2-.44,2.47-.24,3.7-.51.6-.13,1.51-.16,1.92-.75-.06,0-.17,0-.24.02h.04Z"/>
                <path class="cls-3" d="M56.37,37.59c-.61.61-1.74.7-2.5.92-1.04.29-2.04.57-3.07.98-.48.19-.96.29-1.44.49-.32.13-.67.38-1,.34-.68-.07.06-.88.28-1.24-.39-.2-1.51,1.19-1.77,1.51-.19.24-.41.55-.1.75.38.24,1.43-.38,1.85-.54,1.45-.55,2.88-1.28,4.34-1.74.96-.3,1.93-.74,2.83-1.22.15-.09.51-.27.5-.37l.07.13Z"/>
                <path class="cls-3" d="M56.33,37.61c-.45.09-.96.37-1.42.52-.62.21-1.25.44-1.86.69-.6.23-1.2.45-1.79.71-.32.14-.99.29-1.2.57.37.24,1.16.16,1.61.13.7-.04,1.43-.2,2.12-.4.84-.26,1.99-.85,2.48-1.68-.44.63-.71,1.34-1.27,1.91-.49.5-1.12,1-1.74,1.29-.95.45-1.93.75-2.94.86-.77.08-1.5.04-2.25-.12-.45-.1-1.86-.5-.87-1.07,1.36-.78,2.83-1.24,4.27-1.75.84-.29,1.69-.46,2.52-.77.32-.12,1.87-.57,1.93-.85l.41-.04Z"/>
                <path class="cls-1" d="M56.29,37.71c-1.48.4-2.87.94-4.32,1.52-.76.3-1.53.57-2.28.89-.42.18-1.08.6-1.53.62-.87.04.55-1.41-.56-.75-.42.25-1.31.84-1.08,1.41.26.62,1.46.63,2.04.72.47.08.95.16,1.44.14.42-.01,1.18-.01,1.53-.27-.29-.25-1.04-.14-1.44-.19-.26-.03-1.28-.05-1.33-.41-.06-.45,2.05-1.09,2.39-1.24.94-.43,1.92-.83,2.82-1.35.4-.23.83-.42,1.25-.61.35-.17.82-.24,1.11-.52-.04,0-.09-.01-.14-.02l.08.05Z"/>
              </g>
              <path class="cls-14" d="M56.27,37.57c-.67,0-1.34.02-2.01-.11-.64-.12-1.26-.31-1.95-.27-.38.02-.83.1-1.14.39-.36.36-.14.6.26.64.47.04.98-.13,1.46-.12.46.02.92.09,1.38.03.27-.04,2.01-.43,1.98-.6v.05Z"/>
              <path class="cls-8" d="M50.8,39.8c-.72.15-1.52.55-2.21.88-.27.13-.66.32-.94.32-.58,0-.08-.38-.18-.71-.09-.35-.45.14-.61.34-.19.23-.38.48-.25.74.21.43,1.05.6,1.45.72.53.15,1.32.38,1.91.19-.6-.33-1.52-.27-2.08-.73.18-.45,1.11-.83,1.5-1.06.41-.24.81-.42,1.23-.64-.03.06-.04.01-.09.02l.26-.05Z"/>
            </g>
            <g>
              <g>
                <path class="cls-11" d="M39.95,44.39c.49.1,1.35-.87,1.7-1.16.91-.76,2.02-1.43,3.17-1.73,1.82-.46,3.2.1,4.88.72.84.31,1.56.41,2.43.39-1.51,3.29-5.11,5.27-8.72,4.59-.79-.15-1.51-.37-2.23-.72-.42-.21-.92-.34-1.25-.67-.46-.45-.23-.88.16-1.31.08.02.02.05.03.07l-.17-.18Z"/>
                <path class="cls-3" d="M51.92,42.69c-1.18.96-3.03.85-4.5,1.11-.87.15-1.69.5-2.54.72-.76.2-1.55.29-2.3.53-.62.2-1.84.78-2.48.59-.86-.26-.31-1.06.18-1.31.88-.46,1.56-1.15,2.39-1.71.54-.36,1.06-.76,1.69-.96.59-.2,1.28-.13,1.9-.17-.27.27-.86.32-1.21.48-.53.24-1.05.52-1.49.9-.21.18-.82.65-.41.87.15.08.67-.13.82-.17.46-.13.9-.26,1.36-.36,1.46-.31,2.98.14,4.48.04.73-.05,1.83.07,2.34-.55-.08,0-.2-.03-.29-.02h.06Z"/>
                <path class="cls-3" d="M51.8,42.71c-.76.6-2.13.51-3.05.63-1.27.16-2.48.31-3.74.61-.58.13-1.18.17-1.76.32-.39.1-.82.32-1.23.23-.82-.2.11-1.01.39-1.39-.46-.3-1.87,1.12-2.19,1.45-.24.24-.52.57-.15.85.44.34,1.75-.2,2.26-.31,1.77-.39,3.53-.99,5.31-1.27,1.17-.19,2.36-.53,3.46-.94.19-.07.62-.22.62-.34l.08.17Z"/>
                <path class="cls-3" d="M51.74,42.71c-.54.02-1.17.26-1.73.36-.77.13-1.53.3-2.28.47-.74.16-1.46.31-2.19.51-.39.1-1.2.16-1.48.45.44.34,1.39.38,1.94.43.85.08,1.73.02,2.57-.11,1.03-.15,2.44-.64,3.07-1.52-.56.66-.91,1.44-1.61,2-.61.49-1.39.97-2.15,1.2-1.17.36-2.36.54-3.59.49-.94-.03-1.82-.21-2.7-.52-.54-.19-2.22-.9-1-1.39,1.68-.67,3.46-.95,5.22-1.29,1.02-.19,2.06-.25,3.07-.46.39-.08,2.28-.34,2.37-.64l.5.02Z"/>
                <path class="cls-1" d="M51.7,42.83c-1.8.21-3.51.6-5.27,1.03-.93.22-1.88.4-2.79.64-.51.14-1.33.51-1.87.46-1.05-.1.72-1.54-.65-.96-.51.22-1.62.75-1.36,1.45.28.76,1.74.98,2.43,1.19.57.17,1.14.35,1.73.41.51.05,1.43.19,1.86-.05-.34-.34-1.26-.34-1.73-.46-.31-.08-1.54-.28-1.58-.7-.05-.54,2.52-.91,2.94-1.03,1.16-.34,2.35-.63,3.46-1.08.49-.2,1.02-.34,1.53-.49.43-.13,1-.13,1.36-.41-.05-.02-.11-.04-.16-.05l.1.07Z"/>
              </g>
              <path class="cls-14" d="M51.68,42.67c-.81-.12-1.62-.21-2.41-.47-.77-.26-1.51-.59-2.34-.66-.46-.04-1-.03-1.38.26-.46.35-.2.67.29.79.56.13,1.19.02,1.77.12.56.1,1.1.26,1.66.26.32,0,2.44-.16,2.41-.36v.06Z"/>
              <path class="cls-8" d="M44.99,44.3c-.87.05-1.85.38-2.7.64-.32.1-.81.26-1.15.21-.69-.1-.09-.44-.18-.86-.1-.43-.55.08-.75.29-.24.24-.48.5-.34.81.24.54,1.24.88,1.73,1.08.64.27,1.58.67,2.3.54-.71-.49-1.83-.57-2.48-1.2.23-.5,1.38-.77,1.85-.97.5-.22.99-.35,1.51-.53-.04.07-.05,0-.11,0h.32Z"/>
            </g>
            <g>
              <g>
                <path class="cls-11" d="M38.73,46.5c.4-.34.12-1.64.1-2.11-.07-1.21.07-2.54.56-3.66.76-1.77,2.12-2.54,3.71-3.51.8-.49,1.34-1.02,1.87-1.74,1.83,3.29,1.22,7.45-1.66,9.97-.63.55-1.27.99-2.03,1.36-.44.21-.87.53-1.37.6-.68.1-.89-.36-1.01-.95.06-.05.06.02.09.02l-.26.02Z"/>
                <path class="cls-3" d="M44.9,35.71c.06,1.56-1.21,2.99-1.92,4.35-.42.8-.65,1.69-1.01,2.52-.32.74-.74,1.44-1.02,2.2-.23.62-.51,1.98-1.08,2.38-.77.54-1.1-.41-1-.97.18-1,.02-1.99.08-3.01.04-.67.03-1.33.25-1.98.21-.61.71-1.12,1.07-1.65.05.39-.27.9-.36,1.29-.14.58-.23,1.18-.18,1.77.02.28.03,1.07.48.88.16-.07.31-.63.38-.78.18-.45.35-.89.56-1.33.67-1.38,2.02-2.34,2.89-3.62.42-.62,1.22-1.44,1.03-2.25-.06.06-.15.14-.2.22l.03-.05Z"/>
                <path class="cls-3" d="M44.84,35.82c.02.99-.92,2.05-1.41,2.88-.67,1.13-1.31,2.22-1.86,3.42-.25.55-.6,1.06-.85,1.62-.17.38-.25.87-.59,1.14-.69.54-.78-.73-.93-1.19-.55.19-.24,2.22-.17,2.69.05.35.15.78.63.66.57-.15.94-1.54,1.17-2.03.8-1.68,1.4-3.48,2.3-5.12.58-1.07,1.05-2.24,1.41-3.4.06-.2.21-.65.1-.72l.19.04Z"/>
                <path class="cls-3" d="M44.81,35.87c-.33.46-.52,1.12-.8,1.64-.37.7-.72,1.43-1.05,2.15-.33.7-.66,1.39-.96,2.1-.16.38-.63,1.08-.56,1.48.57-.14,1.21-.89,1.6-1.3.61-.64,1.12-1.39,1.55-2.16.52-.93,1.01-2.38.66-3.44.2.87.64,1.64.67,2.56.03.81-.06,1.74-.35,2.5-.44,1.18-1.05,2.25-1.87,3.22-.62.74-1.33,1.35-2.16,1.87-.5.32-2.18,1.24-1.81-.06.5-1.78,1.39-3.41,2.23-5.05.49-.95,1.1-1.83,1.56-2.79.18-.37,1.16-2.06.96-2.33l.34-.39Z"/>
                <path class="cls-1" d="M44.89,35.98c-.97,1.59-1.73,3.23-2.49,4.92-.4.9-.85,1.77-1.23,2.67-.21.51-.42,1.4-.8,1.8-.75.79-.84-1.56-1.22-.08-.14.56-.39,1.79.36,2.01.83.25,1.94-.8,2.55-1.23.5-.36,1.02-.72,1.45-1.16.37-.38,1.07-1.04,1.14-1.54-.5.06-1.09.81-1.5,1.12-.26.2-1.22,1.08-1.6.85-.48-.29.83-2.62.99-3.04.45-1.15.96-2.3,1.29-3.49.14-.53.36-1.04.56-1.55.17-.44.52-.9.52-1.37-.05.04-.1.07-.14.11l.12-.03Z"/>
              </g>
              <path class="cls-14" d="M44.73,35.89c-.62.58-1.21,1.19-1.94,1.67-.7.47-1.46.87-2.04,1.49-.33.35-.66.8-.66,1.29,0,.59.44.58.85.26.47-.38.77-.96,1.22-1.37.44-.39.92-.73,1.28-1.19.21-.26,1.42-2.08,1.23-2.18l.05.03Z"/>
              <path class="cls-8" d="M41.86,42.36c-.52.74-.86,1.74-1.18,2.59-.12.33-.3.82-.55,1.06-.52.5-.44-.21-.85-.39-.42-.19-.28.5-.23.8.06.34.12.7.48.78.6.14,1.53-.46,2.01-.73.63-.35,1.57-.87,1.92-1.53-.87.28-1.65,1.12-2.6,1.27-.27-.5.23-1.6.36-2.12.14-.54.33-1.03.52-1.56.03.08-.03.05-.07.09l.19-.27Z"/>
            </g>
            <g>
              <g>
                <path class="cls-11" d="M34.12,47.76c.45.23,1.55-.47,1.96-.65,1.09-.48,2.34-.82,3.54-.79,1.88.05,3.05.98,4.48,2.03.72.53,1.39.82,2.23,1.04-2.39,2.75-6.4,3.65-9.68,2.01-.72-.36-1.34-.77-1.93-1.31-.34-.31-.78-.58-1.01-.99-.32-.56.03-.9.52-1.21.07.04,0,.05.02.08l-.11-.22Z"/>
                <path class="cls-3" d="M46.09,49.42c-1.41.6-3.15-.01-4.63-.17-.88-.09-1.76.02-2.65,0-.79-.02-1.57-.14-2.36-.13-.65.02-1.99.24-2.55-.12-.75-.48,0-1.1.55-1.21.98-.19,1.83-.68,2.78-.98.63-.2,1.23-.44,1.89-.46.63-.03,1.26.23,1.87.36-.34.18-.91.07-1.3.13-.58.08-1.16.21-1.68.46-.25.12-.97.4-.64.72.12.12.68.06.83.06.47,0,.93,0,1.41.03,1.49.11,2.82.96,4.29,1.27.71.15,1.73.57,2.41.12-.07-.03-.18-.08-.27-.1h.06Z"/>
                <path class="cls-3" d="M45.98,49.4c-.9.37-2.19-.09-3.11-.23-1.27-.19-2.47-.38-3.76-.44-.59-.03-1.18-.15-1.78-.18-.41-.01-.88.09-1.24-.12-.73-.42.4-.94.77-1.23-.36-.41-2.11.56-2.51.79-.31.17-.67.41-.39.78.33.45,1.73.29,2.25.32,1.81.12,3.67.02,5.46.24,1.18.14,2.41.14,3.59.05.2-.01.66-.04.7-.15l.03.17Z"/>
                <path class="cls-3" d="M45.92,49.4c-.53-.13-1.2-.07-1.77-.13-.77-.09-1.55-.13-2.32-.17-.75-.04-1.5-.1-2.25-.12-.41,0-1.2-.17-1.55.03.33.45,1.23.75,1.73.95.79.31,1.66.49,2.5.6,1.03.13,2.52.06,3.37-.62-.72.48-1.29,1.13-2.11,1.48-.73.3-1.61.55-2.41.56-1.22.02-2.42-.13-3.58-.51-.89-.29-1.68-.7-2.45-1.24-.46-.33-1.88-1.48-.57-1.61,1.8-.18,3.6.03,5.38.2,1.03.09,2.04.32,3.08.4.4.03,2.29.3,2.46.03l.47.16Z"/>
                <path class="cls-1" d="M45.84,49.5c-1.79-.3-3.54-.39-5.35-.47-.96-.04-1.91-.13-2.86-.15-.53,0-1.42.12-1.92-.07-.98-.38,1.13-1.28-.35-1.1-.55.07-1.77.28-1.72,1.02.06.81,1.39,1.42,2,1.8.5.31,1,.65,1.55.87.47.19,1.32.57,1.8.46-.23-.42-1.11-.67-1.53-.92-.28-.16-1.41-.69-1.32-1.11.1-.53,2.67-.18,3.11-.19,1.21,0,2.43.04,3.63-.09.53-.05,1.08-.05,1.61-.05.45,0,1,.15,1.42-.02-.05-.03-.1-.06-.15-.09l.07.1Z"/>
              </g>
              <path class="cls-14" d="M45.87,49.33c-.75-.34-1.5-.64-2.19-1.12-.66-.45-1.28-.98-2.06-1.27-.43-.17-.96-.3-1.41-.13-.54.21-.38.59.05.84.5.28,1.14.34,1.66.6.5.24.98.54,1.52.71.31.09,2.39.52,2.42.32v.05Z"/>
              <path class="cls-8" d="M38.98,49.06c-.85-.19-1.89-.14-2.77-.12-.34,0-.85.02-1.16-.12-.64-.28.04-.45.07-.87.03-.44-.55-.07-.81.07-.29.17-.59.35-.55.69.08.58.94,1.18,1.35,1.51.54.43,1.33,1.07,2.05,1.15-.55-.67-1.59-1.06-2.04-1.84.37-.41,1.54-.36,2.05-.42.55-.07,1.05-.07,1.6-.1-.06.05-.05,0-.11-.03l.31.08Z"/>
            </g>
            <g>
              <g>
                <path class="cls-11" d="M33.34,51.02c.35-.39-.12-1.64-.22-2.1-.25-1.19-.31-2.52,0-3.7.49-1.86,1.72-2.82,3.15-4.01.72-.6,1.18-1.2,1.6-1.99,2.3,3,2.31,7.2-.16,10.1-.54.64-1.11,1.16-1.81,1.63-.4.27-.78.65-1.26.79-.65.2-.93-.23-1.14-.8.05-.05.06.01.09,0l-.25.06Z"/>
                <path class="cls-3" d="M37.85,39.46c.29,1.54-.75,3.13-1.25,4.58-.3.85-.39,1.76-.62,2.64-.2.78-.51,1.54-.67,2.32-.13.65-.22,2.03-.72,2.51-.68.64-1.15-.25-1.13-.82.03-1.02-.28-1.97-.37-2.99-.06-.67-.17-1.32-.04-1.99.12-.63.53-1.21.81-1.78.11.38-.14.93-.17,1.33-.05.6-.05,1.2.09,1.78.06.28.19,1.05.6.8.15-.09.22-.66.26-.82.11-.47.21-.93.36-1.39.46-1.46,1.65-2.6,2.32-3.99.32-.68,1-1.6.69-2.37-.05.07-.13.16-.16.25l.02-.06Z"/>
                <path class="cls-3" d="M37.8,39.57c.17.98-.61,2.17-.96,3.05-.49,1.21-.97,2.38-1.33,3.65-.17.58-.44,1.14-.6,1.73-.11.4-.12.89-.41,1.21-.6.63-.88-.6-1.09-1.04-.51.26.09,2.23.23,2.68.1.34.27.76.72.56.54-.23.7-1.66.86-2.18.54-1.78.87-3.65,1.52-5.39.42-1.14.71-2.38.89-3.57.03-.21.11-.67,0-.73h.19Z"/>
                <path class="cls-3" d="M37.78,39.63c-.26.5-.35,1.18-.55,1.73-.27.75-.5,1.52-.72,2.28-.22.74-.45,1.47-.64,2.22-.1.4-.46,1.16-.33,1.55.54-.22,1.07-1.05,1.39-1.52.5-.72.9-1.54,1.21-2.36.37-.99.65-2.5.14-3.5.33.83.87,1.54,1.04,2.44.15.79.19,1.72.03,2.52-.26,1.23-.7,2.38-1.37,3.45-.51.82-1.12,1.52-1.86,2.16-.45.39-1.97,1.54-1.8.2.23-1.83.87-3.57,1.46-5.32.34-1.01.81-1.96,1.13-2.98.12-.4.84-2.21.6-2.44l.28-.43Z"/>
                <path class="cls-1" d="M37.87,39.73c-.72,1.71-1.23,3.43-1.73,5.22-.27.95-.58,1.88-.83,2.82-.13.53-.2,1.45-.52,1.9-.62.89-1.07-1.42-1.22.1-.06.57-.12,1.82.65,1.94.86.12,1.8-1.07,2.34-1.58.44-.43.91-.86,1.26-1.35.31-.43.9-1.18.9-1.69-.49.13-.96.95-1.32,1.32-.23.24-1.05,1.24-1.46,1.07-.52-.22.43-2.71.53-3.14.27-1.21.61-2.41.76-3.64.06-.54.2-1.08.32-1.62.1-.46.39-.96.31-1.42-.04.04-.09.08-.12.13l.12-.05Z"/>
              </g>
              <path class="cls-14" d="M37.7,39.66c-.53.67-1.02,1.35-1.67,1.93-.63.56-1.31,1.06-1.8,1.77-.27.39-.54.88-.46,1.37.09.58.53.51.88.13.41-.44.62-1.06,1.01-1.53.37-.45.8-.85,1.09-1.36.17-.29,1.1-2.27.89-2.34l.06.03Z"/>
              <path class="cls-8" d="M35.82,46.47c-.4.81-.59,1.85-.78,2.73-.07.34-.17.85-.39,1.13-.44.57-.46-.14-.89-.26-.45-.12-.2.54-.11.82.11.33.22.67.58.7.62.05,1.45-.67,1.89-1.01.57-.44,1.43-1.08,1.67-1.79-.82.4-1.47,1.35-2.39,1.62-.34-.46-.01-1.61.04-2.14.05-.56.17-1.06.28-1.62.04.07-.03.05-.06.1l.15-.29Z"/>
            </g>
            <g>
              <g>
                <path class="cls-11" d="M5.81,34.3c-.27-.16-.16-1.04-.17-1.35-.03-.79-.18-1.63-.54-2.29-.57-1.04-1.46-1.36-2.5-1.77-.52-.21-.89-.47-1.26-.87-.96,2.38-.35,4.99,1.57,6.22.42.28.84.47,1.34.61.29.08.57.22.88.2.42-.03.53-.35.57-.75-.04-.02-.03.02-.05.02l.16-.02Z"/>
                <path class="cls-3" d="M1.38,28.15c.04,1.02.91,1.77,1.43,2.56.3.46.49,1,.76,1.49.24.44.54.84.75,1.29.18.38.43,1.21.8,1.4.5.24.66-.42.57-.77-.17-.62-.12-1.28-.21-1.94-.06-.43-.09-.85-.27-1.24-.16-.36-.5-.63-.75-.92-.01.26.22.54.3.79.11.35.2.73.2,1.12,0,.19.04.7-.25.63-.1-.03-.23-.36-.28-.45-.14-.27-.27-.53-.42-.78-.49-.8-1.38-1.24-1.99-1.95-.3-.35-.84-.77-.76-1.31.04.03.1.07.13.12l-.02-.03Z"/>
                <path class="cls-3" d="M1.42,28.22c.04.64.69,1.2,1.03,1.67.48.64.93,1.26,1.34,1.96.19.33.43.61.61.94.12.22.2.53.43.65.46.26.45-.57.52-.89.35.05.27,1.4.25,1.71-.01.23-.05.53-.35.52-.36-.02-.67-.87-.84-1.16-.59-.98-1.06-2.07-1.71-3-.42-.61-.78-1.31-1.06-2.01-.05-.12-.17-.39-.1-.45l-.11.05Z"/>
                <path class="cls-3" d="M1.44,28.25c.23.25.39.65.59.95.27.4.52.82.77,1.25.24.41.49.81.71,1.23.12.23.45.61.43.88-.36-.01-.8-.41-1.06-.62-.41-.33-.77-.75-1.08-1.19-.37-.53-.76-1.4-.6-2.14-.08.59-.31,1.15-.28,1.75.02.53.13,1.11.35,1.57.34.7.78,1.32,1.34,1.83.43.39.9.69,1.45.92.33.14,1.43.51,1.13-.28-.41-1.09-1.05-2.02-1.66-2.97-.35-.55-.78-1.04-1.12-1.59-.13-.21-.84-1.18-.72-1.38l-.23-.21Z"/>
                <path class="cls-1" d="M1.4,28.33c.69.9,1.25,1.85,1.81,2.85.3.52.63,1.03.91,1.56.16.3.33.85.59,1.06.51.41.44-1.12.76-.22.12.34.34,1.1-.12,1.35-.5.27-1.25-.25-1.66-.45-.33-.16-.67-.32-.96-.55-.25-.19-.72-.53-.8-.84.32-.03.72.37.99.52.17.1.82.54,1.04.33.29-.26-.66-1.58-.78-1.83-.34-.69-.72-1.36-.99-2.08-.12-.32-.28-.63-.43-.93-.13-.26-.38-.51-.4-.81.03.01.06.03.1.05h-.08Z"/>
              </g>
              <path class="cls-14" d="M1.5,28.25c.42.29.82.6,1.29.82.46.21.95.36,1.35.69.22.18.46.43.48.74.03.38-.25.44-.52.28-.31-.18-.53-.52-.83-.72-.29-.2-.61-.35-.86-.59-.15-.14-1-1.16-.89-1.25l-.03.03Z"/>
              <path class="cls-8" d="M3.63,32.04c.36.41.63,1.02.87,1.52.09.2.23.49.4.61.36.26.26-.19.5-.37.25-.18.2.28.19.48-.02.23-.03.46-.25.57-.37.17-.98-.09-1.29-.2-.41-.14-1.02-.35-1.28-.73.55.06,1.09.51,1.69.46.14-.36-.23-1-.34-1.32-.11-.33-.26-.62-.4-.94-.01.05.02.02.05.05l-.13-.14Z"/>
            </g>
            <g>
              <g>
                <path class="cls-11" d="M7.81,36.56c-.14-.26.3-1.03.41-1.31.3-.74.52-1.57.51-2.32-.02-1.19-.56-1.84-1.19-2.65-.31-.4-.48-.8-.61-1.31-1.69,1.79-2.28,4.42-1.32,6.35.21.42.45.78.78,1.1.18.19.35.44.59.55.34.15.55-.11.74-.45-.02-.04-.03,0-.05,0l.13.05Z"/>
                <path class="cls-3" d="M6.92,29.11c-.37.95-.02,2,.06,2.93.04.55-.03,1.12-.03,1.69,0,.5.07.98.05,1.48-.02.42-.16,1.29.05,1.61.29.43.67-.11.74-.46.13-.64.43-1.23.62-1.87.13-.41.27-.82.3-1.25.03-.4-.13-.78-.2-1.15-.11.23-.05.59-.09.84-.06.37-.14.75-.3,1.11-.07.17-.25.65-.45.48-.07-.07-.03-.43-.03-.53,0-.3.01-.6,0-.89-.05-.94-.56-1.7-.73-2.6-.08-.44-.33-1.05-.05-1.52.02.04.05.11.06.16v-.04Z"/>
                <path class="cls-3" d="M6.93,29.19c-.23.61.04,1.38.11,1.95.11.79.2,1.53.23,2.35.01.38.08.74.09,1.12,0,.25-.06.57.06.78.25.42.57-.34.75-.61.25.19-.36,1.4-.5,1.67-.11.21-.25.47-.48.33-.27-.17-.16-1.07-.17-1.4-.05-1.14.02-2.33-.09-3.45-.08-.73-.06-1.52,0-2.28.01-.13.03-.43.11-.46h-.11Z"/>
                <path class="cls-3" d="M6.93,29.22c.07.33.03.76.06,1.11.04.48.07.97.08,1.46.01.48.05.94.05,1.42,0,.26.1.75-.03.98-.27-.16-.45-.71-.56-1.01-.18-.47-.28-1-.34-1.53-.07-.64-.01-1.6.41-2.2-.3.51-.7.93-.92,1.48-.19.49-.35,1.07-.36,1.58-.03.78.06,1.53.27,2.23.17.53.41,1,.73,1.43.2.26.88,1.05.97.21.13-1.16.02-2.28-.07-3.4-.05-.65-.18-1.27-.21-1.92-.01-.25-.16-1.43,0-1.56l-.09-.29Z"/>
                <path class="cls-1" d="M6.87,29.28c.16,1.11.2,2.21.23,3.35.02.61.06,1.2.06,1.81,0,.34-.09.92.03,1.21.22.59.79-.84.66.11-.05.36-.18,1.15-.63,1.19-.49.04-.85-.75-1.08-1.09-.19-.28-.38-.57-.51-.9-.11-.28-.33-.78-.26-1.1.25.1.4.63.55.88.09.16.41.82.66.73.32-.12.14-1.72.15-2,.01-.77,0-1.54.08-2.32.04-.34.04-.69.05-1.03,0-.29-.08-.62.03-.91.02.03.04.06.05.09l-.06-.04Z"/>
              </g>
              <path class="cls-14" d="M6.97,29.25c.2.44.38.89.66,1.28.27.38.58.72.75,1.19.09.25.18.58.07.88-.13.36-.36.3-.51.05-.17-.29-.2-.69-.35-1-.14-.3-.32-.57-.42-.9-.05-.19-.29-1.46-.17-1.5h-.04Z"/>
              <path class="cls-8" d="M7.07,33.6c.11.52.07,1.19.05,1.75,0,.22-.02.54.06.73.17.38.27-.07.53-.13.27-.06.04.35-.05.52-.1.21-.21.41-.42.41-.35,0-.71-.48-.91-.71-.26-.3-.64-.74-.68-1.19.4.28.63.91,1.1,1.12.25-.27.23-1.01.28-1.34.05-.36.05-.68.07-1.03-.03.05,0,.04.02.07l-.04-.19Z"/>
            </g>
            <g>
              <g>
                <path class="cls-11" d="M7.48,36.46c-.3.03-.86-.66-1.08-.87-.59-.55-1.29-1.06-2-1.34-1.13-.43-1.94-.17-2.93.1-.49.14-.93.14-1.46.07,1.07,2.22,3.34,3.75,5.51,3.58.47-.04.9-.13,1.32-.3.24-.1.54-.15.73-.34.26-.25.1-.54-.16-.85-.04,0,0,.03-.02.04l.09-.1Z"/>
                <path class="cls-3" d="M.14,34.5c.76.7,1.87.77,2.78,1.04.54.16,1.05.45,1.58.65.47.18.95.3,1.42.51.39.17,1.15.63,1.53.56.51-.1.14-.66-.17-.86-.56-.36-1-.85-1.53-1.27-.35-.27-.68-.56-1.07-.74-.37-.17-.78-.18-1.16-.25.18.19.53.27.76.4.33.19.66.41.94.69.13.13.53.48.29.59-.08.04-.41-.13-.5-.17-.28-.11-.56-.23-.84-.33-.9-.3-1.8-.13-2.72-.3-.44-.08-1.11-.09-1.45-.52.05,0,.12,0,.17,0h-.03Z"/>
                <path class="cls-3" d="M.21,34.52c.49.44,1.32.48,1.88.63.78.2,1.52.39,2.3.67.36.13.72.19,1.08.33.25.09.51.27.76.24.49-.07-.12-.66-.3-.92.27-.16,1.19.86,1.4,1.09.16.17.34.4.13.56-.25.19-1.07-.25-1.38-.36-1.09-.38-2.19-.89-3.28-1.21-.72-.21-1.46-.51-2.15-.85-.12-.06-.39-.19-.39-.27l-.04.1Z"/>
                <path class="cls-3" d="M.25,34.53c.33.05.72.25,1.07.36.47.14.94.3,1.4.47.45.16.9.31,1.36.49.24.1.74.19.92.4-.25.19-.83.14-1.15.13-.51-.01-1.05-.12-1.57-.26-.63-.18-1.51-.59-1.93-1.2.37.46.62.99,1.07,1.4.4.36.89.72,1.36.93.72.31,1.46.52,2.2.58.57.05,1.09,0,1.62-.13.32-.08,1.31-.41.55-.82-1.05-.55-2.15-.86-3.23-1.21-.63-.2-1.26-.31-1.89-.52-.24-.08-1.4-.38-1.46-.59l-.3-.02Z"/>
                <path class="cls-1" d="M.28,34.6c1.1.27,2.16.64,3.25,1.04.57.21,1.15.39,1.72.62.32.13.83.42,1.15.43.63.01-.51-1.04.35-.57.32.18,1.02.6.89,1.03-.14.47-1.01.5-1.42.58-.34.07-.68.14-1.04.13-.31,0-.86.01-1.13-.17.19-.19.75-.13,1.03-.17.19-.03.92-.06.93-.33,0-.34-1.57-.77-1.83-.88-.72-.3-1.45-.57-2.15-.94-.31-.17-.64-.29-.96-.43-.27-.11-.61-.16-.85-.37.03,0,.07-.01.1-.01l-.05.04Z"/>
              </g>
              <path class="cls-14" d="M.28,34.5c.49-.02.97-.01,1.44-.12.45-.11.89-.27,1.39-.25.28,0,.61.05.85.27.29.26.15.45-.14.49-.34.04-.72-.08-1.07-.06-.33.02-.65.09-1,.05-.2-.02-1.49-.28-1.48-.4v.03Z"/>
              <path class="cls-8" d="M4.42,36.04c.53.1,1.14.38,1.67.61.2.09.5.22.71.22.42-.01.03-.28.07-.54.04-.26.34.09.47.24.15.17.31.35.24.54-.12.32-.71.47-1,.57-.38.12-.93.31-1.37.18.41-.26,1.08-.23,1.45-.59-.17-.33-.87-.59-1.17-.76-.32-.18-.62-.3-.94-.45.03.05.03,0,.07,0l-.2-.03Z"/>
            </g>
            <g>
              <g>
                <path class="cls-11" d="M13.89,42.96c-.33-.41.2-1.64.32-2.09.3-1.18.43-2.5.17-3.7-.4-1.88-1.59-2.89-2.95-4.15-.69-.63-1.12-1.25-1.5-2.06-2.44,2.89-2.66,7.08-.33,10.1.51.66,1.06,1.21,1.73,1.72.39.29.75.69,1.22.85.64.22.94-.19,1.17-.74-.05-.06-.06,0-.08,0l.25.07Z"/>
                <path class="cls-3" d="M9.94,31.21c-.37,1.52.6,3.16,1.03,4.63.26.87.31,1.78.49,2.67.17.79.44,1.56.57,2.35.1.66.12,2.04.6,2.54.65.68,1.16-.19,1.17-.76.02-1.02.37-1.95.51-2.97.09-.66.23-1.31.14-1.98-.09-.63-.47-1.24-.72-1.82-.13.37.09.93.11,1.33.02.59,0,1.2-.17,1.77-.08.27-.24,1.05-.64.78-.15-.1-.19-.67-.22-.83-.09-.47-.17-.94-.29-1.41-.39-1.48-1.53-2.67-2.12-4.09-.29-.69-.92-1.64-.57-2.4.05.07.12.17.15.26l-.02-.05Z"/>
                <path class="cls-3" d="M9.98,31.32c-.22.97.5,2.19.82,3.09.43,1.24.85,2.42,1.15,3.71.14.6.38,1.16.51,1.76.09.41.07.9.35,1.23.57.66.91-.56,1.15-.98.5.28-.2,2.22-.36,2.67-.12.34-.3.74-.75.53-.53-.25-.62-1.69-.75-2.21-.46-1.8-.7-3.69-1.25-5.46-.37-1.16-.6-2.4-.72-3.6-.02-.2-.08-.67.04-.72h-.19Z"/>
                <path class="cls-3" d="M10,31.37c.23.51.29,1.2.46,1.76.23.76.42,1.54.61,2.31.18.75.38,1.49.53,2.24.08.41.4,1.18.26,1.56-.54-.25-1.01-1.1-1.32-1.58-.47-.74-.82-1.58-1.09-2.41-.33-1.01-.53-2.52.03-3.5-.37.81-.95,1.49-1.16,2.38-.19.79-.28,1.72-.15,2.52.2,1.23.59,2.41,1.2,3.52.47.84,1.04,1.57,1.76,2.24.43.41,1.9,1.63,1.79.29-.14-1.84-.7-3.61-1.19-5.38-.29-1.03-.72-2-.99-3.03-.1-.4-.74-2.25-.48-2.47l-.25-.45Z"/>
                <path class="cls-1" d="M9.91,31.47c.64,1.75,1.06,3.49,1.47,5.3.22.96.49,1.9.68,2.86.11.53.13,1.45.43,1.92.58.92,1.13-1.37,1.22.15.03.57.03,1.83-.75,1.91-.86.08-1.75-1.16-2.26-1.7-.42-.44-.86-.89-1.2-1.41-.29-.44-.84-1.22-.82-1.73.48.15.91,1,1.25,1.38.22.25.99,1.29,1.4,1.13.53-.2-.3-2.73-.38-3.17-.21-1.22-.49-2.44-.58-3.66-.04-.55-.15-1.09-.24-1.63-.08-.46-.33-.98-.24-1.44.04.04.08.09.12.13l-.12-.05Z"/>
              </g>
              <path class="cls-14" d="M10.08,31.41c.49.69.95,1.39,1.57,2.01.6.59,1.26,1.12,1.71,1.85.25.41.49.91.39,1.39-.12.58-.55.49-.88.09-.39-.46-.57-1.08-.93-1.57-.35-.47-.76-.9-1.03-1.41-.15-.3-.99-2.31-.78-2.38l-.06.02Z"/>
              <path class="cls-8" d="M11.62,38.3c.36.83.5,1.88.64,2.76.06.35.13.86.34,1.15.41.59.46-.12.9-.22.45-.11.18.54.07.82-.12.32-.25.66-.62.67-.62.02-1.41-.73-1.83-1.09-.55-.46-1.37-1.15-1.59-1.86.8.43,1.4,1.42,2.3,1.73.36-.44.09-1.61.06-2.14-.03-.56-.12-1.07-.2-1.63-.05.07.02.05.05.1l-.14-.3Z"/>
            </g>
            <path class="cls-2" d="M14.2,36.93c-.52.16-.58,1.14-.68,1.57-.16.69-.26,1.38-.24,2.08.06-1.54-1.57-3.15-2.93-3.74-1.1-.47-2.74-.21-3.37-1.47.04.31-.07.67-.04,1.01.05.52.14,1.02.39,1.48.63,1.2,1.83,2.1,2.9,2.91.81.61,1.88,1.17,2.86,1.43.49.13.98.19,1.47.33.42.12.97.53,1.41.32-.23-.57-.68-1.06-.88-1.67-.22-.62-.37-1.32-.47-1.97-.14-.85.06-1.89-.53-2.6l.13.32Z"/>
            <g>
              <g>
                <path class="cls-11" d="M13.71,40.76c-.41.03-1.09-.91-1.37-1.2-.73-.76-1.63-1.46-2.57-1.85-1.5-.62-2.65-.29-4.04.04-.7.17-1.3.17-2.02.04,1.17,3.01,4.09,5.12,7.09,4.97.66-.04,1.25-.14,1.86-.36.35-.12.76-.19,1.05-.43.39-.33.21-.72-.1-1.14-.06,0-.02.04-.03.06l.14-.13Z"/>
                <path class="cls-3" d="M3.87,37.89c.95.96,2.48,1.08,3.68,1.48.71.23,1.38.63,2.08.92.62.26,1.27.44,1.89.72.51.24,1.5.88,2.03.79.72-.12.29-.88-.11-1.15-.72-.49-1.26-1.17-1.94-1.74-.44-.38-.85-.77-1.37-1.03-.48-.24-1.05-.26-1.56-.37.22.26.7.38.99.56.43.27.85.57,1.2.95.16.18.66.65.32.8-.12.05-.55-.19-.67-.24-.37-.16-.74-.33-1.11-.46-1.2-.44-2.47-.23-3.7-.49-.6-.13-1.51-.15-1.92-.74.06,0,.16,0,.24.02h-.05Z"/>
                <path class="cls-3" d="M3.97,37.91c.61.61,1.75.7,2.5.91,1.04.29,2.04.56,3.07.96.48.18.97.29,1.44.48.32.13.67.37,1,.33.68-.07-.07-.88-.29-1.24.39-.2,1.51,1.18,1.78,1.5.19.24.42.55.1.75-.37.24-1.43-.38-1.85-.53-1.45-.54-2.89-1.27-4.35-1.72-.96-.3-1.93-.73-2.84-1.21-.15-.08-.51-.26-.51-.37l-.07.12Z"/>
                <path class="cls-3" d="M4.01,37.93c.45.09.96.37,1.42.52.63.2,1.25.44,1.87.67.6.23,1.2.44,1.8.7.32.14.99.28,1.21.56-.37.24-1.16.16-1.61.14-.7-.03-1.43-.19-2.12-.4-.85-.25-2-.83-2.49-1.67.45.64.72,1.35,1.28,1.91.49.49,1.12.99,1.74,1.28.96.45,1.94.73,2.95.84.77.08,1.5.04,2.24-.13.45-.1,1.86-.52.87-1.08-1.37-.77-2.83-1.22-4.28-1.72-.84-.29-1.69-.45-2.52-.76-.33-.12-1.87-.56-1.94-.83l-.41-.04Z"/>
                <path class="cls-1" d="M4.05,38.04c1.49.39,2.88.92,4.32,1.5.76.3,1.53.56,2.29.88.42.18,1.09.59,1.53.61.87.04-.56-1.41.55-.75.42.25,1.32.83,1.09,1.4-.25.62-1.46.64-2.04.73-.47.08-.95.16-1.44.15-.42-.02-1.19,0-1.54-.27.29-.25,1.05-.15,1.44-.2.26-.03,1.28-.06,1.32-.41.05-.45-2.05-1.08-2.4-1.23-.95-.43-1.92-.82-2.83-1.34-.4-.23-.84-.41-1.25-.6-.36-.16-.82-.23-1.11-.52.04,0,.09-.01.14-.02l-.08.05Z"/>
              </g>
              <path class="cls-14" d="M4.07,37.89c.67,0,1.34.01,2.01-.12.64-.13,1.26-.32,1.95-.29.38.02.83.09,1.14.38.37.35.15.6-.26.64-.47.04-.98-.13-1.47-.11-.46.02-.91.09-1.38.03-.27-.04-2.01-.42-1.98-.59v.05Z"/>
              <path class="cls-8" d="M9.55,40.09c.72.14,1.52.55,2.21.87.27.12.66.31.94.31.58,0,.08-.37.17-.72.09-.35.45.14.62.34.19.24.38.48.26.73-.21.43-1.04.61-1.45.72-.54.15-1.32.39-1.91.19.6-.33,1.52-.28,2.08-.74-.18-.45-1.12-.82-1.51-1.05-.41-.25-.81-.42-1.24-.63.04.06.04,0,.09,0l-.26-.05Z"/>
            </g>
            <g>
              <g>
                <path class="cls-11" d="M20.43,44.63c-.5.1-1.36-.87-1.71-1.15-.91-.76-2.02-1.42-3.18-1.71-1.83-.46-3.2.12-4.87.74-.84.31-1.56.42-2.43.4,1.53,3.29,5.13,5.24,8.75,4.55.79-.15,1.5-.38,2.22-.73.42-.21.92-.35,1.25-.68.46-.45.22-.87-.17-1.3-.08.01-.02.05-.04.07l.17-.18Z"/>
                <path class="cls-3" d="M8.46,43c1.18.96,3.03.83,4.5,1.08.87.15,1.69.49,2.55.71.76.19,1.55.29,2.3.52.62.19,1.84.76,2.49.57.86-.26.31-1.07-.19-1.31-.89-.45-1.56-1.14-2.4-1.69-.55-.36-1.06-.75-1.69-.96-.59-.2-1.28-.12-1.9-.16.27.27.86.32,1.22.48.53.23,1.05.51,1.49.9.21.18.82.64.41.87-.15.08-.67-.12-.82-.17-.46-.12-.9-.25-1.36-.35-1.46-.29-2.98.16-4.48.07-.73-.04-1.83.08-2.35-.53.08-.01.2-.03.29-.02h-.06Z"/>
                <path class="cls-3" d="M8.57,43.01c.77.59,2.14.5,3.06.62,1.27.15,2.48.3,3.74.59.58.13,1.18.16,1.76.31.39.1.82.32,1.22.22.82-.2-.12-1.01-.39-1.38.46-.3,1.88,1.11,2.2,1.43.24.25.53.57.16.86-.44.34-1.75-.19-2.25-.3-1.78-.38-3.53-.97-5.32-1.25-1.17-.18-2.36-.51-3.47-.91-.19-.07-.63-.22-.62-.34l-.08.16Z"/>
                <path class="cls-3" d="M8.63,43.01c.54.02,1.17.26,1.74.35.76.13,1.53.29,2.28.46.73.16,1.46.31,2.19.5.39.11,1.2.15,1.48.44-.44.35-1.39.39-1.94.44-.84.08-1.73.03-2.57-.09-1.03-.15-2.44-.62-3.07-1.51.57.66.92,1.43,1.62,1.99.61.49,1.39.96,2.15,1.19,1.17.35,2.36.52,3.59.47.93-.04,1.81-.22,2.7-.54.54-.2,2.22-.92,1-1.39-1.68-.66-3.46-.94-5.23-1.26-1.02-.19-2.06-.24-3.08-.44-.4-.08-2.28-.33-2.37-.64l-.5.03Z"/>
                <path class="cls-1" d="M8.67,43.13c1.8.2,3.51.58,5.28,1,.93.21,1.87.38,2.79.62.52.13,1.34.5,1.87.45,1.05-.1-.73-1.54.64-.96.52.22,1.62.74,1.37,1.44-.28.77-1.74.99-2.43,1.2-.57.17-1.14.35-1.73.42-.51.05-1.43.19-1.86-.04.34-.34,1.25-.35,1.73-.47.31-.08,1.54-.29,1.58-.71.04-.53-2.52-.89-2.94-1.02-1.16-.33-2.35-.61-3.47-1.06-.49-.2-1.02-.34-1.53-.49-.44-.13-1-.13-1.36-.4.05-.02.11-.03.16-.04l-.1.07Z"/>
              </g>
              <path class="cls-14" d="M8.69,42.96c.81-.12,1.62-.22,2.41-.49.77-.26,1.51-.59,2.34-.66.46-.04,1.01-.04,1.39.25.46.34.2.67-.29.79-.56.13-1.19.02-1.77.13-.55.1-1.09.26-1.66.27-.32,0-2.44-.14-2.41-.34v.06Z"/>
              <path class="cls-8" d="M15.39,44.57c.87.04,1.85.37,2.7.62.32.1.81.25,1.15.2.69-.1.08-.45.18-.86.1-.43.55.08.75.29.24.24.48.49.34.81-.23.54-1.23.89-1.72,1.09-.64.27-1.58.67-2.29.55.71-.49,1.82-.59,2.48-1.22-.24-.49-1.38-.75-1.86-.96-.5-.21-.99-.35-1.51-.52.04.07.05,0,.11,0h-.32Z"/>
            </g>
            <g>
              <g>
                <path class="cls-11" d="M21.67,46.73c-.4-.34-.13-1.64-.11-2.11.06-1.21-.09-2.54-.58-3.66-.78-1.77-2.14-2.53-3.73-3.49-.8-.48-1.35-1.01-1.88-1.73-1.81,3.3-1.17,7.46,1.71,9.96.63.55,1.28.98,2.04,1.35.44.21.88.53,1.37.59.68.09.88-.37,1-.96-.06-.05-.05.02-.08.02l.26.02Z"/>
                <path class="cls-3" d="M15.43,35.97c-.06,1.56,1.22,2.99,1.94,4.34.42.8.66,1.69,1.02,2.52.32.74.75,1.44,1.03,2.2.23.62.53,1.97,1.1,2.37.77.54,1.1-.41.99-.97-.18-1-.03-1.99-.09-3.01-.04-.67-.04-1.33-.26-1.97-.22-.6-.71-1.12-1.08-1.64-.05.39.28.9.37,1.29.14.58.24,1.18.19,1.77-.02.28-.03,1.07-.47.88-.16-.07-.32-.62-.38-.77-.19-.45-.36-.89-.57-1.33-.68-1.38-2.03-2.33-2.91-3.6-.42-.62-1.23-1.43-1.04-2.24.06.06.15.14.2.22l-.03-.05Z"/>
                <path class="cls-3" d="M15.49,36.08c-.02.99.93,2.05,1.42,2.87.67,1.13,1.32,2.21,1.88,3.41.26.55.61,1.06.86,1.62.17.38.25.87.59,1.13.69.54.78-.73.92-1.19.55.18.25,2.22.19,2.68-.05.36-.15.79-.62.66-.57-.14-.95-1.54-1.18-2.02-.81-1.68-1.43-3.48-2.33-5.11-.59-1.06-1.06-2.24-1.43-3.39-.06-.2-.21-.64-.11-.72l-.18.04Z"/>
                <path class="cls-3" d="M15.52,36.13c.33.46.53,1.12.81,1.63.38.7.73,1.43,1.06,2.14.33.7.67,1.38.98,2.1.16.39.63,1.07.56,1.48-.57-.14-1.22-.88-1.61-1.3-.6-.63-1.12-1.38-1.55-2.15-.53-.92-1.03-2.37-.68-3.44-.2.87-.63,1.65-.66,2.56-.02.8.07,1.73.36,2.5.45,1.17,1.06,2.25,1.88,3.21.62.74,1.34,1.34,2.17,1.86.51.32,2.19,1.23,1.82-.06-.51-1.78-1.41-3.4-2.26-5.04-.49-.95-1.11-1.82-1.58-2.78-.18-.37-1.17-2.06-.97-2.32l-.34-.39Z"/>
                <path class="cls-1" d="M15.45,36.24c.98,1.59,1.74,3.22,2.51,4.91.41.9.86,1.77,1.25,2.67.22.5.43,1.4.81,1.8.76.79.84-1.56,1.22-.08.15.55.4,1.78-.35,2.01-.83.25-1.95-.79-2.56-1.22-.5-.35-1.03-.71-1.46-1.15-.37-.38-1.07-1.04-1.15-1.54.5.06,1.1.8,1.5,1.11.26.2,1.23,1.07,1.61.84.48-.3-.84-2.61-1.01-3.03-.46-1.15-.98-2.29-1.31-3.48-.15-.53-.37-1.04-.57-1.55-.17-.43-.53-.89-.53-1.36.05.03.1.07.14.11l-.12-.03Z"/>
              </g>
              <path class="cls-14" d="M15.6,36.15c.63.58,1.22,1.18,1.95,1.66.7.46,1.46.85,2.05,1.48.33.35.67.79.67,1.29,0,.59-.44.58-.85.26-.47-.37-.78-.95-1.23-1.36-.44-.39-.92-.72-1.29-1.18-.21-.26-1.43-2.07-1.24-2.18l-.05.03Z"/>
              <path class="cls-8" d="M18.51,42.6c.52.74.86,1.74,1.19,2.59.12.32.3.81.56,1.06.53.5.43-.21.84-.39.42-.19.28.49.24.79-.05.34-.11.7-.47.78-.6.14-1.54-.45-2.02-.71-.63-.35-1.58-.86-1.93-1.52.87.27,1.66,1.12,2.61,1.25.27-.5-.24-1.59-.37-2.11-.14-.54-.33-1.03-.52-1.56-.03.08.03.05.07.09l-.2-.27Z"/>
            </g>
            <g>
              <g>
                <path class="cls-11" d="M26.28,47.96c-.44.24-1.55-.46-1.96-.63-1.09-.47-2.35-.81-3.54-.77-1.88.07-3.04,1-4.46,2.06-.72.53-1.38.82-2.22,1.05,2.41,2.73,6.42,3.62,9.69,1.96.71-.36,1.34-.77,1.93-1.31.34-.31.78-.58,1.01-.99.31-.56-.04-.9-.53-1.21-.07.04,0,.05-.01.08l.11-.22Z"/>
                <path class="cls-3" d="M14.32,49.69c1.41.59,3.15-.03,4.63-.19.88-.09,1.76,0,2.65-.02.79-.03,1.57-.15,2.36-.14.65.01,1.99.23,2.55-.13.75-.49,0-1.11-.55-1.21-.98-.19-1.83-.67-2.79-.96-.63-.2-1.23-.43-1.89-.45-.63-.02-1.27.23-1.87.37.34.18.92.07,1.31.12.58.08,1.15.2,1.68.45.26.12.97.39.65.72-.12.12-.68.06-.84.06-.47,0-.93,0-1.4.04-1.49.12-2.82.97-4.28,1.29-.71.15-1.73.58-2.4.13.07-.03.18-.09.27-.1h-.06Z"/>
                <path class="cls-3" d="M14.44,49.67c.9.36,2.2-.11,3.11-.25,1.26-.2,2.47-.39,3.76-.46.6-.03,1.18-.16,1.78-.19.41-.02.88.08,1.24-.13.73-.42-.4-.93-.78-1.22.35-.41,2.12.56,2.52.77.31.17.67.4.4.78-.33.45-1.73.3-2.25.34-1.81.12-3.67.04-5.46.26-1.17.15-2.41.16-3.59.08-.2-.02-.66-.04-.69-.16l-.03.18Z"/>
                <path class="cls-3" d="M14.5,49.66c.53-.13,1.2-.07,1.77-.14.77-.09,1.55-.14,2.32-.19.76-.04,1.5-.11,2.25-.12.41,0,1.2-.18,1.55.02-.32.45-1.22.75-1.73.95-.79.31-1.65.5-2.5.62-1.03.14-2.52.07-3.38-.6.73.48,1.29,1.12,2.12,1.47.73.3,1.61.54,2.41.55,1.23.01,2.42-.15,3.58-.54.88-.29,1.68-.71,2.44-1.26.46-.33,1.87-1.49.56-1.61-1.8-.17-3.59.05-5.38.22-1.03.1-2.05.33-3.08.41-.4.03-2.28.31-2.46.04l-.47.16Z"/>
                <path class="cls-1" d="M14.57,49.77c1.79-.31,3.54-.41,5.34-.5.96-.04,1.91-.14,2.87-.16.53-.01,1.42.11,1.92-.08.98-.39-1.14-1.27.34-1.1.56.07,1.77.27,1.72,1.01-.05.81-1.39,1.43-1.99,1.82-.49.32-.99.65-1.54.87-.47.2-1.31.58-1.8.47.23-.42,1.1-.68,1.52-.93.27-.16,1.4-.7,1.31-1.12-.11-.52-2.68-.17-3.11-.17-1.21,0-2.43.06-3.63-.06-.53-.05-1.08-.04-1.61-.04-.46,0-1,.15-1.42-.01.05-.03.1-.06.15-.09l-.07.1Z"/>
              </g>
              <path class="cls-14" d="M14.54,49.6c.74-.34,1.49-.65,2.18-1.12.66-.46,1.28-.98,2.05-1.28.43-.17.96-.31,1.4-.14.54.21.38.59-.05.84-.5.29-1.14.35-1.66.61-.51.25-.98.55-1.52.72-.31.09-2.38.54-2.41.33v.06Z"/>
              <path class="cls-8" d="M21.43,49.3c.85-.2,1.89-.15,2.77-.14.34,0,.85.02,1.16-.12.64-.29-.05-.45-.07-.87-.03-.43.55-.08.81.07.29.17.6.34.55.68-.08.58-.93,1.19-1.34,1.52-.53.43-1.32,1.08-2.04,1.16.54-.67,1.59-1.06,2.03-1.85-.37-.41-1.54-.35-2.05-.41-.55-.06-1.05-.06-1.6-.08.06.05.05-.01.11-.03l-.31.08Z"/>
            </g>
            <g>
              <g>
                <path class="cls-11" d="M27.08,51.22c-.35-.39.11-1.64.21-2.1.24-1.19.29-2.52-.02-3.7-.51-1.86-1.74-2.8-3.18-3.99-.72-.59-1.18-1.19-1.61-1.98-2.28,3.01-2.27,7.21.22,10.1.54.63,1.12,1.16,1.82,1.63.4.27.79.65,1.26.78.66.19.93-.23,1.13-.8-.05-.06-.06.01-.09,0l.25.06Z"/>
                <path class="cls-3" d="M22.51,39.69c-.29,1.54.77,3.13,1.28,4.57.3.86.4,1.76.64,2.64.21.78.52,1.53.69,2.32.13.65.23,2.03.73,2.51.68.64,1.15-.25,1.13-.82-.04-1.02.26-1.97.35-3,.05-.67.16-1.32.03-1.99-.12-.63-.53-1.21-.82-1.78-.11.38.14.93.18,1.33.05.59.06,1.2-.08,1.78-.07.28-.18,1.06-.6.8-.15-.09-.22-.66-.26-.82-.12-.47-.22-.93-.37-1.39-.46-1.46-1.67-2.59-2.34-3.98-.33-.67-1.01-1.6-.7-2.37.05.06.13.17.17.25l-.02-.06Z"/>
                <path class="cls-3" d="M22.55,39.8c-.16.98.62,2.16.99,3.04.5,1.21.98,2.38,1.35,3.64.18.59.45,1.14.61,1.73.11.4.12.9.42,1.21.61.63.88-.61,1.09-1.05.51.26-.08,2.23-.22,2.68-.1.34-.26.76-.71.57-.54-.22-.71-1.66-.87-2.17-.55-1.77-.9-3.65-1.55-5.38-.43-1.14-.72-2.37-.91-3.56-.03-.2-.12-.67,0-.73l-.19.02Z"/>
                <path class="cls-3" d="M22.58,39.85c.25.5.35,1.18.56,1.73.27.74.51,1.51.73,2.27.22.74.46,1.46.65,2.21.11.4.47,1.15.34,1.54-.54-.22-1.07-1.05-1.4-1.51-.51-.72-.91-1.54-1.22-2.35-.38-.99-.67-2.5-.16-3.5-.33.83-.87,1.54-1.03,2.44-.14.79-.19,1.73-.01,2.52.27,1.22.72,2.38,1.39,3.45.51.82,1.13,1.52,1.87,2.15.46.39,1.98,1.53,1.81.2-.24-1.83-.89-3.57-1.49-5.31-.34-1.01-.82-1.96-1.15-2.97-.13-.39-.86-2.21-.62-2.44l-.28-.44Z"/>
                <path class="cls-1" d="M22.49,39.95c.73,1.71,1.25,3.44,1.75,5.22.27.94.59,1.87.84,2.82.14.53.21,1.45.53,1.9.63.89,1.06-1.42,1.22.09.06.57.13,1.83-.65,1.95-.86.12-1.81-1.06-2.35-1.58-.45-.42-.91-.85-1.27-1.34-.31-.43-.91-1.18-.91-1.69.49.13.97.95,1.32,1.31.23.24,1.05,1.24,1.46,1.06.52-.22-.45-2.71-.55-3.14-.28-1.21-.62-2.41-.78-3.63-.07-.54-.21-1.09-.33-1.62-.1-.45-.39-.96-.32-1.42.04.04.09.08.13.13l-.12-.05Z"/>
              </g>
              <path class="cls-14" d="M22.65,39.88c.53.66,1.03,1.34,1.68,1.92.63.56,1.32,1.05,1.81,1.76.27.39.54.88.47,1.37-.09.58-.52.52-.88.14-.41-.44-.63-1.05-1.02-1.52-.37-.45-.8-.85-1.1-1.35-.17-.29-1.11-2.26-.91-2.33l-.06.02Z"/>
              <path class="cls-8" d="M24.57,46.68c.41.8.6,1.85.79,2.73.07.34.18.85.39,1.13.45.57.46-.15.89-.27.45-.13.21.53.12.82-.1.33-.22.67-.58.7-.62.05-1.45-.66-1.89-.99-.58-.44-1.43-1.07-1.68-1.78.82.39,1.47,1.34,2.4,1.61.34-.46,0-1.61-.05-2.14-.06-.56-.18-1.06-.28-1.62-.04.08.02.05.05.1l-.15-.29Z"/>
            </g>
            <path class="cls-11" d="M27.87,44.76c-1.42-.19-2.07,2.77-2.21,3.72-.19,1.28-.16,3.23.89,4.2.55.51,1.23.35,1.86.13.4-.13.84-.28,1.27-.23.43.04.59.28.96.42,1.39.52,3.72-.06,3.97-1.69.34-2.21-.23-5.62-2.38-6.81-1.35-.75-3.75-.52-4.92.37l.55-.11Z"/>
            <path class="cls-3" d="M27.7,44.6c-1.2.16-1.87,2.35-1.98,3.32-.15,1.29-.18,2.86.52,4,.56.91,1.73.84,2.72.66.47-.09.83-.25,1.31-.1.47.15.81.43,1.34.42,1.8,0,2.21-1.41,2.43-2.95.13-.92.16-1.78-.09-2.69-.16-.58-.51-1.69-1.01-2.01-.15.36-.03.85-.09,1.25-.11.71-.45,1.45-.95,1.97-.83.86-2.2.97-3.04.11-.66-.69-1.05-1.57-1.16-2.51-.06-.43-.13-1.23.22-1.54l-.22.05Z"/>
            <path class="cls-3" d="M27.65,44.87c-1.25-.27-1.85,3.12-1.93,3.92-.11,1.05-.07,3.07,1.01,3.66,1.08.6,1.82-.53,2.86-.37.92.14,1.52.8,2.6.66,2.79-.37,2.24-5.48,1.06-7.11-.25,1.57.33,2.96-.86,4.33-.86,1-1.87,1.23-3.14.82-2.52-.81-2.8-4.13-1.65-6.02l.05.11Z"/>
            <path class="cls-1" d="M26.54,44.44c.01.66-.28.9-.66,1.42-.45.61-.7,1.21-.87,1.95-.11.47-.13,1.3-.62,1.53-.32.14-.91.05-1.26.08.09,1,1.96,2.41,2.91,2.55.08-1.52-.25-3.04.16-4.58.18-.7.45-1.28.77-1.92.41-.81-.05-.7-.43-1.31v.28Z"/>
            <path class="cls-1" d="M33.17,45.36c1.45,1.56,1.29,4.3,1.39,6.28.6.13,1.39-.9,1.76-1.29.69-.73,1.29-1.54,1.6-2.51-.22.5-1.29.94-1.72.47-.48-.53.18-1.41-.56-1.96-.44-.32-2.36-.63-2.31-1.21l-.17.22Z"/>
            <path class="cls-1" d="M33.34,45.64c.46.34.25,2.6.17,3.18-.14.96-.5,1.7-1.28,2.28-.67.49-1.42.78-2.24.77-.83,0-1-.4-1.67-.64-.29-.11-.56.03-.84-.12-.33-.18-.63-.69-.76-1.03-.15-.36-.12-1.88-.66-1.93-1.07-.1-.06,3.17.2,3.61.28.47.63.84,1.23.87.55.03.93-.33,1.49-.33,1.1.01,1.97.82,3.1.71,3.5-.32,2.19-5.05,1.49-7.12-.07-.2-.13-.39-.16-.59l-.06.33Z"/>
            <path class="cls-1" d="M27.04,44.98c-.07.64-.98,1.47-1.28,2.09-.36.71-.45,1.44-.71,2.17-.09.27-.09.4-.31.6-.24.22-.64.19-.61.55.03.47,1.32,1.21,1.7,1.47.1-.54-.1-1.17-.1-1.74,0-.73.08-1.37.22-2.08.14-.7.36-1.31.65-1.97.15-.33.62-1.04.51-1.37l-.06.28Z"/>
            <path class="cls-1" d="M33.28,45.36c.09.25.31.34.44.56.19.31.23.69.34,1.03.21.64.39,1.29.5,1.95.15.88.06,1.79.11,2.68.72.11,2.54-1.49,2.47-2.17-.72.06-.78.07-.88-.66-.09-.68-.44-.98-.88-1.48-.39-.45-.71-.91-1.15-1.32-.32-.29-.81-.5-1.06-.87l.11.27Z"/>
            <path class="cls-17" d="M27.87,44.71c-.24.04-1.09.95-.48,1.3.38.23,1.64-.39,2.07-.47.73-.12,1.64-.16,2.35.06.61.18.97.63,1.31.92-.43-1.28-.84-1.97-2.22-2.25-.52-.11-1.01-.11-1.55-.05-.27.03-.57,0-.83.09-.31.11-.53.37-.83.45l.16-.06Z"/>
            <path class="cls-15" d="M27.76,44.76c-.19.19-.87.79-.4,1.05.26.14.99-.55,1.27-.69.88-.42,1.92-.43,2.87-.25-.61-.47-1.29-.39-2.03-.39-.37,0-.72.02-1.06.09-.19.04-.35.1-.53.14-.2.04-.3.18-.29.04h.16Z"/>
            <path class="cls-1" d="M20.46,40.19c-.04.44.23.86.26,1.3.03.57-.22,1.07-.34,1.62-.28,1.21-.51,2.56-.17,3.78.3,1.1.91,2.14,1.73,2.93.74.71,1.6,1.12,2.54,1.45-.56-.48-1.12-.83-1.58-1.45-.38-.52-.74-1.08-.95-1.69-.37-1.09-.58-2.14-.8-3.27-.19-1.02-.14-1.92-.02-2.92.1-.93-.57-1.28-.85-2.07l.19.33Z"/>
            <path class="cls-1" d="M39.14,41.46c.04,1.01.46,1.94.4,2.99-.05,1-.29,2.11-.74,3.02-.39.78-.85,1.6-1.4,2.27-.19.24-.42.49-.65.69-.12.1-.72.42-.75.51,0,0-.02,0-.03,0,.05.61,1.77.68,2.17.45,1.41-.84,2.39-2.49,2.66-4.05.25-1.38.03-2.71-.49-4.02-.26-.65-.63-1.56-1.19-2,0,0-.02,0-.03,0l.04.15Z"/>
            <path class="cls-15" d="M33.58,46.9c.43.48.29,1.55.21,2.14-.09.67-.27,1.34-.69,1.88-.25.31-.9.61-.99,1-.13.61.72.54,1.06.37.98-.49.99-2.05,1-2.98,0-.44-.06-.87-.19-1.29-.1-.32-.2-1.15-.54-1.27l.15.15Z"/>
            <path class="cls-12" d="M27.83,44.71c-.35.1-.89.83-1.1,1.14-.39.55-.62,1.2-.73,1.86-.11.64-.18,1.64.22,2.21.21.3.69.53,1.05.39.44-.18.47-.79.49-1.19.07-1.56.2-3.33,2.06-3.68.33-.06,1.07-.2.89-.7-.16-.44-.94-.38-1.29-.36-.6.02-1.22.11-1.67.54-.04,0-.06-.03-.06-.07l.14-.15Z"/>
          </g>
        </g>
      </g>
    </g>
  </g>
</svg>