<?xml version="1.0" encoding="UTF-8"?>
<svg xmlns="http://www.w3.org/2000/svg" viewBox="0 0 51.07 48.56">
  <defs>
    <style>
      .cls-1 {
        fill: #8c6c1d;
      }

      .cls-1, .cls-2 {
        opacity: .2;
      }

      .cls-1, .cls-2, .cls-3, .cls-4 {
        mix-blend-mode: multiply;
      }

      .cls-2 {
        fill: #a98b31;
      }

      .cls-3 {
        fill: #c5d1d0;
      }

      .cls-3, .cls-5 {
        opacity: .5;
      }

      .cls-6 {
        fill: #fff;
      }

      .cls-7 {
        isolation: isolate;
      }

      .cls-4 {
        fill: #9f6825;
        opacity: .4;
      }

      .cls-5 {
        fill: #fbf2a5;
      }
    </style>
  </defs>
  <g class="cls-7">
    <g id="Layer_2">
      <g id="l1">
        <g>
          <path class="cls-6" d="M25.53,0C11.43,0,0,10.87,0,24.28s11.43,24.28,25.53,24.28,25.54-10.87,25.54-24.28S39.64,0,25.53,0ZM25.64,5.08c.18,0,.36,0,.54.02,1.32.02,2.6.19,3.84.48.01,0,.02,0,.03.01h.01s.12.07.12.07c.12,0,.24.03.35.05.11.02.22.05.33.09,2.24.62,4.31,1.63,6.14,2.96.02.04.05.08.08.12.14.08.28.17.42.26.27.2.52.41.77.64,4.13,3.54,6.74,8.8,6.74,14.67,0,7.11-3.83,13.33-9.54,16.69-.54.29-1.1.55-1.68.79.16-.04.32-.08.47-.13-2.6,1.3-5.52,2.03-8.62,2.03-1.72,0-3.39-.22-4.97-.65-.87-.23-1.72-.53-2.53-.88-.04-.02-.08-.03-.12-.05-.06-.02-.12-.04-.18-.07-.04-.02-.08-.04-.13-.06-.03-.01-.07-.02-.1-.04-.07-.03-.14-.06-.21-.09-.05-.02-.11-.05-.16-.07-2.24-1.08-4.23-2.58-5.89-4.39-2.09-2.29-3.64-5.07-4.45-8.16-.41-1.57-.63-3.22-.63-4.92,0-3.01.69-5.86,1.91-8.4.05-.1.11-.21.17-.32.56-1.13,1.24-2.19,2.01-3.18.22-.28.45-.56.68-.83.74-.84,1.54-1.62,2.41-2.31,3.33-2.71,7.57-4.33,12.19-4.33Z"/>
          <path class="cls-3" d="M48.18,27.54c-.34,2.47-1.29,4.65-2.55,6.78-1.22,2.07-2.04,4.59-3.95,6.18-2.57,2.15-6.24,3.86-9.86,4.71h-.01c-1.59.37-3.17.58-4.65.59-3.3.03-6.6,0-9.7-.87-.01-.01-.02-.01-.03-.01-.7-.19-1.4-.42-2.07-.7,0,0,0-.01-.02-.01-.77-.32-1.51-.7-2.24-1.16-.12-.07-.23-.15-.34-.23-2.44-1.61-4.54-4-5.76-6.71-.01,0-.01-.02-.01-.02-.94-2.06-1.37-4.29-1.08-6.51.04-.25.08-.49.13-.74.05,0,.1.01.15.02.05.01.1.02.14.05.21.07.4.24.57.46.81,3.09,2.36,5.87,4.45,8.16,1.66,1.81,3.65,3.31,5.89,4.39.05.02.11.05.16.07.07.03.14.06.21.09.03.02.07.03.1.04.05.02.09.04.13.06.06.03.12.05.18.07.04.02.08.03.12.05.81.35,1.66.65,2.53.88,1.58.43,3.25.65,4.97.65,3.1,0,6.02-.73,8.62-2.03-.15.05-.31.09-.47.13.58-.24,1.14-.5,1.68-.79,5.71-3.36,9.54-9.58,9.54-16.69,0-5.87-2.61-11.13-6.74-14.67-.25-.23-.5-.44-.77-.64-.14-.09-.28-.18-.42-.26-.03-.04-.06-.08-.08-.12-.41-.55-.64-1.17-.8-1.8-.02-.06-.03-.12-.05-.18-.37-1.49-.47-3.07-1.79-4.21l-.13-.26-.14-.27-.08-.16c.09.1.19.19.31.25h.01c.19.12.41.19.64.25.42.11.87.17,1.25.33.84.35,1.55.83,2.32,1.33.01,0,.02,0,.03.02,1.89,1.22,3.66,2.77,5.08,4.47,1.94,2.31,3.36,5.06,4.28,7.91,1.18,3.68.76,7.34.25,11.1Z"/>
          <path class="cls-2" d="M48.36,28.92c-1.09,4.19-2.82,8.04-6.01,11.12-1.19,1.13-2.52,1.78-3.73,2.86-1.23,1.09-2.39,1.91-4,2.38-3.6,1.04-7.26,1.48-11.1,1.26-2.55-.15-5.55-1.1-8.16-2.32,0,0,0-.01-.02-.01-.92-.43-1.79-.9-2.58-1.39-.1-.06-.2-.12-.3-.18-3.76-2.37-6.28-5.86-8.25-9.81-.95-1.91-1.54-3.61-1.87-5.48-.05-.27-.09-.54-.13-.81-.1-.73-.17-1.5-.21-2.31-.09-1.67.06-3.43.43-5.13t0-.01c.19-.86.43-1.69.73-2.49.96-2.53,2.67-4.37,4.21-6.48,1.31-1.8,2.92-3.46,4.74-4.73l.11-.23c-.16.47-.3.96-.43,1.47-.28,1.09-.49,2.25-.61,3.43-.02.13-.04.26-.04.39-.05.42-.08.85-.1,1.27-.23.27-.46.55-.68.83-.77.99-1.45,2.05-2.01,3.18-.06.11-.12.22-.17.32-1.22,2.54-1.91,5.39-1.91,8.4,0,1.7.22,3.35.63,4.92.81,3.09,2.36,5.87,4.45,8.16,1.66,1.81,3.65,3.31,5.89,4.39.05.02.11.05.16.07.07.03.14.06.21.09.03.02.07.03.1.04.05.02.09.04.13.06.06.03.12.05.18.07.04.02.08.03.12.05.81.35,1.66.65,2.53.88,1.58.43,3.25.65,4.97.65,3.1,0,6.02-.73,8.62-2.03-.15.05-.31.09-.47.13.58-.24,1.14-.5,1.68-.79,5.71-3.36,9.54-9.58,9.54-16.69,0-5.87-2.61-11.13-6.74-14.67-.25-.23-.5-.44-.77-.64-.14-.09-.28-.18-.42-.26-.03-.04-.06-.08-.08-.12-1.83-1.33-3.9-2.34-6.14-2.96-.11-.04-.22-.07-.33-.09-.11-.02-.23-.04-.35-.05l-.12-.06h-.01c-.06-.11-.13-.21-.21-.31-.16-.25-.33-.52-.49-.79-.86-1.4-1.48-2.94.12-3.34,0,0,.02-.01.03-.01,1.1-.27,3.3.43,4.59.89.08.04.16.06.23.09h.01c.07.03.14.06.2.08.15.05.29.11.44.17,1.2.46,2.41,1.01,3.57,1.66.01,0,.02,0,.03.02,1.97,1.09,3.8,2.43,5.25,4.08,1.12,1.27,1.8,2.87,2.65,4.27.91,1.51,1.88,2.86,2.44,4.59,1.32,4.12.51,7.87-.55,11.92Z"/>
          <path class="cls-2" d="M20.45,1.81c0,.18.1.42.13.62-.05.02-.09.04-.13.07v-.69Z"/>
          <path class="cls-2" d="M20.58,2.43c.14-.08.31-.14.49-.19-.15.11-.31.19-.48.26,0-.02-.01-.05-.01-.07Z"/>
          <path class="cls-2" d="M44.3,34.93c-1.46,2.46-3.4,4.98-5.61,6.82-1.04.87-2.01,1.14-3.23,1.57-1.14.4-2.03,1.22-3.16,1.7-.16.07-.32.13-.48.19h-.01c-2.45.88-5.3.86-7.87.87-2.18,0-4.45-.31-6.48-1.15-.01-.01-.02-.01-.03-.01-.68-.29-1.33-.64-1.95-1.05-2.44-1.64-5.12-3.97-7.11-6.14-.49-.53-.95-1.07-1.37-1.62-.01,0-.01-.02-.01-.02-1.29-1.66-2.32-3.43-3.15-5.41-1.25-2.98-.84-6.42-.26-9.58.68-3.74,1.93-6.41,4.41-9.31.45-.53,1.83-2.46,2.6-1.5.05.07.09.16.11.26.02.11.03.24.01.39-.02.48-.19,1.1-.35,1.61-.77.99-1.45,2.05-2.01,3.18-.06.11-.12.22-.17.32-1.22,2.54-1.91,5.39-1.91,8.4,0,1.7.22,3.35.63,4.92.81,3.09,2.36,5.87,4.45,8.16,1.66,1.81,3.65,3.31,5.89,4.39.05.02.11.05.16.07.07.03.14.06.21.09.03.02.07.03.1.04.05.02.09.04.13.06.06.03.12.05.18.07.04.02.08.03.12.05.81.35,1.66.65,2.53.88,1.58.43,3.25.65,4.97.65,3.1,0,6.02-.73,8.62-2.03-.15.05-.31.09-.47.13.58-.24,1.14-.5,1.68-.79,5.71-3.36,9.54-9.58,9.54-16.69,0-5.87-2.61-11.13-6.74-14.67-.25-.23-.5-.44-.77-.64-.14-.09-.28-.18-.42-.26-.03-.04-.06-.08-.08-.12-1.83-1.33-3.9-2.34-6.14-2.96-.11-.04-.22-.07-.33-.09-.11-.02-.23-.04-.35-.05l-.12-.06h-.01s-.02-.02-.03-.02c-1.24-.29-2.52-.46-3.84-.48-.22-.27-.35-.59-.48-.92-.26-.67-.48-1.38-1.29-1.78-.76-.38-2.3-.45-3.34-.16.68-.45,1.2-1.2,2.05-1.47,1.37-.42,3.27-.08,4.65.12.57.08,1.14.17,1.7.27,1.64.27,3.24.62,4.76,1.15,1.44.5,2.82,1.17,4.11,2.11,4.45,3.24,7.29,7.9,8.17,13.35.9,5.65.76,12.14-2.21,17.16Z"/>
          <path class="cls-4" d="M46.17,23.13c-.02-.23,0-.48-.05-.76-.04-.28-.09-.58-.14-.92-.06-.32-.08-.68-.16-1.05-.02-.08-.04-.17-.06-.25,0-.01-.01-.02-.01-.03-.08-.29-.15-.59-.23-.91-.47-1.63-1.14-3.65-2.48-5.68-1.31-2.03-3.15-4.16-5.68-5.85-.37-.25-.76-.49-1.16-.72-.23-.14-.46-.26-.7-.38-1.82-.96-3.89-1.69-6.15-2.08-.39-.07-.79-.13-1.19-.18-.44-.06-.85-.06-1.29-.09l-.64-.04-.33-.02h-.2s-.17.01-.17.01c-.9.06-1.81.05-2.72.22-1.84.21-3.66.78-5.42,1.51-1.76.75-3.41,1.8-4.95,3-.44.37-.86.75-1.26,1.15-.17.16-.33.32-.48.49-.82.84-1.57,1.74-2.25,2.7-1.09,1.66-1.95,3.48-2.55,5.38-.54,1.91-.78,3.97-.77,5.88.07,1.75.32,3.44.78,5.07.08.26.16.52.24.78.6,1.71,1.4,3.34,2.37,4.83.08.14.17.27.26.4.58.81,1.21,1.57,1.88,2.29.65.7,1.33,1.35,2.05,1.96.51.4,1.02.78,1.55,1.14,0,0,.01,0,.01,0,1.04.71,2.12,1.35,3.26,1.86,1.73.74,3.49,1.34,5.32,1.6.93.19,1.79.2,2.66.27h.17s.08.01.08.01h.04s.07,0,.07,0h.19s.14,0,.14,0l.67-.03c.44-.02.88-.01,1.31-.06,3.48-.38,6.65-1.59,9.16-3.27.63-.43,1.21-.89,1.77-1.33.53-.51,1.06-.97,1.53-1.46.45-.52.91-1,1.3-1.51.38-.53.76-1.02,1.09-1.53,1.34-2.03,2.01-4.05,2.48-5.68.1-.42.21-.82.29-1.19.09-.37.12-.73.18-1.05.05-.34.09-.64.13-.92.05-.28.04-.53.06-.76.04-.91.06-1.4.06-1.4,0,0-.02-.49-.06-1.41ZM46.05,25.33c-.01.17-.02.37-.03.6-.03.23-.02.49-.07.76-.04.28-.09.57-.15.9-.05.33-.09.68-.19,1.04-.11.37-.21.75-.33,1.16-.06.2-.11.42-.19.62-.08.21-.17.42-.25.64,0,.02-.01.03-.02.05-.08.2-.17.41-.26.61-.09.23-.19.46-.32.68-.24.45-.49.92-.76,1.4-.3.46-.62.93-.95,1.42-.72.98-1.59,1.96-2.61,2.88-.93.85-1.99,1.65-3.18,2.36-.41.24-.83.48-1.27.69-.54.29-1.1.55-1.68.79.16-.04.32-.08.47-.13-2.6,1.3-5.52,2.03-8.62,2.03-1.72,0-3.39-.22-4.97-.65-.87-.23-1.72-.53-2.53-.88-.04-.02-.08-.03-.12-.05-.06-.02-.12-.04-.18-.07-.04-.02-.08-.04-.13-.06-.03-.01-.07-.02-.1-.04-.07-.03-.14-.06-.21-.09-.05-.02-.11-.05-.16-.07-1.49-.63-2.9-1.47-4.22-2.46-1.06-.84-2.03-1.8-2.91-2.85-.34-.41-.66-.82-.97-1.25-1.08-1.58-1.91-3.32-2.49-5.15-.12-.43-.23-.86-.32-1.3-.3-1.44-.44-2.91-.44-4.35.1-1.98.41-3.81,1.01-5.62.35-1,.78-1.96,1.28-2.89.05-.1.11-.21.17-.32.56-1.13,1.24-2.19,2.01-3.18.22-.28.45-.56.68-.83.74-.84,1.54-1.62,2.41-2.31,3.33-2.71,7.57-4.33,12.19-4.33.18,0,.36,0,.54.02,1.32.02,2.6.19,3.84.48.01,0,.02,0,.03.01h.01s.12.07.12.07c.12,0,.24.03.35.05.11.02.22.05.33.09,2.24.62,4.31,1.63,6.14,2.96.02.04.05.08.08.12.14.08.28.17.42.26.24.16.48.32.71.49,1.77,1.27,3.21,2.76,4.31,4.25.33.48.65.95.96,1.41.26.48.51.95.75,1.4.13.22.23.45.32.67.09.23.19.45.28.67.08.21.17.43.25.63.08.21.12.42.19.63.07.23.13.45.19.67.05.17.1.33.14.49.1.36.14.71.2,1.03.05.33.1.63.15.91.05.27.04.53.06.75.05.8.07,1.28.08,1.38-.01.27-.03.54-.04.81Z"/>
          <path class="cls-1" d="M46.09,24.52c-.01.27-.03.54-.04.81-.1,1.3-.32,2.59-.65,3.86-.17.64-.35,1.26-.56,1.86,0,.02-.01.03-.02.05-.8,2.36-1.92,4.38-3.72,6.21-1.15,1.17-2.28,2.55-3.57,3.47-1.69,1.21-3.62,1.5-5.5,2.38-1.98.93-3.94,1.44-5.97,1.57h-.19s-.07,0-.07,0c-.33.02-.66.03-1,.03-1.19,0-2.41-.12-3.68-.35-2.02-.36-3.7-1.21-5.45-2.26-.86-.51-1.91-1.17-2.87-1.96-.85-.68-1.62-1.46-2.14-2.32-.25-.4-.44-.83-.55-1.27-.02-.05-.03-.1-.04-.15.4.41.82.77,1.28,1.07,1.66,1.81,3.65,3.31,5.89,4.39.05.02.11.05.16.07.07.03.14.06.21.09.03.02.07.03.1.04.05.02.09.04.13.06.06.03.12.05.18.07.04.02.08.03.12.05.81.35,1.66.65,2.53.88,1.58.43,3.25.65,4.97.65,3.1,0,6.02-.73,8.62-2.03-.15.05-.31.09-.47.13.58-.24,1.14-.5,1.68-.79,5.71-3.36,9.54-9.58,9.54-16.69,0-5.87-2.61-11.13-6.74-14.67-.25-.23-.5-.44-.77-.64-.14-.09-.28-.18-.42-.26-.03-.04-.06-.08-.08-.12-1.83-1.33-3.9-2.34-6.14-2.96-.11-.04-.22-.07-.33-.09-.11-.02-.23-.04-.35-.05l-.12-.06h-.01s-.02-.02-.03-.02l-.53-.26c.12,0,.24-.01.35-.03.38-.07.72-.24,1.13-.2.68.06,1.13.55,1.77.78.88.31,1.83.46,2.76.71.21.06.43.12.65.2.11.03.22.07.33.11,2.85,1.11,4.29,3.32,6.01,5.66,1.67,2.28,2.75,4.87,3.26,7.57,0,.01.01.02.01.03.26,1.44.37,2.9.33,4.37Z"/>
          <path class="cls-2" d="M20.67,43.18c-2.23-.38-4.41-1.1-6.4-2.19,0,0-.01,0-.01,0-.51-.28-1-.52-1.46-.78-.97-.51-1.85-1.07-2.63-2.05-.68-.85-1.18-1.92-1.65-2.96-.21-.46-.41-.91-.62-1.34-.78-1.63-1.35-3.3-1.71-4.99-1.22-5.64-.11-11.43,3.43-16.44.28-.41.67-.96,1.09-1.48.14-.17.29-.33.43-.49.3-.33.6-.61.89-.79.55-.34,1.46-.22,1.77-.9l-.35.65c-.87.69-1.67,1.47-2.41,2.31-.23.27-.46.55-.68.83-.77.99-1.45,2.05-2.01,3.18-.06.11-.12.22-.17.32-1.22,2.54-1.91,5.39-1.91,8.4,0,1.7.22,3.35.63,4.92.81,3.09,2.36,5.87,4.45,8.16,1.66,1.81,3.65,3.31,5.89,4.39.05.02.11.05.16.07.07.03.14.06.21.09.03.02.07.03.1.04.05.02.09.04.13.06.06.03.12.05.18.07.04.02.08.03.12.05.81.35,1.66.65,2.53.88Z"/>
          <path class="cls-2" d="M45.43,24.16c-.4,3.81-1.29,7.89-3.49,11.06-.61.89-1.28,1.91-2.02,2.87-.82,1.06-1.73,2.03-2.77,2.65-.81.48-1.85.78-2.87,1.05,0,0-.01,0-.02,0-.15.05-.31.09-.47.13.58-.24,1.14-.5,1.68-.79,5.71-3.36,9.54-9.58,9.54-16.69,0-5.87-2.61-11.13-6.74-14.67-.03-.05-.05-.1-.06-.15-.12-.29-.2-.57-.24-.86,1.41-.06,2.72,2.59,3.48,3.53,1.16,1.41,2.2,2.73,3.05,4.35.53,1.01.82,2.14.96,3.31.17,1.4.11,2.86-.03,4.2Z"/>
          <path class="cls-5" d="M15.31,2.34c-1.34,1.3-3.44,1.88-4.97,3-2.37,1.73-4.31,3.73-5.79,6.25C1.98,15.97.18,21.03.92,26.13c.34,2.3.95,4.81,1.76,7,.56,1.51,1.4,2.96,2.4,4.23.79,1,1.69,2.39,2.7,3.12-1.12-1.51-1.77-3.46-2.7-5.13-1-1.81-2.14-3.7-2.4-5.78-.21-1.69-.64-3.44-.7-5.14-.05-1.84-.11-4.3.7-5.99.29-.61.74-1.09.99-1.72.28-.67.42-1.38.66-2.07.55-1.57,1.81-2.65,2.78-3.97,1.07-1.47,2.76-2.69,4.24-3.75,1.43-1.03,2.83-1.81,4.49-2.38.75-.26,3.82-1.57,1.88-2.39-.92-.39-1.97-.05-2.79.33l.39-.15Z"/>
        </g>
      </g>
    </g>
  </g>
</svg>